<svg width="96" height="107" viewBox="0 0 96 107" fill="none" xmlns="http://www.w3.org/2000/svg">
<path d="M95.7694 106.363H14V0H70.2165L95.7694 25.3245V106.363Z" fill="#32373F"/>
<path d="M92.2753 28.0582H68V4L92.2753 28.0582Z" fill="#D1D1D1"/>
<rect y="16" width="55" height="28" rx="4" fill="black"/>
<path d="M17.3672 34.3633H12.7441L11.8652 37H9.06152L13.8252 24.2031H16.2686L21.0586 37H18.2549L17.3672 34.3633ZM13.4561 32.2275H16.6553L15.0469 27.4375L13.4561 32.2275ZM31.6744 32.7373C31.5748 34.1143 31.0651 35.1982 30.1451 35.9893C29.2311 36.7803 28.0241 37.1758 26.5241 37.1758C24.8834 37.1758 23.5914 36.625 22.6481 35.5234C21.7106 34.416 21.2418 32.8984 21.2418 30.9707V30.1885C21.2418 28.958 21.4586 27.874 21.8922 26.9365C22.3258 25.999 22.944 25.2812 23.7467 24.7832C24.5553 24.2793 25.4928 24.0273 26.5592 24.0273C28.0358 24.0273 29.2252 24.4229 30.1276 25.2139C31.0299 26.0049 31.5514 27.1152 31.692 28.5449H29.0553C28.9909 27.7188 28.7594 27.1211 28.361 26.752C27.9684 26.377 27.3678 26.1895 26.5592 26.1895C25.6803 26.1895 25.0211 26.5059 24.5817 27.1387C24.1481 27.7656 23.9254 28.7412 23.9137 30.0654V31.0322C23.9137 32.415 24.1217 33.4258 24.5377 34.0645C24.9596 34.7031 25.6217 35.0225 26.5241 35.0225C27.3385 35.0225 27.945 34.8379 28.3434 34.4688C28.7477 34.0938 28.9791 33.5166 29.0377 32.7373H31.6744ZM43.0198 32.7373C42.9202 34.1143 42.4104 35.1982 41.4905 35.9893C40.5764 36.7803 39.3694 37.1758 37.8694 37.1758C36.2288 37.1758 34.9368 36.625 33.9934 35.5234C33.0559 34.416 32.5872 32.8984 32.5872 30.9707V30.1885C32.5872 28.958 32.804 27.874 33.2376 26.9365C33.6712 25.999 34.2893 25.2812 35.0921 24.7832C35.9006 24.2793 36.8381 24.0273 37.9046 24.0273C39.3811 24.0273 40.5706 24.4229 41.4729 25.2139C42.3753 26.0049 42.8967 27.1152 43.0374 28.5449H40.4006C40.3362 27.7188 40.1047 27.1211 39.7063 26.752C39.3137 26.377 38.7131 26.1895 37.9046 26.1895C37.0256 26.1895 36.3665 26.5059 35.927 27.1387C35.4934 27.7656 35.2708 28.7412 35.259 30.0654V31.0322C35.259 32.415 35.4671 33.4258 35.8831 34.0645C36.3049 34.7031 36.9671 35.0225 37.8694 35.0225C38.6839 35.0225 39.2903 34.8379 39.6887 34.4688C40.093 34.0938 40.3245 33.5166 40.3831 32.7373H43.0198Z" fill="#D1D1D1"/>
<path fill-rule="evenodd" clip-rule="evenodd" d="M62.9844 65.9922V61.9844H55.0039V72.9883C54.582 72.6836 54.1191 72.4434 53.6152 72.2676C53.1113 72.0918 52.5664 72.0039 51.9805 72.0039C50.5976 72.0039 49.4199 72.4902 48.4473 73.4629C47.4746 74.4356 46.9883 75.6133 46.9883 76.9961C46.9883 78.3789 47.4746 79.5566 48.4473 80.5293C49.4199 81.502 50.5976 81.9883 51.9805 81.9883C53.3633 81.9883 54.5469 81.502 55.5312 80.5293C56.5156 79.5566 57.0078 78.3789 57.0078 76.9961V65.9922H62.9844ZM55.0039 52C57.7461 52 60.3359 52.5215 62.7734 53.5645C65.2109 54.6074 67.332 56.0371 69.1367 57.8535C70.9414 59.6699 72.3711 61.791 73.4258 64.2168C74.4805 66.6426 75.0078 69.2383 75.0078 72.0039C75.0078 74.7461 74.4805 77.3359 73.4258 79.7734C72.3711 82.2109 70.9414 84.332 69.1367 86.1367C67.332 87.9414 65.2109 89.3711 62.7734 90.4258C60.3359 91.4805 57.7461 92.0078 55.0039 92.0078C52.2383 92.0078 49.6426 91.4805 47.2168 90.4258C44.791 89.3711 42.6699 87.9414 40.8535 86.1367C39.0371 84.332 37.6074 82.2109 36.5645 79.7734C35.5215 77.3359 35 74.7461 35 72.0039C35 69.2383 35.5215 66.6426 36.5645 64.2168C37.6074 61.791 39.0371 59.6699 40.8535 57.8535C42.6699 56.0371 44.791 54.6074 47.2168 53.5645C49.6426 52.5215 52.2383 52 55.0039 52Z" fill="#D1D1D1"/>
</svg>
