<svg width="96" height="107" viewBox="0 0 96 107" fill="none" xmlns="http://www.w3.org/2000/svg">
<path d="M95.7694 106.363H14V0H70.2165L95.7694 25.3245V106.363Z" fill="#4D008D"/>
<path d="M92.2753 28.0582H68V4L92.2753 28.0582Z" fill="#DBA7FF"/>
<rect y="16" width="55" height="28" rx="4" fill="#2C0050"/>
<path fill-rule="evenodd" clip-rule="evenodd" d="M24.3672 34.3633H19.7441L18.8652 37H16.0615L20.8252 24.2031H23.2686L28.0586 37H25.2549L24.3672 34.3633ZM20.4561 32.2275H23.6553L22.0469 27.4375L20.4561 32.2275ZM36.5211 31.4541H31.4586V34.8818H37.4V37H28.8219V24.2031H37.3825V26.3389H31.4586V29.3887H36.5211V31.4541Z" fill="#DBA7FF"/>
<path fill-rule="evenodd" clip-rule="evenodd" d="M39.0078 53H58.9766V57.0078H39.0078V76.9766H35V57.0078C35 55.8828 35.3867 54.9336 36.1602 54.1602C36.9336 53.3867 37.8828 53 39.0078 53ZM46.9883 60.9805H66.9922V64.9883H46.9883V84.9922H42.9805V64.9883C42.9805 63.8867 43.373 62.9434 44.1582 62.1582C44.9434 61.373 45.8867 60.9805 46.9883 60.9805ZM55.0039 68.9961H71C72.1016 68.9961 73.0449 69.3828 73.8301 70.1562C74.6152 70.9297 75.0078 71.8789 75.0078 73.0039V89C75.0078 90.1016 74.6152 91.0449 73.8301 91.8301C73.0449 92.6152 72.1016 93.0078 71 93.0078H55.0039C53.8789 93.0078 52.9297 92.6152 52.1562 91.8301C51.3828 91.0449 50.9961 90.1016 50.9961 89V73.0039C50.9961 71.8789 51.3828 70.9297 52.1562 70.1562C52.9297 69.3828 53.8789 68.9961 55.0039 68.9961Z" fill="#DBA7FF"/>
</svg>
