<svg width="96" height="107" viewBox="0 0 96 107" fill="none" xmlns="http://www.w3.org/2000/svg">
<path d="M95.7694 106.363H14V0H70.2165L95.7694 25.3245V106.363Z" fill="#D07012"/>
<path d="M92.2753 28.0582H68V4L92.2753 28.0582Z" fill="#FFAD5D"/>
<rect y="16" width="55" height="28" rx="4" fill="#A75402"/>
<path fill-rule="evenodd" clip-rule="evenodd" d="M27.3672 33.3633H22.7441L21.8652 36H19.0615L23.8252 23.2031H26.2686L31.0586 36H28.2549L27.3672 33.3633ZM23.4561 31.2275H26.6553L25.0469 26.4375L23.4561 31.2275ZM34.3356 36H31.7867V26.4902H34.3356V36ZM31.6373 24.0293C31.6373 23.6484 31.7648 23.335 32.0197 23.0889C32.2745 22.8428 32.6217 22.7197 33.0612 22.7197C33.4948 22.7197 33.8405 22.8428 34.0983 23.0889C34.3561 23.335 34.485 23.6484 34.485 24.0293C34.485 24.416 34.3546 24.7324 34.0939 24.9785C33.8331 25.2246 33.4889 25.3477 33.0612 25.3477C32.6334 25.3477 32.2892 25.2246 32.0284 24.9785C31.7677 24.7324 31.6373 24.416 31.6373 24.0293Z" fill="#FFAD5D"/>
<path fill-rule="evenodd" clip-rule="evenodd" d="M66.9766 51C67.8203 51 68.5352 51.293 69.1211 51.8789C69.707 52.4648 70 53.168 70 53.9883C70 54.832 69.707 55.541 69.1211 56.1152C68.5352 56.6895 67.8203 56.9766 66.9766 56.9766C66.7656 56.9766 66.5488 56.9531 66.3262 56.9062C66.1035 56.8594 65.8867 56.7891 65.6758 56.6953L58.3281 64.0781L58.9961 64.9922C60.0977 64.3594 61.2402 63.7969 62.4238 63.3047C63.6074 62.8125 64.8262 62.3965 66.0801 62.0566C67.334 61.7168 68.623 61.4531 69.9473 61.2656C71.2715 61.0781 72.625 60.9844 74.0078 60.9844L75.9766 61.0547V65.0625L74.0078 64.9922C72.7187 64.9922 71.4473 65.0859 70.1934 65.2734C68.9394 65.4609 67.7266 65.7246 66.5547 66.0645C65.3828 66.4043 64.2461 66.832 63.1445 67.3477C62.043 67.8633 60.9883 68.4375 59.9805 69.0703C59.9805 70.1719 59.7754 71.2031 59.3652 72.1641C58.9551 73.125 58.3926 73.9629 57.6777 74.6777C56.9629 75.3926 56.125 75.9551 55.1641 76.3652C54.2031 76.7754 53.1719 76.9805 52.0703 76.9805C51.4375 77.9883 50.8633 79.043 50.3477 80.1445C49.832 81.2461 49.4043 82.3828 49.0645 83.5547C48.7246 84.7266 48.4609 85.9394 48.2734 87.1934C48.0859 88.4473 47.9922 89.7187 47.9922 91.0078L48.0625 92.9766H44.0547L43.9844 91.0078C43.9844 89.625 44.0781 88.2715 44.2656 86.9473C44.4531 85.623 44.7168 84.334 45.0566 83.0801C45.3965 81.8262 45.8125 80.6074 46.3047 79.4238C46.7969 78.2402 47.3594 77.0977 47.9922 75.9961L47.0781 75.3281L39.6953 82.6758C39.7891 82.8867 39.8594 83.1035 39.9062 83.3262C39.9531 83.5488 39.9766 83.7656 39.9766 83.9766C39.9766 84.8203 39.6895 85.5352 39.1152 86.1211C38.541 86.707 37.832 87 36.9883 87C36.168 87 35.4648 86.707 34.8789 86.1211C34.293 85.5352 34 84.8203 34 83.9766C34 83.1562 34.293 82.4531 34.8789 81.8672C35.4648 81.2812 36.168 80.9883 36.9883 80.9883C37.2227 80.9883 37.4512 81.0117 37.6738 81.0586C37.8965 81.1055 38.1016 81.1875 38.2891 81.3047L45.6719 73.8867C45.1328 73.2305 44.7168 72.4805 44.4238 71.6367C44.1309 70.793 43.9844 69.9141 43.9844 69C43.9844 67.8984 44.1953 66.8613 44.6172 65.8887C45.0391 64.916 45.6133 64.0664 46.3398 63.3398C47.0664 62.6133 47.916 62.0391 48.8887 61.6172C49.8613 61.1953 50.8984 60.9844 52 60.9844C52.9141 60.9844 53.793 61.1309 54.6367 61.4238C55.4805 61.7168 56.2305 62.1328 56.8867 62.6719L64.3047 55.2891C64.1875 55.1016 64.1055 54.8965 64.0586 54.6738C64.0117 54.4512 63.9883 54.2227 63.9883 53.9883C63.9883 53.168 64.2812 52.4648 64.8672 51.8789C65.4531 51.293 66.1562 51 66.9766 51ZM52 64.9922C50.8984 64.9922 49.9551 65.3848 49.1699 66.1699C48.3848 66.9551 47.9922 67.8984 47.9922 69C47.9922 70.1016 48.3848 71.0449 49.1699 71.8301C49.9551 72.6152 50.8984 73.0078 52 73.0078C53.1016 73.0078 54.0449 72.6152 54.8301 71.8301C55.6152 71.0449 56.0078 70.1016 56.0078 69C56.0078 67.8984 55.6152 66.9551 54.8301 66.1699C54.0449 65.3848 53.1016 64.9922 52 64.9922Z" fill="#FFAD5D"/>
</svg>
