<svg width="96" height="107" viewBox="0 0 96 107" fill="none" xmlns="http://www.w3.org/2000/svg">
<path d="M95.7694 106.363H14V0H70.2165L95.7694 25.3245V106.363Z" fill="#521308"/>
<path d="M92.2753 28.0582H68V4L92.2753 28.0582Z" fill="#FE4726"/>
<rect y="16" width="55" height="28" rx="4" fill="#370D06"/>
<path fill-rule="evenodd" clip-rule="evenodd" d="M24.3057 34.1602H19.6826L18.8037 36.7969H16L20.7637 24H23.207L27.9971 36.7969H25.1934L24.3057 34.1602ZM20.3945 32.0244H23.5938L21.9854 27.2344L20.3945 32.0244ZM39.1666 36.7969H36.5299L31.3971 28.377V36.7969H28.7604V24H31.3971L36.5387 32.4375V24H39.1666V36.7969Z" fill="#FE4726"/>
<path fill-rule="evenodd" clip-rule="evenodd" d="M42.9844 64.9844V55H57.0117V64.9844H76.9805V78.9766H66.9961V88.9961H53.0039V78.9766H33V64.9844H42.9844ZM62.9883 78.9766H57.0117V84.9883H62.9883V78.9766ZM46.9922 64.9844H53.0039V58.9727H46.9922V64.9844ZM42.9844 74.9688V68.9922H37.0078V74.9688H42.9844ZM66.9961 68.9922V74.9688H73.0078V68.9922H66.9961ZM57.0117 68.9922V74.9688H62.9883V68.9922H57.0117ZM46.9922 68.9922V74.9688H53.0039V68.9922H46.9922Z" fill="#FE4726"/>
</svg>
