<svg width="96" height="107" viewBox="0 0 96 107" fill="none" xmlns="http://www.w3.org/2000/svg">
<path d="M95.7694 106.363H14V0H70.2165L95.7694 25.3245V106.363Z" fill="#CBA610"/>
<path d="M92.2753 28.0582H68V4L92.2753 28.0582Z" fill="#F3CE38"/>
<rect y="16" width="55" height="28" rx="4" fill="#AF8F0E"/>
<path d="M9.14258 37V24.2031H13.625C15.1777 24.2031 16.3555 24.502 17.1582 25.0996C17.9609 25.6914 18.3623 26.5615 18.3623 27.71C18.3623 28.3369 18.2012 28.8906 17.8789 29.3711C17.5566 29.8457 17.1084 30.1943 16.5342 30.417C17.1904 30.5811 17.7061 30.9121 18.0811 31.4102C18.4619 31.9082 18.6523 32.5176 18.6523 33.2383C18.6523 34.4688 18.2598 35.4004 17.4746 36.0332C16.6895 36.666 15.5703 36.9883 14.1172 37H9.14258ZM11.7793 31.4277V34.8818H14.0381C14.6592 34.8818 15.1426 34.7354 15.4883 34.4424C15.8398 34.1436 16.0156 33.7334 16.0156 33.2119C16.0156 32.04 15.4092 31.4453 14.1963 31.4277H11.7793ZM11.7793 29.5645H13.7305C15.0605 29.541 15.7256 29.0107 15.7256 27.9736C15.7256 27.3936 15.5557 26.9775 15.2158 26.7256C14.8818 26.4678 14.3516 26.3389 13.625 26.3389H11.7793V29.5645ZM23.652 24.2031L26.9391 33.4844L30.2086 24.2031H33.6715V37H31.026V33.502L31.2897 27.4639L27.8356 37H26.025L22.5797 27.4727L22.8434 33.502V37H20.2067V24.2031H23.652ZM38.179 32.4912V37H35.5422V24.2031H40.5344C41.4954 24.2031 42.3391 24.3789 43.0657 24.7305C43.7981 25.082 44.3606 25.583 44.7532 26.2334C45.1458 26.8779 45.3421 27.6133 45.3421 28.4395C45.3421 29.6934 44.9114 30.6836 44.0501 31.4102C43.1946 32.1309 42.0081 32.4912 40.4905 32.4912H38.179ZM38.179 30.3555H40.5344C41.2317 30.3555 41.762 30.1914 42.1253 29.8633C42.4944 29.5352 42.679 29.0664 42.679 28.457C42.679 27.8301 42.4944 27.3232 42.1253 26.9365C41.7561 26.5498 41.2464 26.3506 40.596 26.3389H38.179V30.3555Z" fill="#F3CE38"/>
<path fill-rule="evenodd" clip-rule="evenodd" d="M48.0039 76.9883L40.9727 85.9883H68.9922L59.9922 74L52.9961 83L48.0039 76.9883ZM73 87.9922C73 89.0938 72.6074 90.0371 71.8223 90.8223C71.0371 91.6074 70.0938 92 68.9922 92H40.9727C39.8945 92 38.9629 91.6074 38.1777 90.8223C37.3926 90.0371 37 89.0938 37 87.9922V59.9727C37 58.8945 37.3926 57.9629 38.1777 57.1777C38.9629 56.3926 39.8945 56 40.9727 56H68.9922C70.0938 56 71.0371 56.3867 71.8223 57.1602C72.6074 57.9336 73 58.8711 73 59.9727V87.9922Z" fill="#F3CE38"/>
</svg>
