<svg width="96" height="107" viewBox="0 0 96 107" fill="none" xmlns="http://www.w3.org/2000/svg">
<path d="M95.7694 106.363H14V0H70.2165L95.7694 25.3245V106.363Z" fill="#79A92E"/>
<path d="M92.2753 27.0582H68V3L92.2753 27.0582Z" fill="#99CD48"/>
<rect y="16" width="55" height="28" rx="4" fill="#658C28"/>
<path fill-rule="evenodd" clip-rule="evenodd" d="M21.1885 32.7373C21.0889 34.1143 20.5806 35.1982 19.6636 35.9893C18.7466 36.7803 17.5381 37.1758 16.0381 37.1758C14.3975 37.1758 13.1069 36.6235 12.1665 35.519C11.2261 34.4145 10.7559 32.8984 10.7559 30.9707V30.1885C10.7559 28.958 10.9727 27.874 11.4062 26.9365C11.8398 25.999 12.4595 25.2798 13.2651 24.7788C14.0708 24.2778 15.0068 24.0273 16.0732 24.0273C17.5498 24.0273 18.7393 24.4228 19.6416 25.2139C20.5439 26.0049 21.0654 27.1152 21.2061 28.5449H18.5693C18.5049 27.7187 18.2749 27.1196 17.8794 26.7476C17.4839 26.3755 16.8818 26.1895 16.0732 26.1895C15.1943 26.1895 14.5366 26.5044 14.1001 27.1343C13.6636 27.7642 13.4395 28.7412 13.4277 30.0654V31.0322C13.4277 32.415 13.6372 33.4258 14.0562 34.0645C14.4751 34.7031 15.1357 35.0225 16.0381 35.0225C16.8525 35.0225 17.4604 34.8364 17.8618 34.4644C18.2632 34.0923 18.4932 33.5166 18.5518 32.7373H21.1885ZM29.1237 33.6426C29.1237 33.1445 28.9479 32.7622 28.5963 32.4956C28.2448 32.229 27.6119 31.9478 26.6979 31.6519C25.7838 31.356 25.0602 31.0645 24.527 30.7773C23.0739 29.9922 22.3473 28.9346 22.3473 27.6045C22.3473 26.9131 22.5421 26.2964 22.9318 25.7544C23.3214 25.2124 23.881 24.7891 24.6105 24.4844C25.34 24.1797 26.1588 24.0273 27.067 24.0273C27.9811 24.0273 28.7955 24.1929 29.5104 24.5239C30.2252 24.855 30.7804 25.3223 31.1759 25.9258C31.5714 26.5293 31.7692 27.2148 31.7692 27.9824H29.1325C29.1325 27.3965 28.9479 26.9409 28.5787 26.6157C28.2096 26.2905 27.6911 26.1279 27.0231 26.1279C26.3785 26.1279 25.8776 26.2642 25.5201 26.5366C25.1627 26.8091 24.984 27.168 24.984 27.6133C24.984 28.0293 25.1935 28.3779 25.6124 28.6592C26.0314 28.9404 26.6481 29.2041 27.4625 29.4502C28.9625 29.9014 30.0553 30.4609 30.7409 31.1289C31.4264 31.7969 31.7692 32.6289 31.7692 33.625C31.7692 34.7324 31.3502 35.6011 30.5123 36.231C29.6744 36.8608 28.5465 37.1758 27.1285 37.1758C26.1442 37.1758 25.2477 36.9956 24.4391 36.6353C23.6305 36.2749 23.0138 35.7813 22.589 35.1543C22.1642 34.5273 21.9518 33.8008 21.9518 32.9746H24.5973C24.5973 34.3867 25.441 35.0928 27.1285 35.0928C27.7555 35.0928 28.2448 34.9653 28.5963 34.7104C28.9479 34.4556 29.1237 34.0996 29.1237 33.6426ZM37.8499 33.8271L40.7503 24.2031H43.6858L39.2297 37H36.4788L32.0403 24.2031H34.9671L37.8499 33.8271Z" fill="#99CD48"/>
<path fill-rule="evenodd" clip-rule="evenodd" d="M73.5625 57H59.375V64.125H62.875L55.8125 70.0625L48.6875 64.125H52.25V57H38V64.125H41.5625L52.25 73L41.5625 81.875H38V89H52.25V81.875H48.6875L55.8125 75.9375L62.875 81.875H59.375V89H73.5625V81.875H70L59.375 73L70 64.125H73.5625V57Z" fill="#99CD48"/>
</svg>
