<svg width="96" height="107" viewBox="0 0 96 107" fill="none" xmlns="http://www.w3.org/2000/svg">
<path d="M95.7694 106.363H14V0H70.2165L95.7694 25.3245V106.363Z" fill="#11907C"/>
<path d="M92.2753 28.0582H68V4L92.2753 28.0582Z" fill="#37D2BA"/>
<rect y="16" width="55" height="28" rx="4" fill="#0D6254"/>
<path fill-rule="evenodd" clip-rule="evenodd" d="M13.0791 36V23.9141H16.7979C17.8604 23.9141 18.8108 24.1534 19.6492 24.6321C20.4876 25.1108 21.1419 25.7914 21.6123 26.6741C22.0827 27.5567 22.3179 28.5597 22.3179 29.6831V30.2393C22.3179 31.3626 22.0868 32.3615 21.6248 33.2358C21.1627 34.1102 20.5111 34.7881 19.6699 35.2695C18.8288 35.751 17.8797 35.9945 16.8228 36H13.0791ZM15.5693 25.9312V33.9995H16.7729C17.7469 33.9995 18.4912 33.6813 19.0059 33.0449C19.5205 32.4085 19.7834 31.4982 19.7944 30.314V29.6748C19.7944 28.4463 19.5399 27.5152 19.0308 26.8816C18.5216 26.248 17.7773 25.9312 16.7979 25.9312H15.5693ZM30.3444 33.5098H25.9782L25.1481 36H22.5001L26.9992 23.9141H29.3068L33.8307 36H31.1827L30.3444 33.5098ZM26.6505 31.4927H29.672L28.153 26.9688L26.6505 31.4927ZM42.6292 25.9312H38.927V36H36.4368V25.9312H32.7844V23.9141H42.6292V25.9312Z" fill="#37D2BA"/>
<path fill-rule="evenodd" clip-rule="evenodd" d="M33 71.9766L47.9766 86.9531L53.6719 81.2578L44.3203 71.9766L53.6719 62.625L47.9766 57L33 71.9766ZM77.6484 71.9766L62.6719 57L56.9766 62.625L66.3281 71.9766L56.9766 81.2578L62.6719 86.9531L77.6484 71.9766Z" fill="#37D2BA"/>
</svg>
