<svg width="96" height="107" viewBox="0 0 96 107" fill="none" xmlns="http://www.w3.org/2000/svg">
<path d="M95.7694 106.363H14V0H70.2165L95.7694 25.3245V106.363Z" fill="#A63A3D"/>
<path d="M92.2753 28.0582H68V4L92.2753 28.0582Z" fill="#EB6D71"/>
<rect y="16" width="55" height="28" rx="4" fill="#5C1C1E"/>
<path fill-rule="evenodd" clip-rule="evenodd" d="M37.0039 50H68.9961C69.5352 50 70.0039 50.1934 70.4023 50.5801C70.8008 50.9668 71 51.4414 71 52.0039V59.9844C71 60.5469 70.8008 61.0215 70.4023 61.4082C70.0039 61.7949 69.5352 61.9883 68.9961 61.9883H37.0039C36.4414 61.9883 35.9668 61.7949 35.5801 61.4082C35.1934 61.0215 35 60.5469 35 59.9844V52.0039C35 51.4414 35.1934 50.9668 35.5801 50.5801C35.9668 50.1934 36.4414 50 37.0039 50ZM37.0039 65.9961H68.9961C69.5352 65.9961 70.0039 66.1895 70.4023 66.5762C70.8008 66.9629 71 67.4375 71 68V69.3359L66.0078 67.1211L53 72.8867V77.9844H37.0039C36.4414 77.9844 35.9668 77.791 35.5801 77.4043C35.1934 77.0176 35 76.543 35 75.9805V68C35 67.4375 35.1934 66.9629 35.5801 66.5762C35.9668 66.1895 36.4414 65.9961 37.0039 65.9961ZM37.0039 81.9922H53C53.0234 83.1172 53.1582 84.2246 53.4043 85.3145C53.6504 86.4043 53.9844 87.459 54.4062 88.4785C54.8281 89.4981 55.3379 90.4707 55.9355 91.3965C56.5332 92.3223 57.1953 93.1836 57.9219 93.9805H37.0039C36.4414 93.9805 35.9668 93.7871 35.5801 93.4004C35.1934 93.0137 35 92.5508 35 92.0117V83.9961C35 83.457 35.1934 82.9883 35.5801 82.5898C35.9668 82.1914 36.4414 81.9922 37.0039 81.9922ZM46.9883 57.9805H48.9922V54.0078H46.9883V57.9805ZM46.9883 74.0117H48.9922V70.0039H46.9883V74.0117ZM46.9883 90.0078H48.9922V86H46.9883V90.0078ZM39.0078 54.0078V57.9805H42.9805V54.0078H39.0078ZM39.0078 70.0039V74.0117H42.9805V70.0039H39.0078ZM39.0078 86V90.0078H42.9805V86H39.0078ZM66.0078 72.0078L75.0078 75.9805V81.9922C75.0078 83.375 74.7793 84.7226 74.3223 86.0352C73.8652 87.3477 73.2324 88.5371 72.4238 89.6035C71.6152 90.6699 70.666 91.5898 69.5762 92.3633C68.4863 93.1367 67.2969 93.6758 66.0078 93.9805C64.7187 93.6758 63.5234 93.1367 62.4219 92.3633C61.3203 91.5898 60.3652 90.6699 59.5566 89.6035C58.748 88.5371 58.1211 87.3477 57.6758 86.0352C57.2305 84.7226 57.0078 83.375 57.0078 81.9922V75.9805L66.0078 72.0078ZM66.0078 75.875L60.9805 78.125V83.4336C60.9805 84.9805 61.4609 86.3926 62.4219 87.6699C63.3828 88.9473 64.5781 89.7617 66.0078 90.1133V75.875Z" fill="#EB6D71"/>
<path fill-rule="evenodd" clip-rule="evenodd" d="M17 35.7969V23H20.9375C22.0625 23 23.0688 23.2534 23.9565 23.7603C24.8442 24.2671 25.5371 24.9878 26.0352 25.9224C26.5332 26.8569 26.7822 27.9189 26.7822 29.1084V29.6973C26.7822 30.8867 26.5376 31.9443 26.0483 32.8701C25.5591 33.7959 24.8691 34.5137 23.9785 35.0234C23.0879 35.5332 22.083 35.791 20.9639 35.7969H17ZM19.6367 25.1357V33.6787H20.9111C21.9424 33.6787 22.7305 33.3418 23.2754 32.668C23.8203 31.9941 24.0986 31.0303 24.1104 29.7764V29.0996C24.1104 27.7988 23.8408 26.813 23.3018 26.1421C22.7627 25.4712 21.9746 25.1357 20.9375 25.1357H19.6367Z" fill="#EB6D71"/>
<path fill-rule="evenodd" clip-rule="evenodd" d="M29 36V23H33.5536C35.131 23 36.3274 23.3021 37.1429 23.9063C37.9583 24.5104 38.3661 25.3958 38.3661 26.5625C38.3661 27.1994 38.2024 27.7604 37.875 28.2455C37.5476 28.7307 37.0923 29.0863 36.5089 29.3125C37.1756 29.4792 37.7009 29.8155 38.0848 30.3214C38.4688 30.8274 38.6607 31.4464 38.6607 32.1786C38.6607 33.4286 38.2619 34.375 37.4643 35.0179C36.6667 35.6607 35.5298 35.9881 34.0536 36H29ZM31.6786 30.3393V33.8482H33.9732C34.6042 33.8482 35.0967 33.6979 35.4509 33.3973C35.8051 33.0967 35.9821 32.6816 35.9821 32.1518C35.9821 30.9613 35.3661 30.3571 34.1339 30.3393H31.6786ZM31.6786 28.4464H33.6607C35.0119 28.4226 35.6875 27.8839 35.6875 26.8304C35.6875 26.2411 35.5164 25.817 35.1741 25.558C34.8318 25.2991 34.2917 25.1697 33.5536 25.1697H31.6786V28.4464Z" fill="#EB6D71"/>
</svg>
