<svg width="96" height="107" viewBox="0 0 96 107" fill="none" xmlns="http://www.w3.org/2000/svg">
<path d="M95.7694 106.363H14V0H70.2165L95.7694 25.3245V106.363Z" fill="#3C97A4"/>
<path d="M92.2753 28.0582H68V4L92.2753 28.0582Z" fill="#19E2FF"/>
<rect y="16" width="55" height="28" rx="4" fill="#2B747F"/>
<path d="M10.1426 37V24.2031H14.0801C15.2051 24.2031 16.21 24.458 17.0947 24.9678C17.9854 25.4717 18.6797 26.1924 19.1777 27.1299C19.6758 28.0615 19.9248 29.1221 19.9248 30.3115V30.9004C19.9248 32.0898 19.6787 33.1475 19.1865 34.0732C18.7002 34.999 18.0117 35.7168 17.1211 36.2266C16.2305 36.7363 15.2256 36.9941 14.1064 37H10.1426ZM12.7793 26.3389V34.8818H14.0537C15.085 34.8818 15.873 34.5449 16.418 33.8711C16.9629 33.1973 17.2412 32.2334 17.2529 30.9795V30.3027C17.2529 29.002 16.9834 28.0176 16.4443 27.3496C15.9053 26.6758 15.1172 26.3389 14.0801 26.3389H12.7793ZM31.5426 35.3828C31.068 35.9512 30.3971 36.3936 29.5299 36.71C28.6627 37.0205 27.7018 37.1758 26.6471 37.1758C25.5397 37.1758 24.567 36.9355 23.7291 36.4551C22.8971 35.9688 22.2526 35.2656 21.7955 34.3457C21.3444 33.4258 21.1129 32.3447 21.1012 31.1025V30.2324C21.1012 28.9551 21.3151 27.8506 21.7428 26.9189C22.1764 25.9814 22.7975 25.2666 23.6061 24.7744C24.4205 24.2764 25.3727 24.0273 26.4625 24.0273C27.9801 24.0273 29.1666 24.3906 30.0221 25.1172C30.8776 25.8379 31.3844 26.8896 31.5426 28.2725H28.9762C28.859 27.54 28.5983 27.0039 28.194 26.6641C27.7955 26.3242 27.2448 26.1543 26.5416 26.1543C25.6451 26.1543 24.9625 26.4912 24.4938 27.165C24.025 27.8389 23.7877 28.8408 23.7819 30.1709V30.9883C23.7819 32.3301 24.0367 33.3438 24.5465 34.0293C25.0563 34.7148 25.8034 35.0576 26.7877 35.0576C27.778 35.0576 28.484 34.8467 28.9059 34.4248V32.2188H26.5065V30.2764H31.5426V35.3828ZM43.6614 37H41.0247L35.8919 28.5801V37H33.2551V24.2031H35.8919L41.0335 32.6406V24.2031H43.6614V37Z" fill="#23DCFF"/>
<path fill-rule="evenodd" clip-rule="evenodd" d="M57 57.3945C58.1953 57.793 59.1562 58.5019 59.8828 59.5215C60.6094 60.541 60.9727 61.6953 60.9727 62.9844C60.9727 64.6953 60.3984 66.125 59.25 67.2734C58.1016 68.4219 56.6836 68.9961 54.9961 68.9961H54.1875L43.3945 89L39 93.0078V88.7891L50.6016 66.9922C50.0859 66.5 49.6875 65.9082 49.4062 65.2168C49.125 64.5254 48.9844 63.7813 48.9844 62.9844C48.9844 61.6953 49.4355 60.541 50.3379 59.5215C51.2402 58.5019 52.793 57.793 54.9961 57.3945V53C55.582 53 56.0625 53.1816 56.4375 53.5449C56.8125 53.9082 57 54.3945 57 55.0039V57.3945ZM56.7891 64.0039C56.7891 63.793 56.8242 63.623 56.8945 63.4941C56.9648 63.3652 57 63.1953 57 62.9844C57 62.3984 56.8125 61.918 56.4375 61.543C56.0625 61.168 55.582 60.9805 54.9961 60.9805C54.5977 60.9805 54.2461 61.0742 53.9414 61.2617C53.6367 61.4492 53.3789 61.6953 53.168 62C53.168 62.1875 53.1387 62.3516 53.0801 62.4922C53.0215 62.6328 52.9922 62.7969 52.9922 62.9844C52.9922 63.5938 53.1738 64.0801 53.5371 64.4434C53.9004 64.8066 54.3867 64.9883 54.9961 64.9883C55.3945 64.9883 55.7402 64.8945 56.0332 64.707C56.3262 64.5195 56.5781 64.2852 56.7891 64.0039ZM70.9922 88.7891V93.0078L66.5977 89L57.7734 72.582C58.4766 72.3945 59.127 72.1484 59.7246 71.8438C60.3223 71.5391 60.8789 71.1875 61.3945 70.7891L70.9922 88.7891Z" fill="#19E2FF"/>
</svg>
