<svg width="96" height="107" viewBox="0 0 96 107" fill="none" xmlns="http://www.w3.org/2000/svg">
<path d="M95.7694 106.363H14V0H70.2165L95.7694 25.3245V106.363Z" fill="#1C5DA4"/>
<path d="M92.0602 27.5664H67.7849V3.50818L92.0602 27.5664Z" fill="#7BB6F6"/>
<rect y="16" width="55" height="28" rx="4" fill="#2C7ACD"/>
<path fill-rule="evenodd" clip-rule="evenodd" d="M10.1426 37V24.2031H14.0801C15.2051 24.2031 16.2114 24.4565 17.0991 24.9634C17.9868 25.4702 18.6797 26.1909 19.1777 27.1255C19.6758 28.0601 19.9248 29.1221 19.9248 30.3115V30.9004C19.9248 32.0898 19.6802 33.1475 19.1909 34.0732C18.7017 34.999 18.0117 35.7168 17.1211 36.2266C16.2305 36.7363 15.2256 36.9941 14.1064 37H10.1426ZM12.7793 26.3389V34.8818H14.0537C15.085 34.8818 15.873 34.5449 16.418 33.8711C16.9629 33.1973 17.2412 32.2334 17.2529 30.9795V30.3027C17.2529 29.0019 16.9834 28.0161 16.4443 27.3452C15.9053 26.6743 15.1172 26.3389 14.0801 26.3389H12.7793ZM31.9205 30.8916C31.9205 32.1514 31.6979 33.2559 31.2526 34.2051C30.8073 35.1543 30.1701 35.8867 29.3409 36.4023C28.5118 36.918 27.5612 37.1758 26.4889 37.1758C25.4283 37.1758 24.4821 36.9209 23.65 36.4111C22.818 35.9014 22.1735 35.1733 21.7164 34.2271C21.2594 33.2808 21.028 32.1924 21.0221 30.9619V30.3291C21.0221 29.0693 21.2491 27.9605 21.7033 27.0024C22.1574 26.0444 22.799 25.3091 23.6281 24.7964C24.4572 24.2837 25.4049 24.0273 26.4713 24.0273C27.5377 24.0273 28.4855 24.2837 29.3146 24.7964C30.1437 25.3091 30.7853 26.0444 31.2394 27.0024C31.6935 27.9605 31.9205 29.0664 31.9205 30.3203V30.8916ZM29.2487 30.3115C29.2487 28.9697 29.0084 27.9502 28.528 27.2529C28.0475 26.5557 27.3619 26.207 26.4713 26.207C25.5866 26.207 24.9039 26.5513 24.4235 27.2397C23.943 27.9282 23.6998 28.9375 23.694 30.2676V30.8916C23.694 32.1982 23.9342 33.2119 24.4147 33.9326C24.8952 34.6533 25.5865 35.0137 26.4889 35.0137C27.3737 35.0137 28.0533 34.6665 28.528 33.9722C29.0026 33.2778 29.2428 32.2656 29.2487 30.9355V30.3115ZM43.4505 32.7373C43.3508 34.1143 42.8425 35.1982 41.9256 35.9893C41.0086 36.7803 39.8001 37.1758 38.3001 37.1758C36.6594 37.1758 35.3689 36.6235 34.4285 35.519C33.488 34.4145 33.0178 32.8984 33.0178 30.9707V30.1885C33.0178 28.958 33.2346 27.874 33.6682 26.9365C34.1018 25.999 34.7214 25.2798 35.5271 24.7788C36.3328 24.2778 37.2688 24.0273 38.3352 24.0273C39.8118 24.0273 41.0012 24.4228 41.9036 25.2139C42.8059 26.0049 43.3274 27.1152 43.468 28.5449H40.8313C40.7669 27.7187 40.5369 27.1196 40.1414 26.7476C39.7459 26.3755 39.1438 26.1895 38.3352 26.1895C37.4563 26.1895 36.7986 26.5044 36.3621 27.1343C35.9255 27.7642 35.7014 28.7412 35.6897 30.0654V31.0322C35.6897 32.415 35.8992 33.4258 36.3181 34.0645C36.7371 34.7031 37.3977 35.0225 38.3001 35.0225C39.1145 35.0225 39.7224 34.8364 40.1238 34.4644C40.5252 34.0923 40.7551 33.5166 40.8137 32.7373H43.4505Z" fill="#7BB6F6"/>
<path fill-rule="evenodd" clip-rule="evenodd" d="M35 63.9009H37.6006V87.3071H46.0529L52.5545 75.7395V87.3071H60.3563L72.0594 63.9009H74.66V60H62.9572V63.9009H64.9077L60.3563 72.8679V60H51.2541L43.452 74.6831V63.9009H46.0529V60H35V63.9009Z" fill="#7BB6F6"/>
</svg>
