<svg width="96" height="107" viewBox="0 0 96 107" fill="none" xmlns="http://www.w3.org/2000/svg">
<path d="M95.7694 106.363H14V0H70.2165L95.7694 25.3245V106.363Z" fill="#1C5DA4"/>
<path d="M92.0602 27.5664H67.7849V3.50818L92.0602 27.5664Z" fill="#7BB6F6"/>
<rect y="16" width="55" height="28" rx="4" fill="#2C7ACD"/>
<path fill-rule="evenodd" clip-rule="evenodd" d="M6.0791 37V24.9141H9.79785C10.8604 24.9141 11.8108 25.1534 12.6492 25.6321C13.4876 26.1108 14.1419 26.7914 14.6123 27.6741C15.0827 28.5567 15.3179 29.5597 15.3179 30.6831V31.2393C15.3179 32.3626 15.0868 33.3615 14.6248 34.2358C14.1627 35.1102 13.5111 35.7881 12.6699 36.2695C11.8288 36.751 10.8797 36.9945 9.82275 37H6.0791ZM8.56934 26.9312V34.9995H9.77295C10.7469 34.9995 11.4912 34.6813 12.0059 34.0449C12.5205 33.4085 12.7834 32.4982 12.7944 31.314V30.6748C12.7944 29.4463 12.5399 28.5152 12.0308 27.8816C11.5216 27.248 10.7773 26.9312 9.79785 26.9312H8.56934ZM26.6232 31.231C26.6232 32.4207 26.4129 33.4639 25.9923 34.3604C25.5717 35.2568 24.9699 35.9486 24.1869 36.4355C23.4039 36.9225 22.506 37.166 21.4933 37.166C20.4917 37.166 19.598 36.9253 18.8121 36.4438C18.0263 35.9624 17.4176 35.2748 16.986 34.3811C16.5543 33.4874 16.3357 32.4595 16.3302 31.2974V30.6997C16.3302 29.5099 16.5446 28.4627 16.9735 27.5579C17.4024 26.6531 18.0083 25.9586 18.7914 25.4744C19.5744 24.9902 20.4695 24.748 21.4767 24.748C22.4839 24.748 23.3789 24.9902 24.162 25.4744C24.945 25.9586 25.551 26.6531 25.9799 27.5579C26.4087 28.4627 26.6232 29.5072 26.6232 30.6914V31.231ZM24.0997 30.6831C24.0997 29.4158 23.8729 28.453 23.4191 27.7944C22.9653 27.1359 22.3178 26.8066 21.4767 26.8066C20.6411 26.8066 19.9964 27.1318 19.5426 27.782C19.0888 28.4322 18.8592 29.3854 18.8536 30.6416V31.231C18.8536 32.465 19.0805 33.4224 19.5343 34.103C19.9881 34.7837 20.6411 35.124 21.4933 35.124C22.3289 35.124 22.9708 34.7961 23.4191 34.1404C23.8673 33.4846 24.0942 32.5287 24.0997 31.2725V30.6831ZM37.4885 32.9741C37.3945 34.2746 36.9144 35.2983 36.0484 36.0454C35.1823 36.7925 34.041 37.166 32.6243 37.166C31.0748 37.166 29.856 36.6445 28.9678 35.6013C28.0796 34.5582 27.6355 33.1263 27.6355 31.3057V30.5669C27.6355 29.4048 27.8403 28.381 28.2498 27.4956C28.6593 26.6102 29.2445 25.9309 30.0054 25.4578C30.7663 24.9846 31.6503 24.748 32.6575 24.748C34.052 24.748 35.1754 25.1216 36.0276 25.8687C36.8798 26.6157 37.3723 27.6644 37.5051 29.0146H35.0149C34.954 28.2344 34.7368 27.6685 34.3633 27.3171C33.9898 26.9657 33.4212 26.79 32.6575 26.79C31.8274 26.79 31.2062 27.0875 30.794 27.6824C30.3817 28.2773 30.17 29.2 30.1589 30.4507V31.3638C30.1589 32.6698 30.3568 33.6243 30.7525 34.2275C31.1481 34.8307 31.7721 35.1323 32.6243 35.1323C33.3935 35.1323 33.9676 34.9566 34.3467 34.6052C34.7258 34.2538 34.943 33.7101 34.9983 32.9741H37.4885ZM48.5282 37H46.038V31.8203H41.182V37H38.6918V24.9141H41.182V29.8115H46.038V24.9141H48.5282V37Z" fill="#7BB6F6"/>
<path fill-rule="evenodd" clip-rule="evenodd" d="M35 63.9009H37.6006V87.3071H46.0529L52.5545 75.7395V87.3071H60.3563L72.0594 63.9009H74.66V60H62.9572V63.9009H64.9077L60.3563 72.8679V60H51.2541L43.452 74.6831V63.9009H46.0529V60H35V63.9009Z" fill="#7BB6F6"/>
</svg>
