<svg width="96" height="107" viewBox="0 0 96 107" fill="none" xmlns="http://www.w3.org/2000/svg">
<path d="M95.7694 106.363H14V0H70.2165L95.7694 25.3245V106.363Z" fill="#1C5DA4"/>
<path d="M92.0602 27.5664H67.7849V3.50818L92.0602 27.5664Z" fill="#7BB6F6"/>
<rect y="16" width="55" height="28" rx="4" fill="#2C7ACD"/>
<path fill-rule="evenodd" clip-rule="evenodd" d="M4.0791 36V23.9141H7.79785C8.86036 23.9141 9.81079 24.1534 10.6492 24.6321C11.4876 25.1108 12.1419 25.7914 12.6123 26.6741C13.0827 27.5567 13.3179 28.5597 13.3179 29.6831V30.2393C13.3179 31.3626 13.0868 32.3615 12.6248 33.2358C12.1627 34.1102 11.5111 34.7881 10.6699 35.2695C9.82877 35.751 8.87973 35.9945 7.82275 36H4.0791ZM6.56934 25.9312V33.9995H7.77295C8.74691 33.9995 9.49121 33.6813 10.0059 33.0449C10.5205 32.4085 10.7834 31.4982 10.7944 30.314V29.6748C10.7944 28.4463 10.5399 27.5152 10.0308 26.8816C9.52164 26.248 8.77735 25.9312 7.79785 25.9312H6.56934ZM24.6232 30.231C24.6232 31.4207 24.4129 32.4639 23.9923 33.3604C23.5717 34.2568 22.9699 34.9486 22.1869 35.4355C21.4039 35.9225 20.506 36.166 19.4933 36.166C18.4917 36.166 17.598 35.9253 16.8121 35.4438C16.0263 34.9624 15.4176 34.2748 14.986 33.3811C14.5543 32.4874 14.3357 31.4595 14.3302 30.2974V29.6997C14.3302 28.5099 14.5446 27.4627 14.9735 26.5579C15.4024 25.6531 16.0083 24.9586 16.7914 24.4744C17.5744 23.9902 18.4695 23.748 19.4767 23.748C20.4839 23.748 21.3789 23.9902 22.162 24.4744C22.945 24.9586 23.551 25.6531 23.9799 26.5579C24.4087 27.4627 24.6232 28.5072 24.6232 29.6914V30.231ZM22.0997 29.6831C22.0997 28.4158 21.8729 27.453 21.4191 26.7944C20.9653 26.1359 20.3178 25.8066 19.4767 25.8066C18.6411 25.8066 17.9964 26.1318 17.5426 26.782C17.0888 27.4322 16.8592 28.3854 16.8536 29.6416V30.231C16.8536 31.465 17.0805 32.4224 17.5343 33.103C17.9881 33.7837 18.6411 34.124 19.4933 34.124C20.3289 34.124 20.9708 33.7961 21.4191 33.1404C21.8673 32.4846 22.0942 31.5287 22.0997 30.2725V29.6831ZM35.4885 31.9741C35.3945 33.2746 34.9144 34.2983 34.0484 35.0454C33.1823 35.7925 32.041 36.166 30.6243 36.166C29.0748 36.166 27.856 35.6445 26.9678 34.6013C26.0796 33.5582 25.6355 32.1263 25.6355 30.3057V29.5669C25.6355 28.4048 25.8403 27.381 26.2498 26.4956C26.6593 25.6102 27.2445 24.9309 28.0054 24.4578C28.7663 23.9846 29.6503 23.748 30.6575 23.748C32.052 23.748 33.1754 24.1216 34.0276 24.8687C34.8798 25.6157 35.3723 26.6644 35.5051 28.0146H33.0149C32.954 27.2344 32.7368 26.6685 32.3633 26.3171C31.9898 25.9657 31.4212 25.79 30.6575 25.79C29.8274 25.79 29.2062 26.0875 28.794 26.6824C28.3817 27.2773 28.17 28.2 28.1589 29.4507V30.3638C28.1589 31.6698 28.3568 32.6243 28.7525 33.2275C29.1481 33.8307 29.7721 34.1323 30.6243 34.1323C31.3935 34.1323 31.9676 33.9566 32.3467 33.6052C32.7258 33.2538 32.943 32.7101 32.9983 31.9741H35.4885ZM39.9457 23.9141L43.0502 32.6797L46.1381 23.9141H49.4086V36H46.9101V32.6963L47.1591 26.9937L43.8969 36H42.1869L38.933 27.002L39.182 32.6963V36H36.6918V23.9141H39.9457Z" fill="#7BB6F6"/>
<path fill-rule="evenodd" clip-rule="evenodd" d="M35 63.9009H37.6006V87.3071H46.0529L52.5545 75.7395V87.3071H60.3563L72.0594 63.9009H74.66V60H62.9572V63.9009H64.9077L60.3563 72.8679V60H51.2541L43.452 74.6831V63.9009H46.0529V60H35V63.9009Z" fill="#7BB6F6"/>
</svg>
