<svg width="96" height="107" viewBox="0 0 96 107" fill="none" xmlns="http://www.w3.org/2000/svg">
<path d="M95.7694 106.363H14V0H70.2165L95.7694 25.3245V106.363Z" fill="#1C5DA4"/>
<path d="M92.0602 27.5664H67.7849V3.50818L92.0602 27.5664Z" fill="#7BB6F6"/>
<rect y="16" width="55" height="28" rx="4" fill="#2C7ACD"/>
<path d="M7.0791 36V23.9141H10.7979C11.8604 23.9141 12.8094 24.1548 13.645 24.6362C14.4862 25.1121 15.1419 25.7928 15.6123 26.6782C16.0827 27.5581 16.3179 28.5597 16.3179 29.6831V30.2393C16.3179 31.3626 16.0854 32.3615 15.6206 33.2358C15.1613 34.1102 14.5111 34.7881 13.6699 35.2695C12.8288 35.751 11.8797 35.9945 10.8228 36H7.0791ZM9.56934 25.9312V33.9995H10.7729C11.7469 33.9995 12.4912 33.6813 13.0059 33.0449C13.5205 32.4085 13.7834 31.4982 13.7944 30.314V29.6748C13.7944 28.4463 13.5399 27.5166 13.0308 26.8857C12.5216 26.2493 11.7773 25.9312 10.7979 25.9312H9.56934ZM27.6315 30.231C27.6315 31.4207 27.4212 32.4639 27.0006 33.3604C26.58 34.2568 25.9769 34.9486 25.191 35.4355C24.4108 35.9225 23.5143 36.166 22.5016 36.166C21.5 36.166 20.6062 35.9253 19.8204 35.4438C19.0346 34.9624 18.4259 34.2762 17.9943 33.3853C17.5626 32.4888 17.344 31.4595 17.3385 30.2974V29.6997C17.3385 28.5099 17.5516 27.464 17.9777 26.562C18.4093 25.6545 19.0153 24.96 19.7955 24.4785C20.5813 23.9915 21.4778 23.748 22.485 23.748C23.4922 23.748 24.3859 23.9915 25.1661 24.4785C25.952 24.96 26.5579 25.6545 26.984 26.562C27.4157 27.464 27.6315 28.5072 27.6315 29.6914V30.231ZM25.108 29.6831C25.108 28.4159 24.8812 27.453 24.4274 26.7944C23.9736 26.1359 23.3261 25.8066 22.485 25.8066C21.6494 25.8066 21.0047 26.1331 20.5509 26.7861C20.0971 27.4336 19.8675 28.3854 19.8619 29.6416V30.231C19.8619 31.465 20.0888 32.4224 20.5426 33.103C20.9964 33.7837 21.6494 34.124 22.5016 34.124C23.3372 34.124 23.9791 33.7975 24.4274 33.1445C24.8756 32.486 25.1025 31.5286 25.108 30.2725V29.6831ZM37.3928 25.9312H33.6907V36H31.2005V25.9312H27.5481V23.9141H37.3928V25.9312ZM48.225 36H45.7348V30.8203H40.8788V36H38.3886V23.9141H40.8788V28.8115H45.7348V23.9141H48.225V36Z" fill="#69A5F3"/>
<path fill-rule="evenodd" clip-rule="evenodd" d="M35 63.9009H37.6006V87.3071H46.0529L52.5545 75.7395V87.3071H60.3563L72.0594 63.9009H74.66V60H62.9572V63.9009H64.9077L60.3563 72.8679V60H51.2541L43.452 74.6831V63.9009H46.0529V60H35V63.9009Z" fill="#7BB6F6"/>
</svg>
