<svg width="96" height="107" viewBox="0 0 96 107" fill="none" xmlns="http://www.w3.org/2000/svg">
<path d="M95.7694 106.363H14V0H70.2165L95.7694 25.3245V106.363Z" fill="#0B3101"/>
<path d="M92.2753 28.0582H68V4L92.2753 28.0582Z" fill="#34F800"/>
<rect y="16" width="55" height="28" rx="4" fill="black"/>
<path fill-rule="evenodd" clip-rule="evenodd" d="M14.1426 37V24.2031H18.0801C19.2051 24.2031 20.2114 24.4565 21.0991 24.9634C21.9868 25.4702 22.6797 26.1909 23.1777 27.1255C23.6758 28.0601 23.9248 29.1221 23.9248 30.3115V30.9004C23.9248 32.0898 23.6802 33.1475 23.1909 34.0732C22.7017 34.999 22.0117 35.7168 21.1211 36.2266C20.2305 36.7363 19.2256 36.9941 18.1064 37H14.1426ZM16.7793 26.3389V34.8818H18.0537C19.085 34.8818 19.873 34.5449 20.418 33.8711C20.9629 33.1973 21.2412 32.2334 21.2529 30.9795V30.3027C21.2529 29.0019 20.9834 28.0161 20.4443 27.3452C19.9053 26.6743 19.1172 26.3389 18.0801 26.3389H16.7793ZM36.2776 33.3086L38.0003 24.2031H40.6282L37.7893 37H35.135L33.052 28.4395L30.969 37H28.3147L25.4759 24.2031H28.1038L29.8352 33.291L31.9446 24.2031H34.177L36.2776 33.3086Z" fill="#34F800"/>
<path fill-rule="evenodd" clip-rule="evenodd" d="M46.9844 54C45.8828 54 44.9395 54.3926 44.1543 55.1777C43.3691 55.9629 42.9766 56.8945 42.9766 57.9727V65.9883C42.9766 67.0898 42.584 68.0332 41.7988 68.8184C41.0137 69.6035 40.082 69.9961 39.0039 69.9961H37V74.0039H39.0039C40.082 74.0039 41.0137 74.3906 41.7988 75.1641C42.584 75.9375 42.9766 76.875 42.9766 77.9766V85.9922C42.9766 87.0938 43.3691 88.0371 44.1543 88.8223C44.9395 89.6074 45.8828 90 46.9844 90H50.9922V85.9922H46.9844V75.9727C46.9844 74.8945 46.5918 73.9629 45.8066 73.1777C45.0215 72.3926 44.0781 72 42.9766 72C44.0781 72 45.0215 71.6074 45.8066 70.8223C46.5918 70.0371 46.9844 69.0938 46.9844 67.9922V57.9727H50.9922V54H46.9844ZM62.9805 54C64.082 54 65.0254 54.3926 65.8105 55.1777C66.5957 55.9629 66.9883 56.8945 66.9883 57.9727V65.9883C66.9883 67.0898 67.3809 68.0332 68.166 68.8184C68.9512 69.6035 69.8945 69.9961 70.9961 69.9961H73V74.0039H70.9961C69.8945 74.0039 68.9512 74.3906 68.166 75.1641C67.3809 75.9375 66.9883 76.875 66.9883 77.9766V85.9922C66.9883 87.0938 66.5957 88.0371 65.8105 88.8223C65.0254 89.6074 64.082 90 62.9805 90H58.9727V85.9922H62.9805V75.9727C62.9805 74.8945 63.373 73.9629 64.1582 73.1777C64.9434 72.3926 65.8867 72 66.9883 72C65.8867 72 64.9434 71.6074 64.1582 70.8223C63.373 70.0371 62.9805 69.0938 62.9805 67.9922V57.9727H58.9727V54H62.9805Z" fill="#34F800"/>
</svg>
