<svg width="96" height="107" viewBox="0 0 96 107" fill="none" xmlns="http://www.w3.org/2000/svg">
<path d="M95.7694 106.363H14V0H70.2165L95.7694 25.3245V106.363Z" fill="#3C97A4"/>
<path d="M92.2753 28.0582H68V4L92.2753 28.0582Z" fill="#19E2FF"/>
<rect y="16" width="55" height="28" rx="4" fill="#2B747F"/>
<path d="M6.0791 37V24.9141H9.79785C10.8604 24.9141 11.8094 25.1548 12.645 25.6362C13.4862 26.1121 14.1419 26.7928 14.6123 27.6782C15.0827 28.5581 15.3179 29.5597 15.3179 30.6831V31.2393C15.3179 32.3626 15.0854 33.3615 14.6206 34.2358C14.1613 35.1102 13.5111 35.7881 12.6699 36.2695C11.8288 36.751 10.8797 36.9945 9.82275 37H6.0791ZM8.56934 26.9312V34.9995H9.77295C10.7469 34.9995 11.4912 34.6813 12.0059 34.0449C12.5205 33.4085 12.7834 32.4982 12.7944 31.314V30.6748C12.7944 29.4463 12.5399 28.5166 12.0308 27.8857C11.5216 27.2493 10.7773 26.9312 9.79785 26.9312H8.56934ZM26.1168 33.5137L27.7438 24.9141H30.2257L27.5446 37H25.0377L23.0704 28.915L21.1032 37H18.5963L15.9152 24.9141H18.3971L20.0324 33.4971L22.0245 24.9141H24.1329L26.1168 33.5137ZM38.4182 32.061H33.637V37H31.1467V24.9141H39.0159V26.9312H33.637V30.0522H38.4182V32.061ZM44.3529 29.0811L46.619 24.9141H49.4828L45.9633 30.9072L49.5741 37H46.6771L44.3529 32.7666L42.0287 37H39.1317L42.7426 30.9072L39.223 24.9141H42.0868L44.3529 29.0811Z" fill="#23DCFF"/>
<path fill-rule="evenodd" clip-rule="evenodd" d="M57 57.3945C58.1953 57.793 59.1562 58.5019 59.8828 59.5215C60.6094 60.541 60.9727 61.6953 60.9727 62.9844C60.9727 64.6953 60.3984 66.125 59.25 67.2734C58.1016 68.4219 56.6836 68.9961 54.9961 68.9961H54.1875L43.3945 89L39 93.0078V88.7891L50.6016 66.9922C50.0859 66.5 49.6875 65.9082 49.4062 65.2168C49.125 64.5254 48.9844 63.7813 48.9844 62.9844C48.9844 61.6953 49.4355 60.541 50.3379 59.5215C51.2402 58.5019 52.793 57.793 54.9961 57.3945V53C55.582 53 56.0625 53.1816 56.4375 53.5449C56.8125 53.9082 57 54.3945 57 55.0039V57.3945ZM56.7891 64.0039C56.7891 63.793 56.8242 63.623 56.8945 63.4941C56.9648 63.3652 57 63.1953 57 62.9844C57 62.3984 56.8125 61.918 56.4375 61.543C56.0625 61.168 55.582 60.9805 54.9961 60.9805C54.5977 60.9805 54.2461 61.0742 53.9414 61.2617C53.6367 61.4492 53.3789 61.6953 53.168 62C53.168 62.1875 53.1387 62.3516 53.0801 62.4922C53.0215 62.6328 52.9922 62.7969 52.9922 62.9844C52.9922 63.5938 53.1738 64.0801 53.5371 64.4434C53.9004 64.8066 54.3867 64.9883 54.9961 64.9883C55.3945 64.9883 55.7402 64.8945 56.0332 64.707C56.3262 64.5195 56.5781 64.2852 56.7891 64.0039ZM70.9922 88.7891V93.0078L66.5977 89L57.7734 72.582C58.4766 72.3945 59.127 72.1484 59.7246 71.8438C60.3223 71.5391 60.8789 71.1875 61.3945 70.7891L70.9922 88.7891Z" fill="#19E2FF"/>
</svg>
