<svg width="96" height="107" viewBox="0 0 96 107" fill="none" xmlns="http://www.w3.org/2000/svg">
<path d="M95.7694 106.363H14V0H70.2165L95.7694 25.3245V106.363Z" fill="#3C97A4"/>
<path d="M92.2753 28.0582H68V4L92.2753 28.0582Z" fill="#19E2FF"/>
<rect y="16" width="55" height="28" rx="4" fill="#2B747F"/>
<path d="M8.14258 37V24.2031H12.0801C13.2051 24.2031 14.21 24.458 15.0947 24.9678C15.9854 25.4717 16.6797 26.1924 17.1777 27.1299C17.6758 28.0615 17.9248 29.1221 17.9248 30.3115V30.9004C17.9248 32.0898 17.6787 33.1475 17.1865 34.0732C16.7002 34.999 16.0117 35.7168 15.1211 36.2266C14.2305 36.7363 13.2256 36.9941 12.1064 37H8.14258ZM10.7793 26.3389V34.8818H12.0537C13.085 34.8818 13.873 34.5449 14.418 33.8711C14.9629 33.1973 15.2412 32.2334 15.2529 30.9795V30.3027C15.2529 29.002 14.9834 28.0176 14.4443 27.3496C13.9053 26.6758 13.1172 26.3389 12.0801 26.3389H10.7793ZM29.359 33.3086L31.0817 24.2031H33.7096L30.8707 37H28.2164L26.1334 28.4395L24.0504 37H21.3961L18.5572 24.2031H21.1852L22.9166 33.291L25.026 24.2031H27.2584L29.359 33.3086ZM44.8098 35.3828C44.3352 35.9512 43.6643 36.3936 42.7971 36.71C41.9299 37.0205 40.969 37.1758 39.9143 37.1758C38.8069 37.1758 37.8342 36.9355 36.9963 36.4551C36.1643 35.9688 35.5197 35.2656 35.0627 34.3457C34.6115 33.4258 34.3801 32.3447 34.3684 31.1025V30.2324C34.3684 28.9551 34.5822 27.8506 35.01 26.9189C35.4436 25.9814 36.0647 25.2666 36.8733 24.7744C37.6877 24.2764 38.6399 24.0273 39.7297 24.0273C41.2473 24.0273 42.4338 24.3906 43.2893 25.1172C44.1447 25.8379 44.6516 26.8896 44.8098 28.2725H42.2434C42.1262 27.54 41.8654 27.0039 41.4612 26.6641C41.0627 26.3242 40.5119 26.1543 39.8088 26.1543C38.9123 26.1543 38.2297 26.4912 37.761 27.165C37.2922 27.8389 37.0549 28.8408 37.049 30.1709V30.9883C37.049 32.3301 37.3039 33.3438 37.8137 34.0293C38.3235 34.7148 39.0705 35.0576 40.0549 35.0576C41.0451 35.0576 41.7512 34.8467 42.1731 34.4248V32.2188H39.7737V30.2764H44.8098V35.3828Z" fill="#23DCFF"/>
<path fill-rule="evenodd" clip-rule="evenodd" d="M57 57.3945C58.1953 57.793 59.1562 58.5019 59.8828 59.5215C60.6094 60.541 60.9727 61.6953 60.9727 62.9844C60.9727 64.6953 60.3984 66.125 59.25 67.2734C58.1016 68.4219 56.6836 68.9961 54.9961 68.9961H54.1875L43.3945 89L39 93.0078V88.7891L50.6016 66.9922C50.0859 66.5 49.6875 65.9082 49.4062 65.2168C49.125 64.5254 48.9844 63.7813 48.9844 62.9844C48.9844 61.6953 49.4355 60.541 50.3379 59.5215C51.2402 58.5019 52.793 57.793 54.9961 57.3945V53C55.582 53 56.0625 53.1816 56.4375 53.5449C56.8125 53.9082 57 54.3945 57 55.0039V57.3945ZM56.7891 64.0039C56.7891 63.793 56.8242 63.623 56.8945 63.4941C56.9648 63.3652 57 63.1953 57 62.9844C57 62.3984 56.8125 61.918 56.4375 61.543C56.0625 61.168 55.582 60.9805 54.9961 60.9805C54.5977 60.9805 54.2461 61.0742 53.9414 61.2617C53.6367 61.4492 53.3789 61.6953 53.168 62C53.168 62.1875 53.1387 62.3516 53.0801 62.4922C53.0215 62.6328 52.9922 62.7969 52.9922 62.9844C52.9922 63.5938 53.1738 64.0801 53.5371 64.4434C53.9004 64.8066 54.3867 64.9883 54.9961 64.9883C55.3945 64.9883 55.7402 64.8945 56.0332 64.707C56.3262 64.5195 56.5781 64.2852 56.7891 64.0039ZM70.9922 88.7891V93.0078L66.5977 89L57.7734 72.582C58.4766 72.3945 59.127 72.1484 59.7246 71.8438C60.3223 71.5391 60.8789 71.1875 61.3945 70.7891L70.9922 88.7891Z" fill="#19E2FF"/>
</svg>
