<svg width="96" height="107" viewBox="0 0 96 107" fill="none" xmlns="http://www.w3.org/2000/svg">
<path d="M95.7694 106.363H14V0H70.2165L95.7694 25.3245V106.363Z" fill="#3C97A4"/>
<path d="M92.2753 28.0582H68V4L92.2753 28.0582Z" fill="#19E2FF"/>
<rect y="16" width="55" height="28" rx="4" fill="#2B747F"/>
<path d="M11.1426 37V24.2031H15.0801C16.2051 24.2031 17.21 24.458 18.0947 24.9678C18.9854 25.4717 19.6797 26.1924 20.1777 27.1299C20.6758 28.0615 20.9248 29.1221 20.9248 30.3115V30.9004C20.9248 32.0898 20.6787 33.1475 20.1865 34.0732C19.7002 34.999 19.0117 35.7168 18.1211 36.2266C17.2305 36.7363 16.2256 36.9941 15.1064 37H11.1426ZM13.7793 26.3389V34.8818H15.0537C16.085 34.8818 16.873 34.5449 17.418 33.8711C17.9629 33.1973 18.2412 32.2334 18.2529 30.9795V30.3027C18.2529 29.002 17.9834 28.0176 17.4443 27.3496C16.9053 26.6758 16.1172 26.3389 15.0801 26.3389H13.7793ZM26.7779 28.6152L29.1774 24.2031H32.2096L28.483 30.5488L32.3063 37H29.2389L26.7779 32.5176L24.317 37H21.2496L25.0729 30.5488L21.3463 24.2031H24.3785L26.7779 28.6152ZM40.884 31.7705H35.8215V37H33.1848V24.2031H41.5168V26.3389H35.8215V29.6436H40.884V31.7705Z" fill="#23DCFF"/>
<path fill-rule="evenodd" clip-rule="evenodd" d="M57 57.3945C58.1953 57.793 59.1562 58.5019 59.8828 59.5215C60.6094 60.541 60.9727 61.6953 60.9727 62.9844C60.9727 64.6953 60.3984 66.125 59.25 67.2734C58.1016 68.4219 56.6836 68.9961 54.9961 68.9961H54.1875L43.3945 89L39 93.0078V88.7891L50.6016 66.9922C50.0859 66.5 49.6875 65.9082 49.4062 65.2168C49.125 64.5254 48.9844 63.7813 48.9844 62.9844C48.9844 61.6953 49.4355 60.541 50.3379 59.5215C51.2402 58.5019 52.793 57.793 54.9961 57.3945V53C55.582 53 56.0625 53.1816 56.4375 53.5449C56.8125 53.9082 57 54.3945 57 55.0039V57.3945ZM56.7891 64.0039C56.7891 63.793 56.8242 63.623 56.8945 63.4941C56.9648 63.3652 57 63.1953 57 62.9844C57 62.3984 56.8125 61.918 56.4375 61.543C56.0625 61.168 55.582 60.9805 54.9961 60.9805C54.5977 60.9805 54.2461 61.0742 53.9414 61.2617C53.6367 61.4492 53.3789 61.6953 53.168 62C53.168 62.1875 53.1387 62.3516 53.0801 62.4922C53.0215 62.6328 52.9922 62.7969 52.9922 62.9844C52.9922 63.5938 53.1738 64.0801 53.5371 64.4434C53.9004 64.8066 54.3867 64.9883 54.9961 64.9883C55.3945 64.9883 55.7402 64.8945 56.0332 64.707C56.3262 64.5195 56.5781 64.2852 56.7891 64.0039ZM70.9922 88.7891V93.0078L66.5977 89L57.7734 72.582C58.4766 72.3945 59.127 72.1484 59.7246 71.8438C60.3223 71.5391 60.8789 71.1875 61.3945 70.7891L70.9922 88.7891Z" fill="#19E2FF"/>
</svg>
