<svg width="96" height="107" viewBox="0 0 96 107" fill="none" xmlns="http://www.w3.org/2000/svg">
<path d="M95.7694 106.363H14V0H70.2165L95.7694 25.3245V106.363Z" fill="#7883A4"/>
<path d="M92.2753 28.0582H68V4L92.2753 28.0582Z" fill="#9AA6CA"/>
<rect y="16" width="55" height="28" rx="4" fill="#4B536D"/>
<path d="M13.0791 16V3.91406H16.7979C17.8604 3.91406 18.8094 4.15479 19.645 4.63623C20.4862 5.11214 21.1419 5.79281 21.6123 6.67822C22.0827 7.55811 22.3179 8.55973 22.3179 9.68311V10.2393C22.3179 11.3626 22.0854 12.3615 21.6206 13.2358C21.1613 14.1102 20.5111 14.7881 19.6699 15.2695C18.8288 15.751 17.8797 15.9945 16.8228 16H13.0791ZM15.5693 5.93115V13.9995H16.7729C17.7469 13.9995 18.4912 13.6813 19.0059 13.0449C19.5205 12.4085 19.7834 11.4982 19.7944 10.314V9.6748C19.7944 8.44629 19.5399 7.5166 19.0308 6.88574C18.5216 6.24935 17.7773 5.93115 16.7979 5.93115H15.5693ZM27.8458 8.08105L30.1119 3.91406H32.9757L29.4562 9.90723L33.067 16H30.1701L27.8458 11.7666L25.5216 16H22.6246L26.2355 9.90723L22.7159 3.91406H25.5797L27.8458 8.08105ZM15.5693 33.9995H20.8569V36H13.0791V23.9141H15.5693V33.9995Z" fill="#9AA6CA"/>
<path fill-rule="evenodd" clip-rule="evenodd" d="M55.0039 83.4609L39.0078 73.4414V88.7344H71V73.4414L55.0039 83.4609ZM39.0078 68.7305L55.0039 78.75L71 68.7305L55.0039 58.7461L39.0078 68.7305ZM75.0078 68.7305V88.7344C75.0078 89.8359 74.6152 90.7793 73.8301 91.5645C73.0449 92.3496 72.1016 92.7422 71 92.7422H39.0078C37.9062 92.7422 36.9629 92.3496 36.1777 91.5645C35.3926 90.7793 35 89.8359 35 88.7344V68.7305C35 68.0039 35.1758 67.3418 35.5273 66.7441C35.8789 66.1465 36.3477 65.6719 36.9336 65.3203L55.0039 54L73.0391 65.3203C73.625 65.6719 74.0996 66.1465 74.4629 66.7441C74.8262 67.3418 75.0078 68.0039 75.0078 68.7305Z" fill="#9AA6CA"/>
</svg>
