<svg width="96" height="107" viewBox="0 0 96 107" fill="none" xmlns="http://www.w3.org/2000/svg">
<path d="M95.7694 106.363H14V0H70.2165L95.7694 25.3245V106.363Z" fill="#7883A4"/>
<path d="M92.2753 28.0582H68V4L92.2753 28.0582Z" fill="#9AA6CA"/>
<rect y="16" width="55" height="28" rx="4" fill="#4B536D"/>
<path d="M18.3506 30.7622H13.5693V33.9995H19.1807V36H11.0791V23.9141H19.1641V25.9312H13.5693V28.8115H18.3506V30.7622ZM23.4635 23.9141L26.568 32.6797L29.6559 23.9141H32.9264V36H30.4279V32.6963L30.6769 26.9937L27.4147 36H25.7047L22.4508 27.002L22.6998 32.6963V36H20.2096V23.9141H23.4635ZM37.1594 33.9995H42.447V36H34.6692V23.9141H37.1594V33.9995Z" fill="#9AA6CA"/>
<path fill-rule="evenodd" clip-rule="evenodd" d="M55.0039 83.4609L39.0078 73.4414V88.7344H71V73.4414L55.0039 83.4609ZM39.0078 68.7305L55.0039 78.75L71 68.7305L55.0039 58.7461L39.0078 68.7305ZM75.0078 68.7305V88.7344C75.0078 89.8359 74.6152 90.7793 73.8301 91.5645C73.0449 92.3496 72.1016 92.7422 71 92.7422H39.0078C37.9062 92.7422 36.9629 92.3496 36.1777 91.5645C35.3926 90.7793 35 89.8359 35 88.7344V68.7305C35 68.0039 35.1758 67.3418 35.5273 66.7441C35.8789 66.1465 36.3477 65.6719 36.9336 65.3203L55.0039 54L73.0391 65.3203C73.625 65.6719 74.0996 66.1465 74.4629 66.7441C74.8262 67.3418 75.0078 68.0039 75.0078 68.7305Z" fill="#9AA6CA"/>
</svg>
