<svg width="96" height="107" viewBox="0 0 96 107" fill="none" xmlns="http://www.w3.org/2000/svg">
<path d="M95.7694 106.363H14V0H70.2165L95.7694 25.3245V106.363Z" fill="#462A04"/>
<path d="M92.2753 28.0582H68V4L92.2753 28.0582Z" fill="#FF990F"/>
<rect y="16" width="55" height="28" rx="4" fill="#0B0601"/>
<path fill-rule="evenodd" clip-rule="evenodd" d="M25.8418 31.7705H20.7793V37H18.1426V24.2031H26.4746V26.3389H20.7793V29.6436H25.8418V31.7705ZM34.2076 33.6426C34.2076 33.1445 34.0319 32.7622 33.6803 32.4956C33.3287 32.229 32.6959 31.9478 31.7819 31.6519C30.8678 31.356 30.1442 31.0645 29.611 30.7773C28.1578 29.9922 27.4313 28.9346 27.4313 27.6045C27.4313 26.9131 27.6261 26.2964 28.0158 25.7544C28.4054 25.2124 28.965 24.7891 29.6945 24.4844C30.424 24.1797 31.2428 24.0273 32.151 24.0273C33.0651 24.0273 33.8795 24.1929 34.5944 24.5239C35.3092 24.855 35.8644 25.3223 36.2599 25.9258C36.6554 26.5293 36.8532 27.2148 36.8532 27.9824H34.2164C34.2164 27.3965 34.0319 26.9409 33.6627 26.6157C33.2936 26.2905 32.775 26.1279 32.1071 26.1279C31.4625 26.1279 30.9616 26.2642 30.6041 26.5366C30.2467 26.8091 30.068 27.168 30.068 27.6133C30.068 28.0293 30.2775 28.3779 30.6964 28.6592C31.1154 28.9404 31.7321 29.2041 32.5465 29.4502C34.0465 29.9014 35.1393 30.4609 35.8248 31.1289C36.5104 31.7969 36.8532 32.6289 36.8532 33.625C36.8532 34.7324 36.4342 35.6011 35.5963 36.231C34.7584 36.8608 33.6305 37.1758 32.2125 37.1758C31.2282 37.1758 30.3317 36.9956 29.5231 36.6353C28.7145 36.2749 28.0978 35.7813 27.673 35.1543C27.2482 34.5273 27.0358 33.8008 27.0358 32.9746H29.6813C29.6813 34.3867 30.525 35.0928 32.2125 35.0928C32.8395 35.0928 33.3287 34.9653 33.6803 34.7104C34.0319 34.4556 34.2076 34.0996 34.2076 33.6426Z" fill="#FF990C"/>
<path fill-rule="evenodd" clip-rule="evenodd" d="M58 76.9766C54.625 76.9766 52.2637 77.5039 50.916 78.5586C49.5684 79.6133 48.707 80.5859 48.332 81.4766C49.4102 81.9453 50.2891 82.6719 50.9688 83.6562C51.6484 84.6406 51.9883 85.7539 51.9883 86.9961C51.9883 88.6602 51.4023 90.0781 50.2305 91.25C49.0586 92.4219 47.6406 93.0078 45.9766 93.0078C44.3125 93.0078 42.9004 92.4219 41.7402 91.25C40.5801 90.0781 40 88.6602 40 86.9961C40 85.6836 40.3691 84.5117 41.1074 83.4805C41.8457 82.4492 42.8008 81.7344 43.9727 81.3359V64.6367C42.8008 64.2383 41.8457 63.5234 41.1074 62.4922C40.3691 61.4609 40 60.2891 40 58.9766C40 57.3359 40.5801 55.9297 41.7402 54.7578C42.9004 53.5859 44.3125 53 45.9766 53C47.6406 53 49.0586 53.5859 50.2305 54.7578C51.4023 55.9297 51.9883 57.3359 51.9883 58.9766C51.9883 60.2891 51.6133 61.4609 50.8633 62.4922C50.1133 63.5234 49.1523 64.2383 47.9805 64.6367V75.2188C48.8711 74.5859 49.9668 74.0586 51.2676 73.6367C52.5684 73.2148 54.1445 73.0039 55.9961 73.0039C58.668 73.0039 60.543 72.4824 61.6211 71.4395C62.6992 70.3965 63.3906 69.4297 63.6953 68.5391C62.6172 68.0937 61.7266 67.3731 61.0234 66.377C60.3203 65.3809 59.9688 64.25 59.9688 62.9844C59.9688 61.3203 60.5547 59.9082 61.7266 58.748C62.8984 57.5879 64.3164 57.0078 65.9805 57.0078C67.6445 57.0078 69.0625 57.5879 70.2344 58.748C71.4063 59.9082 71.9922 61.3203 71.9922 62.9844C71.9922 64.3203 71.5996 65.5215 70.8145 66.5879C70.0293 67.6543 69.0273 68.3633 67.8086 68.7148C67.668 69.418 67.4277 70.25 67.0879 71.2109C66.748 72.1719 66.209 73.0801 65.4707 73.9355C64.7324 74.791 63.7598 75.5117 62.5527 76.0977C61.3457 76.6836 59.8281 76.9766 58 76.9766ZM45.9766 84.9922C45.4375 84.9922 44.9688 85.1855 44.5703 85.5723C44.1719 85.959 43.9727 86.4336 43.9727 86.9961C43.9727 87.5352 44.1719 88.0039 44.5703 88.4023C44.9688 88.8008 45.4375 89 45.9766 89C46.5391 89 47.0137 88.8008 47.4004 88.4023C47.7871 88.0039 47.9805 87.5352 47.9805 86.9961C47.9805 86.4336 47.7871 85.959 47.4004 85.5723C47.0137 85.1855 46.5391 84.9922 45.9766 84.9922ZM45.9766 57.0078C45.4375 57.0078 44.9688 57.2012 44.5703 57.5879C44.1719 57.9746 43.9727 58.4375 43.9727 58.9766C43.9727 59.5391 44.1719 60.0137 44.5703 60.4004C44.9688 60.7871 45.4375 60.9805 45.9766 60.9805C46.5391 60.9805 47.0137 60.7871 47.4004 60.4004C47.7871 60.0137 47.9805 59.5391 47.9805 58.9766C47.9805 58.4375 47.7871 57.9746 47.4004 57.5879C47.0137 57.2012 46.5391 57.0078 45.9766 57.0078ZM65.9805 60.9805C65.4414 60.9805 64.9727 61.1797 64.5742 61.5781C64.1758 61.9766 63.9766 62.4453 63.9766 62.9844C63.9766 63.5469 64.1758 64.0215 64.5742 64.4082C64.9727 64.7949 65.4414 64.9883 65.9805 64.9883C66.543 64.9883 67.0176 64.7949 67.4043 64.4082C67.791 64.0215 67.9844 63.5469 67.9844 62.9844C67.9844 62.4453 67.791 61.9766 67.4043 61.5781C67.0176 61.1797 66.543 60.9805 65.9805 60.9805Z" fill="#FF990C"/>
</svg>
