<svg width="96" height="107" viewBox="0 0 96 107" fill="none" xmlns="http://www.w3.org/2000/svg">
<path d="M95.7694 106.363H14V0H70.2165L95.7694 25.3245V106.363Z" fill="#CBA610"/>
<path d="M92.2753 28.0582H68V4L92.2753 28.0582Z" fill="#F3CE38"/>
<rect y="16" width="55" height="28" rx="4" fill="#AF8F0E"/>
<path d="M23.2676 35.3828C22.793 35.9512 22.1221 36.3936 21.2549 36.71C20.3877 37.0205 19.4268 37.1758 18.3721 37.1758C17.2646 37.1758 16.292 36.9355 15.4541 36.4551C14.6221 35.9688 13.9775 35.2656 13.5205 34.3457C13.0693 33.4258 12.8379 32.3447 12.8262 31.1025V30.2324C12.8262 28.9551 13.04 27.8506 13.4678 26.9189C13.9014 25.9814 14.5225 25.2666 15.3311 24.7744C16.1455 24.2764 17.0977 24.0273 18.1875 24.0273C19.7051 24.0273 20.8916 24.3906 21.7471 25.1172C22.6025 25.8379 23.1094 26.8896 23.2676 28.2725H20.7012C20.584 27.54 20.3232 27.0039 19.9189 26.6641C19.5205 26.3242 18.9697 26.1543 18.2666 26.1543C17.3701 26.1543 16.6875 26.4912 16.2188 27.165C15.75 27.8389 15.5127 28.8408 15.5068 30.1709V30.9883C15.5068 32.3301 15.7617 33.3438 16.2715 34.0293C16.7812 34.7148 17.5283 35.0576 18.5127 35.0576C19.5029 35.0576 20.209 34.8467 20.6309 34.4248V32.2188H18.2314V30.2764H23.2676V35.3828ZM27.7838 37H25.1471V24.2031H27.7838V37ZM37.5032 31.7705H32.4407V37H29.804V24.2031H38.136V26.3389H32.4407V29.6436H37.5032V31.7705Z" fill="#F3CE38"/>
<path fill-rule="evenodd" clip-rule="evenodd" d="M48.0039 76.9883L40.9727 85.9883H68.9922L59.9922 74L52.9961 83L48.0039 76.9883ZM73 87.9922C73 89.0938 72.6074 90.0371 71.8223 90.8223C71.0371 91.6074 70.0938 92 68.9922 92H40.9727C39.8945 92 38.9629 91.6074 38.1777 90.8223C37.3926 90.0371 37 89.0938 37 87.9922V59.9727C37 58.8945 37.3926 57.9629 38.1777 57.1777C38.9629 56.3926 39.8945 56 40.9727 56H68.9922C70.0938 56 71.0371 56.3867 71.8223 57.1602C72.6074 57.9336 73 58.8711 73 59.9727V87.9922Z" fill="#F3CE38"/>
</svg>
