<svg width="96" height="107" viewBox="0 0 96 107" fill="none" xmlns="http://www.w3.org/2000/svg">
<path d="M95.7694 106.363H14V0H70.2165L95.7694 25.3245V106.363Z" fill="#11907C"/>
<path d="M92.2753 28.0582H68V4L92.2753 28.0582Z" fill="#37D2BA"/>
<rect y="16" width="55" height="28" rx="4" fill="#0D6254"/>
<path fill-rule="evenodd" clip-rule="evenodd" d="M15.9155 36H13.4253V30.8203H8.56934V36H6.0791V23.9141H8.56934V28.8115H13.4253V23.9141H15.9155V36ZM26.5153 25.9312H22.8131V36H20.3229V25.9312H16.6705V23.9141H26.5153V25.9312ZM30.7566 23.9141L33.8611 32.6797L36.949 23.9141H40.2195V36H37.721V32.6963L37.97 26.9937L34.7078 36H32.9978L29.7439 27.002L29.9929 32.6963V36H27.5027V23.9141H30.7566ZM44.4525 33.9995H49.7401V36H41.9623V23.9141H44.4525V33.9995Z" fill="#37D2BA"/>
<path fill-rule="evenodd" clip-rule="evenodd" d="M33 71.9766L47.9766 86.9531L53.6719 81.2578L44.3203 71.9766L53.6719 62.625L47.9766 57L33 71.9766ZM77.6484 71.9766L62.6719 57L56.9766 62.625L66.3281 71.9766L56.9766 81.2578L62.6719 86.9531L77.6484 71.9766Z" fill="#37D2BA"/>
</svg>
