<svg width="96" height="107" viewBox="0 0 96 107" fill="none" xmlns="http://www.w3.org/2000/svg">
<path d="M95.7694 106.363H14V0H70.2165L95.7694 25.3245V106.363Z" fill="#8B194D"/>
<path d="M92.2753 28.0582H68V4L92.2753 28.0582Z" fill="#FF2C8E"/>
<rect y="16" width="55" height="28" rx="4" fill="#5E1034"/>
<path fill-rule="evenodd" clip-rule="evenodd" d="M16.9463 37H14.3096V24.2031H16.9463V37ZM29.3639 37H26.7272L21.5944 28.5801V37H18.9576V24.2031H21.5944L26.736 32.6406V24.2031H29.3639V37ZM31.2346 37V24.2031H35.1721C36.2971 24.2031 37.3035 24.4565 38.1912 24.9634C39.0789 25.4702 39.7717 26.1909 40.2698 27.1255C40.7678 28.0601 41.0169 29.1221 41.0169 30.3115V30.9004C41.0169 32.0898 40.7722 33.1475 40.283 34.0732C39.7937 34.999 39.1038 35.7168 38.2131 36.2266C37.3225 36.7363 36.3176 36.9941 35.1985 37H31.2346ZM33.8714 26.3389V34.8818H35.1458C36.177 34.8818 36.9651 34.5449 37.51 33.8711C38.0549 33.1973 38.3333 32.2334 38.345 30.9795V30.3027C38.345 29.0019 38.0755 28.0161 37.5364 27.3452C36.9973 26.6743 36.2092 26.3389 35.1721 26.3389H33.8714Z" fill="#FF2F8F"/>
<path fill-rule="evenodd" clip-rule="evenodd" d="M68.3005 53V73.3575L59.0323 81.6827V61.3251L68.3005 53ZM45.1788 58.5284C46.0677 58.5284 46.9728 58.5826 47.8942 58.691C48.8156 58.7994 49.7153 58.962 50.5934 59.1788C51.4714 59.3956 52.3169 59.6774 53.1299 60.0243C53.9429 60.3712 54.6855 60.8048 55.3575 61.3251V86.3005C55.9646 85.9103 56.6909 85.5417 57.5364 85.1948C58.3819 84.848 59.2654 84.5553 60.1868 84.3168C61.1082 84.0783 62.0296 83.8832 62.951 83.7314C63.8724 83.5797 64.7342 83.5038 65.5363 83.5038C66.642 83.5038 67.7423 83.5797 68.8371 83.7314C69.932 83.8832 70.9888 84.1217 72.0078 84.4469V59.4715C72.7016 59.71 73.352 59.9755 73.959 60.2682C74.5661 60.5609 75.1406 60.9132 75.6826 61.3251V88.3168C75.6826 88.5336 75.5904 88.7395 75.4062 88.9347C75.2219 89.1298 75.0105 89.2273 74.772 89.2273C74.6853 89.2273 74.6094 89.2328 74.5444 89.2436C74.4793 89.2544 74.4035 89.2382 74.3167 89.1948C73.0159 88.501 71.6067 87.997 70.0891 87.6826C68.5715 87.3683 67.0539 87.2111 65.5363 87.2111C64.7342 87.2111 63.8724 87.2815 62.951 87.4225C62.0296 87.5634 61.1082 87.7585 60.1868 88.0078C59.2654 88.2572 58.3819 88.5498 57.5364 88.8859C56.6909 89.2219 55.9646 89.5959 55.3575 90.0078C54.6855 89.4875 53.9429 89.0539 53.1299 88.707C52.3169 88.3601 51.4714 88.0729 50.5934 87.8452C49.7153 87.6176 48.8156 87.455 47.8942 87.3574C46.9728 87.2599 46.0677 87.2111 45.1788 87.2111C43.8346 87.2111 42.3441 87.3954 40.7073 87.7639C39.0704 88.1325 37.6341 88.6203 36.3984 89.2273C36.29 89.2273 36.2087 89.249 36.1545 89.2924C36.1003 89.3357 36.019 89.3574 35.9106 89.3574C35.6938 89.3574 35.4878 89.2599 35.2927 89.0647C35.0976 88.8696 35 88.6637 35 88.4468V61.3251C35.6721 60.8048 36.4092 60.3712 37.2114 60.0243C38.0135 59.6774 38.8536 59.3956 39.7317 59.1788C40.6097 58.962 41.5094 58.7994 42.4308 58.691C43.3522 58.5826 44.2682 58.5284 45.1788 58.5284Z" fill="#FF2C8E"/>
</svg>
