<svg width="96" height="107" viewBox="0 0 96 107" fill="none" xmlns="http://www.w3.org/2000/svg">
<path d="M95.7694 106.363H14V0H70.2165L95.7694 25.3245V106.363Z" fill="#CBA610"/>
<path d="M92.2753 28.0582H68V4L92.2753 28.0582Z" fill="#F3CE38"/>
<rect y="16" width="55" height="28" rx="4" fill="#AF8F0E"/>
<path d="M11.3018 23.2031H13.9385V32.0625C13.9385 32.877 13.7568 33.5977 13.3936 34.2246C13.0361 34.8457 12.5293 35.3262 11.873 35.666C11.2168 36.0059 10.4756 36.1758 9.64941 36.1758C8.2959 36.1758 7.24121 35.833 6.48535 35.1475C5.72949 34.4561 5.35156 33.4805 5.35156 32.2207H8.00586C8.00586 32.8477 8.1377 33.3105 8.40137 33.6094C8.66504 33.9082 9.08105 34.0576 9.64941 34.0576C10.1533 34.0576 10.5547 33.8848 10.8535 33.5391C11.1523 33.1934 11.3018 32.7012 11.3018 32.0625V23.2031ZM18.402 31.4912V36H15.7653V23.2031H20.7575C21.7184 23.2031 22.5621 23.3789 23.2887 23.7305C24.0211 24.082 24.5836 24.583 24.9762 25.2334C25.3688 25.8779 25.5651 26.6133 25.5651 27.4395C25.5651 28.6934 25.1344 29.6836 24.2731 30.4102C23.4176 31.1309 22.2311 31.4912 20.7135 31.4912H18.402ZM18.402 29.3555H20.7575C21.4547 29.3555 21.985 29.1914 22.3483 28.8633C22.7174 28.5352 22.902 28.0664 22.902 27.457C22.902 26.8301 22.7174 26.3232 22.3483 25.9365C21.9791 25.5498 21.4694 25.3506 20.819 25.3389H18.402V29.3555ZM34.6516 30.4541H29.5891V33.8818H35.5305V36H26.9524V23.2031H35.513V25.3389H29.5891V28.3887H34.6516V30.4541ZM46.7704 34.3828C46.2958 34.9512 45.6249 35.3936 44.7577 35.71C43.8905 36.0205 42.9296 36.1758 41.8749 36.1758C40.7675 36.1758 39.7948 35.9355 38.9569 35.4551C38.1249 34.9688 37.4804 34.2656 37.0233 33.3457C36.5722 32.4258 36.3407 31.3447 36.329 30.1025V29.2324C36.329 27.9551 36.5429 26.8506 36.9706 25.9189C37.4042 24.9814 38.0253 24.2666 38.8339 23.7744C39.6483 23.2764 40.6005 23.0273 41.6903 23.0273C43.2079 23.0273 44.3944 23.3906 45.2499 24.1172C46.1054 24.8379 46.6122 25.8896 46.7704 27.2725H44.204C44.0868 26.54 43.8261 26.0039 43.4218 25.6641C43.0233 25.3242 42.4726 25.1543 41.7694 25.1543C40.8729 25.1543 40.1903 25.4912 39.7216 26.165C39.2528 26.8389 39.0155 27.8408 39.0097 29.1709V29.9883C39.0097 31.3301 39.2645 32.3438 39.7743 33.0293C40.2841 33.7148 41.0311 34.0576 42.0155 34.0576C43.0058 34.0576 43.7118 33.8467 44.1337 33.4248V31.2188H41.7343V29.2764H46.7704V34.3828Z" fill="#F3CE38"/>
<path fill-rule="evenodd" clip-rule="evenodd" d="M48.0039 76.9883L40.9727 85.9883H68.9922L59.9922 74L52.9961 83L48.0039 76.9883ZM73 87.9922C73 89.0938 72.6074 90.0371 71.8223 90.8223C71.0371 91.6074 70.0938 92 68.9922 92H40.9727C39.8945 92 38.9629 91.6074 38.1777 90.8223C37.3926 90.0371 37 89.0938 37 87.9922V59.9727C37 58.8945 37.3926 57.9629 38.1777 57.1777C38.9629 56.3926 39.8945 56 40.9727 56H68.9922C70.0938 56 71.0371 56.3867 71.8223 57.1602C72.6074 57.9336 73 58.8711 73 59.9727V87.9922Z" fill="#F3CE38"/>
</svg>
