<svg width="96" height="107" viewBox="0 0 96 107" fill="none" xmlns="http://www.w3.org/2000/svg">
<path d="M95.7694 106.363H14V0H70.2165L95.7694 25.3245V106.363Z" fill="#CBA610"/>
<path d="M92.2753 28.0582H68V4L92.2753 28.0582Z" fill="#F3CE38"/>
<rect y="16" width="55" height="28" rx="4" fill="#AF8F0E"/>
<path d="M16.3018 24.2031H18.9385V33.0625C18.9385 33.877 18.7568 34.5977 18.3936 35.2246C18.0361 35.8457 17.5293 36.3262 16.873 36.666C16.2168 37.0059 15.4756 37.1758 14.6494 37.1758C13.2959 37.1758 12.2412 36.833 11.4854 36.1475C10.7295 35.4561 10.3516 34.4805 10.3516 33.2207H13.0059C13.0059 33.8477 13.1377 34.3105 13.4014 34.6094C13.665 34.9082 14.0811 35.0576 14.6494 35.0576C15.1533 35.0576 15.5547 34.8848 15.8535 34.5391C16.1523 34.1934 16.3018 33.7012 16.3018 33.0625V24.2031ZM23.402 32.4912V37H20.7653V24.2031H25.7575C26.7184 24.2031 27.5621 24.3789 28.2887 24.7305C29.0211 25.082 29.5836 25.583 29.9762 26.2334C30.3688 26.8779 30.5651 27.6133 30.5651 28.4395C30.5651 29.6934 30.1344 30.6836 29.2731 31.4102C28.4176 32.1309 27.2311 32.4912 25.7135 32.4912H23.402ZM23.402 30.3555H25.7575C26.4547 30.3555 26.985 30.1914 27.3483 29.8633C27.7174 29.5352 27.902 29.0664 27.902 28.457C27.902 27.8301 27.7174 27.3232 27.3483 26.9365C26.9791 26.5498 26.4694 26.3506 25.819 26.3389H23.402V30.3555ZM42.0774 35.3828C41.6028 35.9512 40.9319 36.3936 40.0647 36.71C39.1975 37.0205 38.2366 37.1758 37.1819 37.1758C36.0745 37.1758 35.1018 36.9355 34.2639 36.4551C33.4319 35.9688 32.7874 35.2656 32.3303 34.3457C31.8792 33.4258 31.6477 32.3447 31.636 31.1025V30.2324C31.636 28.9551 31.8499 27.8506 32.2776 26.9189C32.7112 25.9814 33.3323 25.2666 34.1409 24.7744C34.9553 24.2764 35.9075 24.0273 36.9973 24.0273C38.5149 24.0273 39.7014 24.3906 40.5569 25.1172C41.4124 25.8379 41.9192 26.8896 42.0774 28.2725H39.511C39.3938 27.54 39.1331 27.0039 38.7288 26.6641C38.3303 26.3242 37.7796 26.1543 37.0764 26.1543C36.1799 26.1543 35.4973 26.4912 35.0286 27.165C34.5598 27.8389 34.3225 28.8408 34.3167 30.1709V30.9883C34.3167 32.3301 34.5715 33.3438 35.0813 34.0293C35.5911 34.7148 36.3381 35.0576 37.3225 35.0576C38.3128 35.0576 39.0188 34.8467 39.4407 34.4248V32.2188H37.0413V30.2764H42.0774V35.3828Z" fill="#F3CE38"/>
<path fill-rule="evenodd" clip-rule="evenodd" d="M48.0039 76.9883L40.9727 85.9883H68.9922L59.9922 74L52.9961 83L48.0039 76.9883ZM73 87.9922C73 89.0938 72.6074 90.0371 71.8223 90.8223C71.0371 91.6074 70.0938 92 68.9922 92H40.9727C39.8945 92 38.9629 91.6074 38.1777 90.8223C37.3926 90.0371 37 89.0938 37 87.9922V59.9727C37 58.8945 37.3926 57.9629 38.1777 57.1777C38.9629 56.3926 39.8945 56 40.9727 56H68.9922C70.0938 56 71.0371 56.3867 71.8223 57.1602C72.6074 57.9336 73 58.8711 73 59.9727V87.9922Z" fill="#F3CE38"/>
</svg>
