<svg width="96" height="107" viewBox="0 0 96 107" fill="none" xmlns="http://www.w3.org/2000/svg">
<path d="M95.7694 106.363H14V0H70.2165L95.7694 25.3245V106.363Z" fill="#CBA610"/>
<path d="M92.2753 28.0582H68V4L92.2753 28.0582Z" fill="#F3CE38"/>
<rect y="16" width="55" height="28" rx="4" fill="#AF8F0E"/>
<path d="M15.3018 24.2031H17.9385V33.0625C17.9385 33.877 17.7568 34.5977 17.3936 35.2246C17.0361 35.8457 16.5293 36.3262 15.873 36.666C15.2168 37.0059 14.4756 37.1758 13.6494 37.1758C12.2959 37.1758 11.2412 36.833 10.4854 36.1475C9.72949 35.4561 9.35156 34.4805 9.35156 33.2207H12.0059C12.0059 33.8477 12.1377 34.3105 12.4014 34.6094C12.665 34.9082 13.0811 35.0576 13.6494 35.0576C14.1533 35.0576 14.5547 34.8848 14.8535 34.5391C15.1523 34.1934 15.3018 33.7012 15.3018 33.0625V24.2031ZM22.402 32.4912V37H19.7653V24.2031H24.7575C25.7184 24.2031 26.5621 24.3789 27.2887 24.7305C28.0211 25.082 28.5836 25.583 28.9762 26.2334C29.3688 26.8779 29.5651 27.6133 29.5651 28.4395C29.5651 29.6934 29.1344 30.6836 28.2731 31.4102C27.4176 32.1309 26.2311 32.4912 24.7135 32.4912H22.402ZM22.402 30.3555H24.7575C25.4547 30.3555 25.985 30.1914 26.3483 29.8633C26.7174 29.5352 26.902 29.0664 26.902 28.457C26.902 27.8301 26.7174 27.3232 26.3483 26.9365C25.9791 26.5498 25.4694 26.3506 24.819 26.3389H22.402V30.3555ZM33.5891 32.4912V37H30.9524V24.2031H35.9446C36.9055 24.2031 37.7493 24.3789 38.4758 24.7305C39.2083 25.082 39.7708 25.583 40.1633 26.2334C40.5559 26.8779 40.7522 27.6133 40.7522 28.4395C40.7522 29.6934 40.3215 30.6836 39.4602 31.4102C38.6047 32.1309 37.4182 32.4912 35.9006 32.4912H33.5891ZM33.5891 30.3555H35.9446C36.6419 30.3555 37.1721 30.1914 37.5354 29.8633C37.9046 29.5352 38.0891 29.0664 38.0891 28.457C38.0891 27.8301 37.9046 27.3232 37.5354 26.9365C37.1663 26.5498 36.6565 26.3506 36.0061 26.3389H33.5891V30.3555Z" fill="#F3CE38"/>
<path fill-rule="evenodd" clip-rule="evenodd" d="M48.0039 76.9883L40.9727 85.9883H68.9922L59.9922 74L52.9961 83L48.0039 76.9883ZM73 87.9922C73 89.0938 72.6074 90.0371 71.8223 90.8223C71.0371 91.6074 70.0938 92 68.9922 92H40.9727C39.8945 92 38.9629 91.6074 38.1777 90.8223C37.3926 90.0371 37 89.0938 37 87.9922V59.9727C37 58.8945 37.3926 57.9629 38.1777 57.1777C38.9629 56.3926 39.8945 56 40.9727 56H68.9922C70.0938 56 71.0371 56.3867 71.8223 57.1602C72.6074 57.9336 73 58.8711 73 59.9727V87.9922Z" fill="#F3CE38"/>
</svg>
