<svg width="96" height="107" viewBox="0 0 96 107" fill="none" xmlns="http://www.w3.org/2000/svg">
<path d="M95.7694 106.363H14V0H70.2165L95.7694 25.3245V106.363Z" fill="#0B3101"/>
<path d="M92.2753 28.0582H68V4L92.2753 28.0582Z" fill="#E6E6E6"/>
<rect y="16" width="55" height="28" rx="4" fill="black"/>
<path fill-rule="evenodd" clip-rule="evenodd" d="M46.9844 54C45.8828 54 44.9395 54.3926 44.1543 55.1777C43.3691 55.9629 42.9766 56.8945 42.9766 57.9727V65.9883C42.9766 67.0898 42.584 68.0332 41.7988 68.8184C41.0137 69.6035 40.082 69.9961 39.0039 69.9961H37V74.0039H39.0039C40.082 74.0039 41.0137 74.3906 41.7988 75.1641C42.584 75.9375 42.9766 76.875 42.9766 77.9766V85.9922C42.9766 87.0938 43.3691 88.0371 44.1543 88.8223C44.9395 89.6074 45.8828 90 46.9844 90H50.9922V85.9922H46.9844V75.9727C46.9844 74.8945 46.5918 73.9629 45.8066 73.1777C45.0215 72.3926 44.0781 72 42.9766 72C44.0781 72 45.0215 71.6074 45.8066 70.8223C46.5918 70.0371 46.9844 69.0938 46.9844 67.9922V57.9727H50.9922V54H46.9844ZM62.9805 54C64.082 54 65.0254 54.3926 65.8105 55.1777C66.5957 55.9629 66.9883 56.8945 66.9883 57.9727V65.9883C66.9883 67.0898 67.3809 68.0332 68.166 68.8184C68.9512 69.6035 69.8945 69.9961 70.9961 69.9961H73V74.0039H70.9961C69.8945 74.0039 68.9512 74.3906 68.166 75.1641C67.3809 75.9375 66.9883 76.875 66.9883 77.9766V85.9922C66.9883 87.0938 66.5957 88.0371 65.8105 88.8223C65.0254 89.6074 64.082 90 62.9805 90H58.9727V85.9922H62.9805V75.9727C62.9805 74.8945 63.373 73.9629 64.1582 73.1777C64.9434 72.3926 65.8867 72 66.9883 72C65.8867 72 64.9434 71.6074 64.1582 70.8223C63.373 70.0371 62.9805 69.0938 62.9805 67.9922V57.9727H58.9727V54H62.9805Z" fill="#E6E6E6"/>
<path d="M14.9014 25.0469H16.9521V31.9375C16.9521 32.571 16.8109 33.1315 16.5283 33.6191C16.2503 34.1022 15.8561 34.4759 15.3457 34.7402C14.8353 35.0046 14.2588 35.1367 13.6162 35.1367C12.5635 35.1367 11.7432 34.8701 11.1553 34.3369C10.5674 33.7992 10.2734 33.0404 10.2734 32.0605H12.3379C12.3379 32.5482 12.4404 32.9082 12.6455 33.1406C12.8506 33.373 13.1742 33.4893 13.6162 33.4893C14.0081 33.4893 14.3203 33.3548 14.5527 33.0859C14.7852 32.8171 14.9014 32.4342 14.9014 31.9375V25.0469ZM23.8701 32.3887C23.8701 32.0013 23.7334 31.7051 23.46 31.5C23.1865 31.2904 22.6943 31.0716 21.9834 30.8438C21.2725 30.6113 20.7096 30.3835 20.2949 30.1602C19.1647 29.5495 18.5996 28.7269 18.5996 27.6924C18.5996 27.1546 18.75 26.6761 19.0508 26.2568C19.3561 25.833 19.7913 25.5026 20.3564 25.2656C20.9261 25.0286 21.5641 24.9102 22.2705 24.9102C22.9814 24.9102 23.6149 25.04 24.1709 25.2998C24.7269 25.555 25.1576 25.9173 25.4629 26.3867C25.7728 26.8561 25.9277 27.3893 25.9277 27.9863H23.877C23.877 27.5306 23.7334 27.1774 23.4463 26.9268C23.1592 26.6715 22.7559 26.5439 22.2363 26.5439C21.735 26.5439 21.3454 26.651 21.0674 26.8652C20.7894 27.0749 20.6504 27.3529 20.6504 27.6992C20.6504 28.0228 20.8122 28.2939 21.1357 28.5127C21.4639 28.7314 21.9447 28.9365 22.5781 29.1279C23.7448 29.4788 24.5947 29.9141 25.1279 30.4336C25.6611 30.9531 25.9277 31.6003 25.9277 32.375C25.9277 33.2363 25.6019 33.9131 24.9502 34.4053C24.2985 34.8929 23.4212 35.1367 22.3184 35.1367C21.5527 35.1367 20.8555 34.9977 20.2266 34.7197C19.5977 34.4372 19.1169 34.0521 18.7842 33.5645C18.4561 33.0768 18.292 32.5117 18.292 31.8691H20.3496C20.3496 32.9674 21.0059 33.5166 22.3184 33.5166C22.806 33.5166 23.1865 33.4186 23.46 33.2227C23.7334 33.0221 23.8701 32.7441 23.8701 32.3887ZM35.498 30.249C35.498 31.2288 35.3249 32.0879 34.9785 32.8262C34.6322 33.5645 34.1354 34.1341 33.4883 34.5352C32.8457 34.9362 32.1074 35.1367 31.2734 35.1367C30.4486 35.1367 29.7126 34.9385 29.0654 34.542C28.4183 34.1455 27.917 33.5804 27.5615 32.8467C27.2061 32.1084 27.026 31.2607 27.0215 30.3037V29.8115C27.0215 28.8317 27.1969 27.9704 27.5479 27.2275C27.9033 26.4801 28.4023 25.9082 29.0449 25.5117C29.6921 25.1107 30.4303 24.9102 31.2598 24.9102C32.0892 24.9102 32.8252 25.1107 33.4678 25.5117C34.1149 25.9082 34.6139 26.4801 34.9648 27.2275C35.3203 27.9704 35.498 28.8294 35.498 29.8047V30.249ZM33.4199 29.7979C33.4199 28.7542 33.2331 27.9613 32.8594 27.4189C32.4857 26.8766 31.9525 26.6055 31.2598 26.6055C30.5716 26.6055 30.0407 26.8743 29.667 27.4121C29.2933 27.9453 29.1042 28.7292 29.0996 29.7637V30.249C29.0996 31.2653 29.2865 32.0537 29.6602 32.6143C30.0339 33.1748 30.5716 33.4551 31.2734 33.4551C31.9616 33.4551 32.4902 33.1862 32.8594 32.6484C33.2285 32.1061 33.4154 31.3177 33.4199 30.2832V29.7979ZM45.082 35H43.0312L39.0391 28.4512V35H36.9883V25.0469H39.0391L43.0381 31.6094V25.0469H45.082V35Z" fill="#E5E5E5"/>
</svg>
