<svg width="96" height="107" viewBox="0 0 96 107" fill="none" xmlns="http://www.w3.org/2000/svg">
<path d="M95.7694 106.363H14V0H70.2165L95.7694 25.3245V106.363Z" fill="#1C5DA4"/>
<path d="M92.0602 27.5664H67.7849V3.50818L92.0602 27.5664Z" fill="#7BB6F6"/>
<rect y="16" width="55" height="28" rx="4" fill="#2C7ACD"/>
<path d="M12.5693 33.9995H17.8569V36H10.0791V23.9141H12.5693V33.9995ZM28.2575 30.231C28.2575 31.4207 28.0472 32.4639 27.6266 33.3604C27.206 34.2568 26.6028 34.9486 25.817 35.4355C25.0367 35.9225 24.1403 36.166 23.1276 36.166C22.1259 36.166 21.2322 35.9253 20.4464 35.4438C19.6606 34.9624 19.0519 34.2762 18.6202 33.3853C18.1886 32.4888 17.97 31.4595 17.9645 30.2974V29.6997C17.9645 28.5099 18.1775 27.464 18.6036 26.562C19.0353 25.6545 19.6412 24.96 20.4215 24.4785C21.2073 23.9915 22.1038 23.748 23.111 23.748C24.1181 23.748 25.0118 23.9915 25.7921 24.4785C26.5779 24.96 27.1839 25.6545 27.61 26.562C28.0416 27.464 28.2575 28.5072 28.2575 29.6914V30.231ZM25.734 29.6831C25.734 28.4159 25.5071 27.453 25.0534 26.7944C24.5996 26.1359 23.9521 25.8066 23.111 25.8066C22.2754 25.8066 21.6307 26.1331 21.1769 26.7861C20.7231 27.4336 20.4935 28.3854 20.4879 29.6416V30.231C20.4879 31.465 20.7148 32.4224 21.1686 33.103C21.6224 33.7837 22.2754 34.124 23.1276 34.124C23.9632 34.124 24.6051 33.7975 25.0534 33.1445C25.5016 32.486 25.7285 31.5286 25.734 30.2725V29.6831ZM39.1975 34.4727C38.7493 35.0094 38.1157 35.4272 37.2966 35.7261C36.4776 36.0194 35.5701 36.166 34.574 36.166C33.5281 36.166 32.6095 35.9391 31.8181 35.4854C31.0323 35.026 30.4236 34.362 29.992 33.4932C29.5658 32.6243 29.3473 31.6034 29.3362 30.4302V29.6084C29.3362 28.402 29.5382 27.3589 29.9422 26.479C30.3517 25.5936 30.9382 24.9185 31.7019 24.4536C32.4711 23.9832 33.3704 23.748 34.3997 23.748C35.8329 23.748 36.9535 24.0911 37.7615 24.7773C38.5694 25.458 39.0481 26.4513 39.1975 27.7573H36.7737C36.663 27.0656 36.4168 26.5592 36.0349 26.2383C35.6586 25.9173 35.1384 25.7568 34.4744 25.7568C33.6277 25.7568 32.983 26.075 32.5403 26.7114C32.0976 27.3478 31.8735 28.2941 31.8679 29.5503V30.3223C31.8679 31.5895 32.1087 32.5469 32.5901 33.1943C33.0715 33.8418 33.7771 34.1655 34.7068 34.1655C35.642 34.1655 36.3089 33.9663 36.7073 33.5679V31.4844H34.4412V29.6499H39.1975V34.4727Z" fill="#69A5F3"/>
<path fill-rule="evenodd" clip-rule="evenodd" d="M68.3008 58L70.6211 66.6836L68.7227 67.2109C68.2773 66.3437 67.8203 65.5117 67.3516 64.7148C66.8828 63.918 66.3789 63.2969 65.8398 62.8516C65.3008 62.4062 64.7324 62.1484 64.1348 62.0781C63.5371 62.0078 62.9336 61.9727 62.3242 61.9727H57.332V82.9961C57.332 83.4883 57.3555 83.9629 57.4023 84.4199C57.4492 84.877 57.6367 85.2344 57.9648 85.4922C58.3164 85.7266 58.7969 85.8672 59.4062 85.9141C60.0156 85.9609 60.6484 85.9844 61.3047 85.9844V87.9883H49.3164V85.9844C49.9961 85.9844 50.6348 85.9609 51.2324 85.9141C51.8301 85.8672 52.3047 85.7266 52.6562 85.4922C52.9844 85.2344 53.1777 84.877 53.2363 84.4199C53.2949 83.9629 53.3242 83.4883 53.3242 82.9961V61.9727H48.332C47.7227 61.9727 47.1133 62.0078 46.5039 62.0781C45.8945 62.1484 45.3203 62.4062 44.7812 62.8516C44.2656 63.2969 43.7734 63.918 43.3047 64.7148C42.8359 65.5117 42.3789 66.3437 41.9336 67.2109L40 66.6836L42.3203 58H68.3008Z" fill="#7BB6F6"/>
</svg>
