<svg width="96" height="107" viewBox="0 0 96 107" fill="none" xmlns="http://www.w3.org/2000/svg">
<path d="M95.7694 106.363H14V0H70.2165L95.7694 25.3245V106.363Z" fill="#082531"/>
<path d="M92.2753 28.0582H68V4L92.2753 28.0582Z" fill="#A7CFE9"/>
<rect y="16" width="55" height="28" rx="4" fill="black"/>
<path fill-rule="evenodd" clip-rule="evenodd" d="M19.7793 34.8818H25.3779V37H17.1426V24.2031H19.7793V34.8818ZM31.195 32.3154H29.0944V37H26.4576V24.2031H31.2125C32.7243 24.2031 33.8903 24.54 34.7106 25.2139C35.5309 25.8877 35.941 26.8398 35.941 28.0703C35.941 28.9434 35.7521 29.6714 35.3742 30.2544C34.9962 30.8374 34.4235 31.3018 33.6559 31.6475L36.4244 36.877V37H33.5944L31.195 32.3154ZM29.0944 30.1797H31.2213C31.8834 30.1797 32.3961 30.0112 32.7594 29.6743C33.1227 29.3374 33.3043 28.873 33.3043 28.2812C33.3043 27.6777 33.1329 27.2031 32.7902 26.8574C32.4474 26.5117 31.9215 26.3389 31.2125 26.3389H29.0944V30.1797Z" fill="#A7CFE9"/>
<path fill-rule="evenodd" clip-rule="evenodd" d="M55.0273 52C56.9492 52 58.7598 52.3633 60.459 53.0898C62.1582 53.8164 63.6406 54.8125 64.9062 56.0781C66.1719 57.3438 67.1738 58.8262 67.9121 60.5254C68.6504 62.2246 69.0195 64.0469 69.0195 65.9922C69.0195 67.1875 68.8789 68.3359 68.5977 69.4375C68.3164 70.5391 67.9121 71.582 67.3848 72.5664C66.8574 73.5508 66.2246 74.4531 65.4863 75.2734C64.748 76.0938 63.9219 76.832 63.0078 77.4883V81.9883C63.0078 82.5508 62.8145 83.0254 62.4277 83.4121C62.041 83.7988 61.5664 83.9922 61.0039 83.9922H49.0156C48.4766 83.9922 48.0078 83.7988 47.6094 83.4121C47.2109 83.0254 47.0117 82.5508 47.0117 81.9883V77.4883C46.0977 76.832 45.2773 76.0938 44.5508 75.2734C43.8242 74.4531 43.1973 73.5508 42.6699 72.5664C42.1426 71.582 41.7324 70.5391 41.4395 69.4375C41.1465 68.3359 41 67.1875 41 65.9922C41 64.0469 41.3691 62.2246 42.1074 60.5254C42.8457 58.8262 43.8476 57.3438 45.1133 56.0781C46.3789 54.8125 47.8613 53.8164 49.5605 53.0898C51.2598 52.3633 53.082 52 55.0273 52ZM49.0156 90.0039V88H61.0039V90.0039C61.0039 90.543 60.8105 91.0117 60.4238 91.4102C60.0371 91.8086 59.5625 92.0078 59 92.0078H51.0195C50.457 92.0078 49.9824 91.8086 49.5957 91.4102C49.209 91.0117 49.0156 90.543 49.0156 90.0039ZM55.0273 56.0078C53.6445 56.0078 52.3438 56.2656 51.125 56.7812C49.9062 57.2969 48.8457 58.0117 47.9434 58.9258C47.041 59.8398 46.3262 60.9004 45.7988 62.1074C45.2715 63.3145 45.0078 64.6094 45.0078 65.9922C45.0078 67.0234 45.1543 68.0078 45.4473 68.9453C45.7402 69.8828 46.1504 70.7441 46.6777 71.5293C47.2051 72.3145 47.8379 73.0176 48.5762 73.6387C49.3145 74.2598 50.1289 74.7695 51.0195 75.168V79.9844H59V75.168C59.8906 74.7695 60.7051 74.2598 61.4434 73.6387C62.1816 73.0176 62.8145 72.3145 63.3418 71.5293C63.8691 70.7441 64.2793 69.8828 64.5723 68.9453C64.8652 68.0078 65.0117 67.0234 65.0117 65.9922C65.0117 64.6094 64.748 63.3145 64.2207 62.1074C63.6934 60.9004 62.9785 59.8398 62.0762 58.9258C61.1738 58.0117 60.1191 57.2969 58.9121 56.7812C57.7051 56.2656 56.4102 56.0078 55.0273 56.0078Z" fill="#A7CFE9"/>
</svg>
