<svg width="96" height="107" viewBox="0 0 96 107" fill="none" xmlns="http://www.w3.org/2000/svg">
<path d="M95.7694 106.363H14V0H70.2165L95.7694 25.3245V106.363Z" fill="#7883A4"/>
<path d="M92.2753 28.0582H68V4L92.2753 28.0582Z" fill="#9AA6CA"/>
<rect y="16" width="55" height="28" rx="4" fill="#4B536D"/>
<path d="M8.33301 23.9141L11.4375 32.6797L14.5254 23.9141H17.7959V36H15.2974V32.6963L15.5464 26.9937L12.2842 36H10.5742L7.32031 27.002L7.56934 32.6963V36H5.0791V23.9141H8.33301ZM19.5387 36V23.9141H23.7721C25.2386 23.9141 26.3509 24.1963 27.109 24.7607C27.8672 25.3197 28.2462 26.1414 28.2462 27.2261C28.2462 27.8182 28.094 28.3411 27.7897 28.7949C27.4853 29.2432 27.062 29.5724 26.5197 29.7827C27.1395 29.9377 27.6264 30.2503 27.9806 30.7207C28.3403 31.1911 28.5201 31.7666 28.5201 32.4473C28.5201 33.6094 28.1494 34.4893 27.4078 35.0869C26.6663 35.6846 25.6093 35.9889 24.2369 36H19.5387ZM22.0289 30.7373V33.9995H24.1622C24.7488 33.9995 25.2054 33.8612 25.5319 33.5845C25.8639 33.3022 26.0299 32.9149 26.0299 32.4224C26.0299 31.3156 25.4572 30.7539 24.3117 30.7373H22.0289ZM22.0289 28.9775H23.8717C25.1279 28.9554 25.756 28.4546 25.756 27.4751C25.756 26.9272 25.5955 26.5343 25.2745 26.2964C24.9591 26.0529 24.4583 25.9312 23.7721 25.9312H22.0289V28.9775ZM39.8919 30.231C39.8919 31.4207 39.6816 32.4639 39.261 33.3604C38.8404 34.2568 38.2372 34.9486 37.4514 35.4355C36.6712 35.9225 35.7747 36.166 34.762 36.166C33.7603 36.166 32.8666 35.9253 32.0808 35.4438C31.295 34.9624 30.6863 34.2762 30.2547 33.3853C29.823 32.4888 29.6044 31.4595 29.5989 30.2974V29.6997C29.5989 28.5099 29.8119 27.464 30.2381 26.562C30.6697 25.6545 31.2756 24.96 32.0559 24.4785C32.8417 23.9915 33.7382 23.748 34.7454 23.748C35.7525 23.748 36.6463 23.9915 37.4265 24.4785C38.2123 24.96 38.8183 25.6545 39.2444 26.562C39.676 27.464 39.8919 28.5072 39.8919 29.6914V30.231ZM37.3684 29.6831C37.3684 28.4159 37.1415 27.453 36.6878 26.7944C36.234 26.1359 35.5865 25.8066 34.7454 25.8066C33.9098 25.8066 33.2651 26.1331 32.8113 26.7861C32.3575 27.4336 32.1279 28.3854 32.1223 29.6416V30.231C32.1223 31.465 32.3492 32.4224 32.803 33.103C33.2568 33.7837 33.9098 34.124 34.762 34.124C35.5976 34.124 36.2395 33.7975 36.6878 33.1445C37.136 32.486 37.3629 31.5286 37.3684 30.2725V29.6831ZM45.4115 28.0811L47.6776 23.9141H50.5414L47.0219 29.9072L50.6327 36H47.7357L45.4115 31.7666L43.0873 36H40.1903L43.8012 29.9072L40.2816 23.9141H43.1454L45.4115 28.0811Z" fill="#9AA6CA"/>
<path fill-rule="evenodd" clip-rule="evenodd" d="M55.0039 83.4609L39.0078 73.4414V88.7344H71V73.4414L55.0039 83.4609ZM39.0078 68.7305L55.0039 78.75L71 68.7305L55.0039 58.7461L39.0078 68.7305ZM75.0078 68.7305V88.7344C75.0078 89.8359 74.6152 90.7793 73.8301 91.5645C73.0449 92.3496 72.1016 92.7422 71 92.7422H39.0078C37.9062 92.7422 36.9629 92.3496 36.1777 91.5645C35.3926 90.7793 35 89.8359 35 88.7344V68.7305C35 68.0039 35.1758 67.3418 35.5273 66.7441C35.8789 66.1465 36.3477 65.6719 36.9336 65.3203L55.0039 54L73.0391 65.3203C73.625 65.6719 74.0996 66.1465 74.4629 66.7441C74.8262 67.3418 75.0078 68.0039 75.0078 68.7305Z" fill="#9AA6CA"/>
</svg>
