<svg width="96" height="107" viewBox="0 0 96 107" fill="none" xmlns="http://www.w3.org/2000/svg">
<path d="M95.7694 106.363H14V0H70.2165L95.7694 25.3245V106.363Z" fill="#A63A3D"/>
<path d="M92.2753 28.0582H68V4L92.2753 28.0582Z" fill="#EB6D71"/>
<rect y="16" width="55" height="28" rx="4" fill="#5C1C1E"/>
<path fill-rule="evenodd" clip-rule="evenodd" d="M14.333 23.9141L17.4375 32.6797L20.5254 23.9141H23.7959V36H21.2974V32.6963L21.5464 26.9937L18.2842 36H16.5742L13.3203 27.002L13.5693 32.6963V36H11.0791V23.9141H14.333ZM25.5387 36V23.9141H29.2575C30.32 23.9141 31.2704 24.1534 32.1088 24.6321C32.9472 25.1108 33.6015 25.7914 34.0719 26.6741C34.5423 27.5567 34.7775 28.5597 34.7775 29.6831V30.2393C34.7775 31.3626 34.5464 32.3615 34.0844 33.2358C33.6223 34.1102 32.9707 34.7881 32.1295 35.2695C31.2884 35.751 30.3393 35.9945 29.2824 36H25.5387ZM28.0289 25.9312V33.9995H29.2326C30.2065 33.9995 30.9508 33.6813 31.4655 33.0449C31.9801 32.4085 32.243 31.4982 32.254 30.314V29.6748C32.254 28.4463 31.9995 27.5152 31.4904 26.8816C30.9812 26.248 30.237 25.9312 29.2575 25.9312H28.0289ZM36.155 36V23.9141H40.3884C41.8549 23.9141 42.9672 24.1949 43.7254 24.7566C44.4835 25.3183 44.8626 26.1414 44.8626 27.2261C44.8626 27.8182 44.7104 28.3398 44.406 28.7908C44.1017 29.2418 43.6783 29.5724 43.136 29.7827C43.7558 29.9377 44.2442 30.2503 44.6011 30.7207C44.958 31.1911 45.1365 31.7666 45.1365 32.4473C45.1365 33.6094 44.7657 34.4893 44.0242 35.0869C43.2826 35.6846 42.2257 35.9889 40.8533 36H36.155ZM38.6453 30.7373V33.9995H40.7786C41.3652 33.9995 41.8231 33.8598 42.1524 33.5803C42.4816 33.3009 42.6463 32.9149 42.6463 32.4224C42.6463 31.3156 42.0735 30.7539 40.928 30.7373H38.6453ZM38.6453 28.9775H40.4881C41.7442 28.9554 42.3723 28.4546 42.3723 27.4751C42.3723 26.9272 42.2132 26.533 41.895 26.2922C41.5768 26.0515 41.0746 25.9312 40.3884 25.9312H38.6453V28.9775Z" fill="#EB6D71"/>
<path fill-rule="evenodd" clip-rule="evenodd" d="M37.0039 50H68.9961C69.5352 50 70.0039 50.1934 70.4023 50.5801C70.8008 50.9668 71 51.4414 71 52.0039V59.9844C71 60.5469 70.8008 61.0215 70.4023 61.4082C70.0039 61.7949 69.5352 61.9883 68.9961 61.9883H37.0039C36.4414 61.9883 35.9668 61.7949 35.5801 61.4082C35.1934 61.0215 35 60.5469 35 59.9844V52.0039C35 51.4414 35.1934 50.9668 35.5801 50.5801C35.9668 50.1934 36.4414 50 37.0039 50ZM37.0039 65.9961H68.9961C69.5352 65.9961 70.0039 66.1895 70.4023 66.5762C70.8008 66.9629 71 67.4375 71 68V69.3359L66.0078 67.1211L53 72.8867V77.9844H37.0039C36.4414 77.9844 35.9668 77.791 35.5801 77.4043C35.1934 77.0176 35 76.543 35 75.9805V68C35 67.4375 35.1934 66.9629 35.5801 66.5762C35.9668 66.1895 36.4414 65.9961 37.0039 65.9961ZM37.0039 81.9922H53C53.0234 83.1172 53.1582 84.2246 53.4043 85.3145C53.6504 86.4043 53.9844 87.459 54.4062 88.4785C54.8281 89.4981 55.3379 90.4707 55.9355 91.3965C56.5332 92.3223 57.1953 93.1836 57.9219 93.9805H37.0039C36.4414 93.9805 35.9668 93.7871 35.5801 93.4004C35.1934 93.0137 35 92.5508 35 92.0117V83.9961C35 83.457 35.1934 82.9883 35.5801 82.5898C35.9668 82.1914 36.4414 81.9922 37.0039 81.9922ZM46.9883 57.9805H48.9922V54.0078H46.9883V57.9805ZM46.9883 74.0117H48.9922V70.0039H46.9883V74.0117ZM46.9883 90.0078H48.9922V86H46.9883V90.0078ZM39.0078 54.0078V57.9805H42.9805V54.0078H39.0078ZM39.0078 70.0039V74.0117H42.9805V70.0039H39.0078ZM39.0078 86V90.0078H42.9805V86H39.0078ZM66.0078 72.0078L75.0078 75.9805V81.9922C75.0078 83.375 74.7793 84.7226 74.3223 86.0352C73.8652 87.3477 73.2324 88.5371 72.4238 89.6035C71.6152 90.6699 70.666 91.5898 69.5762 92.3633C68.4863 93.1367 67.2969 93.6758 66.0078 93.9805C64.7187 93.6758 63.5234 93.1367 62.4219 92.3633C61.3203 91.5898 60.3652 90.6699 59.5566 89.6035C58.748 88.5371 58.1211 87.3477 57.6758 86.0352C57.2305 84.7226 57.0078 83.375 57.0078 81.9922V75.9805L66.0078 72.0078ZM66.0078 75.875L60.9805 78.125V83.4336C60.9805 84.9805 61.4609 86.3926 62.4219 87.6699C63.3828 88.9473 64.5781 89.7617 66.0078 90.1133V75.875Z" fill="#EB6D71"/>
</svg>
