<svg width="96" height="107" viewBox="0 0 96 107" fill="none" xmlns="http://www.w3.org/2000/svg">
<path d="M95.7694 106.363H14V0H70.2165L95.7694 25.3245V106.363Z" fill="#A75FD9"/>
<path d="M92.2753 28.0582H68V4L92.2753 28.0582Z" fill="#DBA7FF"/>
<rect y="16" width="55" height="28" rx="4" fill="#8950B1"/>
<path d="M11.5879 24.2031L14.875 33.4844L18.1445 24.2031H21.6074V37H18.9619V33.502L19.2256 27.4639L15.7715 37H13.9609L10.5156 27.4727L10.7793 33.502V37H8.14258V24.2031H11.5879ZM27.486 31.8672L26.1149 33.3438V37H23.4782V24.2031H26.1149V30.0039L27.275 28.4131L30.5358 24.2031H33.7789L29.235 29.8896L33.9108 37H30.7731L27.486 31.8672ZM39.2005 33.8271L42.1008 24.2031H45.0364L40.5803 37H37.8294L33.3909 24.2031H36.3176L39.2005 33.8271Z" fill="#CC98F1"/>
</svg>
