<svg width="96" height="107" viewBox="0 0 96 107" fill="none" xmlns="http://www.w3.org/2000/svg">
<path d="M95.7694 106.363H14V0H70.2165L95.7694 25.3245V106.363Z" fill="#A75FD9"/>
<path d="M92.2753 28.0582H68V4L92.2753 28.0582Z" fill="#DBA7FF"/>
<rect y="16" width="55" height="28" rx="4" fill="#8950B1"/>
<path d="M11.5879 24.2031L14.875 33.4844L18.1445 24.2031H21.6074V37H18.9619V33.502L19.2256 27.4639L15.7715 37H13.9609L10.5156 27.4727L10.7793 33.502V37H8.14258V24.2031H11.5879ZM33.9899 30.8916C33.9899 32.1514 33.7672 33.2559 33.3219 34.2051C32.8766 35.1543 32.2379 35.8867 31.4059 36.4023C30.5797 36.918 29.6305 37.1758 28.5582 37.1758C27.4977 37.1758 26.5514 36.9209 25.7194 36.4111C24.8873 35.9014 24.2428 35.1748 23.7858 34.2314C23.3287 33.2822 23.0973 32.1924 23.0914 30.9619V30.3291C23.0914 29.0693 23.317 27.9619 23.7682 27.0068C24.2252 26.0459 24.8668 25.3105 25.693 24.8008C26.525 24.2852 27.4742 24.0273 28.5407 24.0273C29.6071 24.0273 30.5534 24.2852 31.3795 24.8008C32.2116 25.3105 32.8532 26.0459 33.3043 27.0068C33.7614 27.9619 33.9899 29.0664 33.9899 30.3203V30.8916ZM31.318 30.3115C31.318 28.9697 31.0778 27.9502 30.5973 27.2529C30.1168 26.5557 29.4313 26.207 28.5407 26.207C27.6559 26.207 26.9733 26.5527 26.4928 27.2441C26.0123 27.9297 25.7692 28.9375 25.7633 30.2676V30.8916C25.7633 32.1982 26.0035 33.2119 26.484 33.9326C26.9645 34.6533 27.6559 35.0137 28.5582 35.0137C29.443 35.0137 30.1227 34.668 30.5973 33.9766C31.0719 33.2793 31.3121 32.2656 31.318 30.9355V30.3115ZM40.009 33.8271L42.9094 24.2031H45.845L41.3889 37H38.638L34.1995 24.2031H37.1262L40.009 33.8271Z" fill="#CC98F1"/>
</svg>
