<svg width="96" height="107" viewBox="0 0 96 107" fill="none" xmlns="http://www.w3.org/2000/svg">
<path d="M95.7694 106.363H14V0H70.2165L95.7694 25.3245V106.363Z" fill="#32373F"/>
<path d="M92.2753 28.0582H68V4L92.2753 28.0582Z" fill="#D1D1D1"/>
<rect y="16" width="55" height="28" rx="4" fill="black"/>
<path d="M11.5879 24.2031L14.875 33.4844L18.1445 24.2031H21.6074V37H18.9619V33.502L19.2256 27.4639L15.7715 37H13.9609L10.5156 27.4727L10.7793 33.502V37H8.14258V24.2031H11.5879ZM26.1149 32.4912V37H23.4782V24.2031H28.4703C29.4313 24.2031 30.275 24.3789 31.0016 24.7305C31.734 25.082 32.2965 25.583 32.6891 26.2334C33.0817 26.8779 33.278 27.6133 33.278 28.4395C33.278 29.6934 32.8473 30.6836 31.986 31.4102C31.1305 32.1309 29.944 32.4912 28.4264 32.4912H26.1149ZM26.1149 30.3555H28.4703C29.1676 30.3555 29.6979 30.1914 30.0612 29.8633C30.4303 29.5352 30.6149 29.0664 30.6149 28.457C30.6149 27.8301 30.4303 27.3232 30.0612 26.9365C29.692 26.5498 29.1823 26.3506 28.5319 26.3389H26.1149V30.3555ZM36.9768 29.4766H38.3303C38.9749 29.4766 39.4524 29.3154 39.763 28.9932C40.0735 28.6709 40.2288 28.2432 40.2288 27.71C40.2288 27.1943 40.0735 26.793 39.763 26.5059C39.4583 26.2188 39.0364 26.0752 38.4973 26.0752C38.011 26.0752 37.6038 26.21 37.2756 26.4795C36.9475 26.7432 36.7835 27.0889 36.7835 27.5166H34.2434C34.2434 26.8486 34.4221 26.251 34.7796 25.7236C35.1428 25.1904 35.6467 24.7744 36.2913 24.4756C36.9417 24.1768 37.6565 24.0273 38.4358 24.0273C39.7893 24.0273 40.8499 24.3525 41.6174 25.0029C42.385 25.6475 42.7688 26.5381 42.7688 27.6748C42.7688 28.2607 42.5901 28.7998 42.2327 29.292C41.8753 29.7842 41.4065 30.1621 40.8264 30.4258C41.5471 30.6836 42.0833 31.0703 42.4348 31.5859C42.7922 32.1016 42.971 32.7109 42.971 33.4141C42.971 34.5508 42.5549 35.4619 41.7229 36.1475C40.8967 36.833 39.801 37.1758 38.4358 37.1758C37.1585 37.1758 36.1126 36.8389 35.2981 36.165C34.4895 35.4912 34.0852 34.6006 34.0852 33.4932H36.6253C36.6253 33.9736 36.804 34.3662 37.1614 34.6709C37.5247 34.9756 37.97 35.1279 38.4973 35.1279C39.1008 35.1279 39.5725 34.9697 39.9124 34.6533C40.2581 34.3311 40.4309 33.9062 40.4309 33.3789C40.4309 32.1016 39.7278 31.4629 38.3215 31.4629H36.9768V29.4766Z" fill="#D1D1D1"/>
<path fill-rule="evenodd" clip-rule="evenodd" d="M62.9844 65.9922V61.9844H55.0039V72.9883C54.582 72.6836 54.1191 72.4434 53.6152 72.2676C53.1113 72.0918 52.5664 72.0039 51.9805 72.0039C50.5976 72.0039 49.4199 72.4902 48.4473 73.4629C47.4746 74.4356 46.9883 75.6133 46.9883 76.9961C46.9883 78.3789 47.4746 79.5566 48.4473 80.5293C49.4199 81.502 50.5976 81.9883 51.9805 81.9883C53.3633 81.9883 54.5469 81.502 55.5312 80.5293C56.5156 79.5566 57.0078 78.3789 57.0078 76.9961V65.9922H62.9844ZM55.0039 52C57.7461 52 60.3359 52.5215 62.7734 53.5645C65.2109 54.6074 67.332 56.0371 69.1367 57.8535C70.9414 59.6699 72.3711 61.791 73.4258 64.2168C74.4805 66.6426 75.0078 69.2383 75.0078 72.0039C75.0078 74.7461 74.4805 77.3359 73.4258 79.7734C72.3711 82.2109 70.9414 84.332 69.1367 86.1367C67.332 87.9414 65.2109 89.3711 62.7734 90.4258C60.3359 91.4805 57.7461 92.0078 55.0039 92.0078C52.2383 92.0078 49.6426 91.4805 47.2168 90.4258C44.791 89.3711 42.6699 87.9414 40.8535 86.1367C39.0371 84.332 37.6074 82.2109 36.5645 79.7734C35.5215 77.3359 35 74.7461 35 72.0039C35 69.2383 35.5215 66.6426 36.5645 64.2168C37.6074 61.791 39.0371 59.6699 40.8535 57.8535C42.6699 56.0371 44.791 54.6074 47.2168 53.5645C49.6426 52.5215 52.2383 52 55.0039 52Z" fill="#D1D1D1"/>
</svg>
