<svg width="96" height="107" viewBox="0 0 96 107" fill="none" xmlns="http://www.w3.org/2000/svg">
<path d="M95.7694 106.363H14V0H70.2165L95.7694 25.3245V106.363Z" fill="#A75FD9"/>
<path d="M92.2753 28.0582H68V4L92.2753 28.0582Z" fill="#DBA7FF"/>
<rect y="16" width="55" height="28" rx="4" fill="#8950B1"/>
<path d="M11.5879 24.2031L14.875 33.4844L18.1445 24.2031H21.6074V37H18.9619V33.502L19.2256 27.4639L15.7715 37H13.9609L10.5156 27.4727L10.7793 33.502V37H8.14258V24.2031H11.5879ZM26.1149 32.4912V37H23.4782V24.2031H28.4703C29.4313 24.2031 30.275 24.3789 31.0016 24.7305C31.734 25.082 32.2965 25.583 32.6891 26.2334C33.0817 26.8779 33.278 27.6133 33.278 28.4395C33.278 29.6934 32.8473 30.6836 31.986 31.4102C31.1305 32.1309 29.944 32.4912 28.4264 32.4912H26.1149ZM26.1149 30.3555H28.4703C29.1676 30.3555 29.6979 30.1914 30.0612 29.8633C30.4303 29.5352 30.6149 29.0664 30.6149 28.457C30.6149 27.8301 30.4303 27.3232 30.0612 26.9365C29.692 26.5498 29.1823 26.3506 28.5319 26.3389H26.1149V30.3555ZM41.9075 32.1836H43.3577V34.2314H41.9075V37H39.3674V34.2314H34.1204L34.0061 32.6318L39.3411 24.2031H41.9075V32.1836ZM36.5374 32.1836H39.3674V27.666L39.2005 27.9561L36.5374 32.1836Z" fill="#CC98F1"/>
</svg>
