<svg width="96" height="107" viewBox="0 0 96 107" fill="none" xmlns="http://www.w3.org/2000/svg">
<path d="M95.7694 106.363H14V0H70.2165L95.7694 25.3245V106.363Z" fill="#A75FD9"/>
<path d="M92.2753 28.0582H68V4L92.2753 28.0582Z" fill="#DBA7FF"/>
<rect y="16" width="55" height="28" rx="4" fill="#8950B1"/>
<path d="M8.33301 23.9141L11.4375 32.6797L14.5254 23.9141H17.7959V36H15.2974V32.6963L15.5464 26.9937L12.2842 36H10.5742L7.32031 27.002L7.56934 32.6963V36H5.0791V23.9141H8.33301ZM22.0529 31.7417V36H19.5627V23.9141H24.2775C25.1851 23.9141 25.982 24.0801 26.6682 24.4121C27.3599 24.7441 27.8912 25.2173 28.2619 25.8315C28.6327 26.4403 28.8181 27.1348 28.8181 27.915C28.8181 29.0993 28.4113 30.0345 27.5979 30.7207C26.7899 31.4014 25.6693 31.7417 24.236 31.7417H22.0529ZM22.0529 29.7246H24.2775C24.9361 29.7246 25.4369 29.5697 25.78 29.2598C26.1286 28.9499 26.3029 28.5072 26.3029 27.9316C26.3029 27.3395 26.1286 26.8608 25.78 26.4956C25.4314 26.1304 24.9499 25.9422 24.3357 25.9312H22.0529V29.7246ZM37.3998 30.7622H32.6186V33.9995H38.2299V36H30.1283V23.9141H38.2133V25.9312H32.6186V28.8115H37.3998V30.7622ZM48.8453 34.4727C48.3971 35.0094 47.7635 35.4272 46.9445 35.7261C46.1254 36.0194 45.2179 36.166 44.2218 36.166C43.1759 36.166 42.2573 35.9391 41.4659 35.4854C40.6801 35.026 40.0714 34.362 39.6398 33.4932C39.2137 32.6243 38.9951 31.6034 38.984 30.4302V29.6084C38.984 28.402 39.186 27.3589 39.59 26.479C39.9995 25.5936 40.5861 24.9185 41.3497 24.4536C42.1189 23.9832 43.0182 23.748 44.0475 23.748C45.4808 23.748 46.6014 24.0911 47.4093 24.7773C48.2172 25.458 48.6959 26.4513 48.8453 27.7573H46.4215C46.3108 27.0656 46.0646 26.5592 45.6827 26.2383C45.3064 25.9173 44.7863 25.7568 44.1222 25.7568C43.2755 25.7568 42.6308 26.075 42.1881 26.7114C41.7454 27.3478 41.5213 28.2941 41.5157 29.5503V30.3223C41.5157 31.5895 41.7565 32.5469 42.2379 33.1943C42.7194 33.8418 43.4249 34.1655 44.3546 34.1655C45.2898 34.1655 45.9567 33.9663 46.3551 33.5679V31.4844H44.089V29.6499H48.8453V34.4727Z" fill="#CC98F1"/>
</svg>
