<svg width="96" height="107" viewBox="0 0 96 107" fill="none" xmlns="http://www.w3.org/2000/svg">
<path d="M95.7694 106.363H14V0H70.2165L95.7694 25.3245V106.363Z" fill="#A75FD9"/>
<path d="M92.2753 28.0582H68V4L92.2753 28.0582Z" fill="#DBA7FF"/>
<rect y="16" width="55" height="28" rx="4" fill="#8950B1"/>
<path d="M13.333 23.9141L16.4375 32.6797L19.5254 23.9141H22.7959V36H20.2974V32.6963L20.5464 26.9937L17.2842 36H15.5742L12.3203 27.002L12.5693 32.6963V36H10.0791V23.9141H13.333ZM27.0529 31.7417V36H24.5627V23.9141H29.2775C30.1851 23.9141 30.982 24.0801 31.6682 24.4121C32.3599 24.7441 32.8912 25.2173 33.2619 25.8315C33.6327 26.4403 33.8181 27.1348 33.8181 27.915C33.8181 29.0993 33.4113 30.0345 32.5979 30.7207C31.7899 31.4014 30.6693 31.7417 29.236 31.7417H27.0529ZM27.0529 29.7246H29.2775C29.9361 29.7246 30.4369 29.5697 30.78 29.2598C31.1286 28.9499 31.3029 28.5072 31.3029 27.9316C31.3029 27.3395 31.1286 26.8608 30.78 26.4956C30.4314 26.1304 29.9499 25.9422 29.3357 25.9312H27.0529V29.7246ZM44.6908 34.4727C44.2426 35.0094 43.609 35.4272 42.79 35.7261C41.9709 36.0194 41.0634 36.166 40.0673 36.166C39.0214 36.166 38.1028 35.9391 37.3114 35.4854C36.5256 35.026 35.9169 34.362 35.4853 33.4932C35.0592 32.6243 34.8406 31.6034 34.8295 30.4302V29.6084C34.8295 28.402 35.0315 27.3589 35.4355 26.479C35.845 25.5936 36.4316 24.9185 37.1952 24.4536C37.9644 23.9832 38.8637 23.748 39.893 23.748C41.3263 23.748 42.4469 24.0911 43.2548 24.7773C44.0627 25.458 44.5414 26.4513 44.6908 27.7573H42.267C42.1563 27.0656 41.9101 26.5592 41.5282 26.2383C41.1519 25.9173 40.6318 25.7568 39.9677 25.7568C39.121 25.7568 38.4763 26.075 38.0336 26.7114C37.5909 27.3478 37.3668 28.2941 37.3612 29.5503V30.3223C37.3612 31.5895 37.602 32.5469 38.0834 33.1943C38.5649 33.8418 39.2704 34.1655 40.2001 34.1655C41.1353 34.1655 41.8022 33.9663 42.2006 33.5679V31.4844H39.9345V29.6499H44.6908V34.4727Z" fill="#CC98F1"/>
</svg>
