<svg width="96" height="107" viewBox="0 0 96 107" fill="none" xmlns="http://www.w3.org/2000/svg">
<path d="M95.7694 106.363H14V0H70.2165L95.7694 25.3245V106.363Z" fill="#B9B8A2"/>
<path d="M92.2753 28.0582H68V4L92.2753 28.0582Z" fill="#E2E0C1"/>
<rect y="16" width="55" height="28" rx="4" fill="#7E7F72"/>
<path d="M14.333 23.9141L17.4375 32.6797L20.5254 23.9141H23.7959V36H21.2974V32.6963L21.5464 26.9937L18.2842 36H16.5742L13.3203 27.002L13.5693 32.6963V36H11.0791V23.9141H14.333ZM28.0289 31.7417V36H25.5387V23.9141H30.2535C31.1611 23.9141 31.958 24.0801 32.6442 24.4121C33.3359 24.7441 33.8672 25.2173 34.2379 25.8315C34.6087 26.4403 34.7941 27.1348 34.7941 27.915C34.7941 29.0993 34.3873 30.0345 33.5739 30.7207C32.7659 31.4014 31.6453 31.7417 30.212 31.7417H28.0289ZM28.0289 29.7246H30.2535C30.9121 29.7246 31.4129 29.5697 31.756 29.2598C32.1046 28.9499 32.2789 28.5072 32.2789 27.9316C32.2789 27.3395 32.1046 26.8608 31.756 26.4956C31.4074 26.1304 30.9259 25.9422 30.3117 25.9312H28.0289V29.7246ZM38.5706 31.7417V36H36.0803V23.9141H40.7952C41.7027 23.9141 42.4996 24.0801 43.1858 24.4121C43.8775 24.7441 44.4088 25.2173 44.7796 25.8315C45.1503 26.4403 45.3357 27.1348 45.3357 27.915C45.3357 29.0993 44.929 30.0345 44.1155 30.7207C43.3075 31.4014 42.1869 31.7417 40.7537 31.7417H38.5706ZM38.5706 29.7246H40.7952C41.4537 29.7246 41.9545 29.5697 42.2976 29.2598C42.6463 28.9499 42.8206 28.5072 42.8206 27.9316C42.8206 27.3395 42.6463 26.8608 42.2976 26.4956C41.949 26.1304 41.4675 25.9422 40.8533 25.9312H38.5706V29.7246Z" fill="#E2E0C1"/>
<rect x="36" y="81" width="11" height="11" fill="#E2E0C1"/>
<ellipse cx="41.5534" cy="61.2526" rx="6.55336" ry="6.56842" fill="#E2E0C1"/>
<ellipse cx="67.7668" cy="86.4316" rx="6.55336" ry="6.56842" fill="#E2E0C1"/>
<rect x="40.3176" y="73.2727" width="2.31757" height="5.45455" fill="#E2E0C1"/>
<path d="M41.4764 70L38 74.3636H44.9527L41.4764 70Z" fill="#E2E0C1"/>
<rect x="50" y="60.3333" width="5.41769" height="2.33333" fill="#E2E0C1"/>
<path d="M58.6683 61.5L54.3342 58V65L58.6683 61.5Z" fill="#E2E0C1"/>
<rect x="66.3176" y="70" width="2.31757" height="5.45455" fill="#E2E0C1"/>
<path d="M67.4764 78.7273L70.9527 74.3636H64L67.4764 78.7273Z" fill="#E2E0C1"/>
<rect x="50" y="60.3333" width="5.41769" height="2.33333" fill="#E2E0C1"/>
<path d="M58.6683 61.5L54.3342 58V65L58.6683 61.5Z" fill="#E2E0C1"/>
<rect x="66.3176" y="70" width="2.31757" height="5.45455" fill="#E2E0C1"/>
<path d="M67.4764 78.7273L70.9527 74.3636H64L67.4764 78.7273Z" fill="#E2E0C1"/>
<path d="M67.0022 68.1495L60.8858 62.0189C60.4489 61.5811 60.4489 60.9242 60.8858 60.4863L67.0022 54.3558C67.4391 53.9179 68.0945 53.9179 68.5314 54.3558L74.6478 60.4863C75.0847 60.9242 75.0847 61.5811 74.6478 62.0189L68.5314 68.1495C68.0945 68.5874 67.4391 68.5874 67.0022 68.1495Z" fill="#E2E0C1"/>
</svg>
