<svg width="96" height="107" viewBox="0 0 96 107" fill="none" xmlns="http://www.w3.org/2000/svg">
<path d="M92.2753 28.0582H68V4L92.2753 28.0582Z" fill="#7BB6F6"/>
<rect y="16" width="55" height="28" rx="4" fill="#2C7ACD"/>
<path d="M10.1426 37V24.2031H14.0801C15.2051 24.2031 16.21 24.458 17.0947 24.9678C17.9854 25.4717 18.6797 26.1924 19.1777 27.1299C19.6758 28.0615 19.9248 29.1221 19.9248 30.3115V30.9004C19.9248 32.0898 19.6787 33.1475 19.1865 34.0732C18.7002 34.999 18.0117 35.7168 17.1211 36.2266C16.2305 36.7363 15.2256 36.9941 14.1064 37H10.1426ZM12.7793 26.3389V34.8818H14.0537C15.085 34.8818 15.873 34.5449 16.418 33.8711C16.9629 33.1973 17.2412 32.2334 17.2529 30.9795V30.3027C17.2529 29.002 16.9834 28.0176 16.4443 27.3496C15.9053 26.6758 15.1172 26.3389 14.0801 26.3389H12.7793ZM31.9293 30.8916C31.9293 32.1514 31.7067 33.2559 31.2614 34.2051C30.816 35.1543 30.1774 35.8867 29.3453 36.4023C28.5192 36.918 27.57 37.1758 26.4977 37.1758C25.4371 37.1758 24.4909 36.9209 23.6588 36.4111C22.8268 35.9014 22.1823 35.1748 21.7252 34.2314C21.2682 33.2822 21.0367 32.1924 21.0309 30.9619V30.3291C21.0309 29.0693 21.2565 27.9619 21.7076 27.0068C22.1647 26.0459 22.8063 25.3105 23.6325 24.8008C24.4645 24.2852 25.4137 24.0273 26.4801 24.0273C27.5465 24.0273 28.4928 24.2852 29.319 24.8008C30.151 25.3105 30.7926 26.0459 31.2438 27.0068C31.7008 27.9619 31.9293 29.0664 31.9293 30.3203V30.8916ZM29.2575 30.3115C29.2575 28.9697 29.0172 27.9502 28.5367 27.2529C28.0563 26.5557 27.3707 26.207 26.4801 26.207C25.5953 26.207 24.9127 26.5527 24.4323 27.2441C23.9518 27.9297 23.7086 28.9375 23.7028 30.2676V30.8916C23.7028 32.1982 23.943 33.2119 24.4235 33.9326C24.9039 34.6533 25.5953 35.0137 26.4977 35.0137C27.3825 35.0137 28.0621 34.668 28.5367 33.9766C29.0114 33.2793 29.2516 32.2656 29.2575 30.9355V30.3115ZM43.4592 32.7373C43.3596 34.1143 42.8499 35.1982 41.9299 35.9893C41.0159 36.7803 39.8089 37.1758 38.3089 37.1758C36.6682 37.1758 35.3762 36.625 34.4329 35.5234C33.4954 34.416 33.0266 32.8984 33.0266 30.9707V30.1885C33.0266 28.958 33.2434 27.874 33.677 26.9365C34.1106 25.999 34.7288 25.2812 35.5315 24.7832C36.3401 24.2793 37.2776 24.0273 38.344 24.0273C39.8206 24.0273 41.01 24.4229 41.9124 25.2139C42.8147 26.0049 43.3362 27.1152 43.4768 28.5449H40.8401C40.7756 27.7188 40.5442 27.1211 40.1458 26.752C39.7532 26.377 39.1526 26.1895 38.344 26.1895C37.4651 26.1895 36.8059 26.5059 36.3665 27.1387C35.9329 27.7656 35.7102 28.7412 35.6985 30.0654V31.0322C35.6985 32.415 35.9065 33.4258 36.3225 34.0645C36.7444 34.7031 37.4065 35.0225 38.3089 35.0225C39.1233 35.0225 39.7297 34.8379 40.1282 34.4688C40.5325 34.0938 40.7639 33.5166 40.8225 32.7373H43.4592Z" fill="#69A5F3"/>
<path fill-rule="evenodd" clip-rule="evenodd" d="M40 67.9175H41.945V85.4228H48.2664L53.1289 76.7715V85.4228H58.9638L67.7165 67.9175H69.6615V65H60.909V67.9175H62.3678L58.9638 74.6238V65H52.1564L46.3212 75.9814V67.9175H48.2664V65H40V67.9175Z" fill="#76B1F1"/>
<path d="M92.2753 28.0582H68V4L92.2753 28.0582Z" fill="#7BB6F6"/>
<rect y="16" width="55" height="28" rx="4" fill="#2C7ACD"/>
<path d="M10.1426 37V24.2031H14.0801C15.2051 24.2031 16.21 24.458 17.0947 24.9678C17.9854 25.4717 18.6797 26.1924 19.1777 27.1299C19.6758 28.0615 19.9248 29.1221 19.9248 30.3115V30.9004C19.9248 32.0898 19.6787 33.1475 19.1865 34.0732C18.7002 34.999 18.0117 35.7168 17.1211 36.2266C16.2305 36.7363 15.2256 36.9941 14.1064 37H10.1426ZM12.7793 26.3389V34.8818H14.0537C15.085 34.8818 15.873 34.5449 16.418 33.8711C16.9629 33.1973 17.2412 32.2334 17.2529 30.9795V30.3027C17.2529 29.002 16.9834 28.0176 16.4443 27.3496C15.9053 26.6758 15.1172 26.3389 14.0801 26.3389H12.7793ZM31.9293 30.8916C31.9293 32.1514 31.7067 33.2559 31.2614 34.2051C30.816 35.1543 30.1774 35.8867 29.3453 36.4023C28.5192 36.918 27.57 37.1758 26.4977 37.1758C25.4371 37.1758 24.4909 36.9209 23.6588 36.4111C22.8268 35.9014 22.1823 35.1748 21.7252 34.2314C21.2682 33.2822 21.0367 32.1924 21.0309 30.9619V30.3291C21.0309 29.0693 21.2565 27.9619 21.7076 27.0068C22.1647 26.0459 22.8063 25.3105 23.6325 24.8008C24.4645 24.2852 25.4137 24.0273 26.4801 24.0273C27.5465 24.0273 28.4928 24.2852 29.319 24.8008C30.151 25.3105 30.7926 26.0459 31.2438 27.0068C31.7008 27.9619 31.9293 29.0664 31.9293 30.3203V30.8916ZM29.2575 30.3115C29.2575 28.9697 29.0172 27.9502 28.5367 27.2529C28.0563 26.5557 27.3707 26.207 26.4801 26.207C25.5953 26.207 24.9127 26.5527 24.4323 27.2441C23.9518 27.9297 23.7086 28.9375 23.7028 30.2676V30.8916C23.7028 32.1982 23.943 33.2119 24.4235 33.9326C24.9039 34.6533 25.5953 35.0137 26.4977 35.0137C27.3825 35.0137 28.0621 34.668 28.5367 33.9766C29.0114 33.2793 29.2516 32.2656 29.2575 30.9355V30.3115ZM43.4592 32.7373C43.3596 34.1143 42.8499 35.1982 41.9299 35.9893C41.0159 36.7803 39.8089 37.1758 38.3089 37.1758C36.6682 37.1758 35.3762 36.625 34.4329 35.5234C33.4954 34.416 33.0266 32.8984 33.0266 30.9707V30.1885C33.0266 28.958 33.2434 27.874 33.677 26.9365C34.1106 25.999 34.7288 25.2812 35.5315 24.7832C36.3401 24.2793 37.2776 24.0273 38.344 24.0273C39.8206 24.0273 41.01 24.4229 41.9124 25.2139C42.8147 26.0049 43.3362 27.1152 43.4768 28.5449H40.8401C40.7756 27.7188 40.5442 27.1211 40.1458 26.752C39.7532 26.377 39.1526 26.1895 38.344 26.1895C37.4651 26.1895 36.8059 26.5059 36.3665 27.1387C35.9329 27.7656 35.7102 28.7412 35.6985 30.0654V31.0322C35.6985 32.415 35.9065 33.4258 36.3225 34.0645C36.7444 34.7031 37.4065 35.0225 38.3089 35.0225C39.1233 35.0225 39.7297 34.8379 40.1282 34.4688C40.5325 34.0938 40.7639 33.5166 40.8225 32.7373H43.4592Z" fill="#69A5F3"/>
<path fill-rule="evenodd" clip-rule="evenodd" d="M35 63.9009H37.6006V87.3071H46.0529L52.5545 75.7395V87.3071H60.3563L72.0594 63.9009H74.66V60H62.9572V63.9009H64.9077L60.3563 72.8679V60H51.2541L43.452 74.6831V63.9009H46.0529V60H35V63.9009Z" fill="white"/>
<path d="M92.2753 28.0582H68V4L92.2753 28.0582Z" fill="#7BB6F6"/>
<rect y="16" width="55" height="28" rx="4" fill="#2C7ACD"/>
<path d="M10.1426 37V24.2031H14.0801C15.2051 24.2031 16.21 24.458 17.0947 24.9678C17.9854 25.4717 18.6797 26.1924 19.1777 27.1299C19.6758 28.0615 19.9248 29.1221 19.9248 30.3115V30.9004C19.9248 32.0898 19.6787 33.1475 19.1865 34.0732C18.7002 34.999 18.0117 35.7168 17.1211 36.2266C16.2305 36.7363 15.2256 36.9941 14.1064 37H10.1426ZM12.7793 26.3389V34.8818H14.0537C15.085 34.8818 15.873 34.5449 16.418 33.8711C16.9629 33.1973 17.2412 32.2334 17.2529 30.9795V30.3027C17.2529 29.002 16.9834 28.0176 16.4443 27.3496C15.9053 26.6758 15.1172 26.3389 14.0801 26.3389H12.7793ZM31.9293 30.8916C31.9293 32.1514 31.7067 33.2559 31.2614 34.2051C30.816 35.1543 30.1774 35.8867 29.3453 36.4023C28.5192 36.918 27.57 37.1758 26.4977 37.1758C25.4371 37.1758 24.4909 36.9209 23.6588 36.4111C22.8268 35.9014 22.1823 35.1748 21.7252 34.2314C21.2682 33.2822 21.0367 32.1924 21.0309 30.9619V30.3291C21.0309 29.0693 21.2565 27.9619 21.7076 27.0068C22.1647 26.0459 22.8063 25.3105 23.6325 24.8008C24.4645 24.2852 25.4137 24.0273 26.4801 24.0273C27.5465 24.0273 28.4928 24.2852 29.319 24.8008C30.151 25.3105 30.7926 26.0459 31.2438 27.0068C31.7008 27.9619 31.9293 29.0664 31.9293 30.3203V30.8916ZM29.2575 30.3115C29.2575 28.9697 29.0172 27.9502 28.5367 27.2529C28.0563 26.5557 27.3707 26.207 26.4801 26.207C25.5953 26.207 24.9127 26.5527 24.4323 27.2441C23.9518 27.9297 23.7086 28.9375 23.7028 30.2676V30.8916C23.7028 32.1982 23.943 33.2119 24.4235 33.9326C24.9039 34.6533 25.5953 35.0137 26.4977 35.0137C27.3825 35.0137 28.0621 34.668 28.5367 33.9766C29.0114 33.2793 29.2516 32.2656 29.2575 30.9355V30.3115ZM43.4592 32.7373C43.3596 34.1143 42.8499 35.1982 41.9299 35.9893C41.0159 36.7803 39.8089 37.1758 38.3089 37.1758C36.6682 37.1758 35.3762 36.625 34.4329 35.5234C33.4954 34.416 33.0266 32.8984 33.0266 30.9707V30.1885C33.0266 28.958 33.2434 27.874 33.677 26.9365C34.1106 25.999 34.7288 25.2812 35.5315 24.7832C36.3401 24.2793 37.2776 24.0273 38.344 24.0273C39.8206 24.0273 41.01 24.4229 41.9124 25.2139C42.8147 26.0049 43.3362 27.1152 43.4768 28.5449H40.8401C40.7756 27.7188 40.5442 27.1211 40.1458 26.752C39.7532 26.377 39.1526 26.1895 38.344 26.1895C37.4651 26.1895 36.8059 26.5059 36.3665 27.1387C35.9329 27.7656 35.7102 28.7412 35.6985 30.0654V31.0322C35.6985 32.415 35.9065 33.4258 36.3225 34.0645C36.7444 34.7031 37.4065 35.0225 38.3089 35.0225C39.1233 35.0225 39.7297 34.8379 40.1282 34.4688C40.5325 34.0938 40.7639 33.5166 40.8225 32.7373H43.4592Z" fill="#69A5F3"/>
<path fill-rule="evenodd" clip-rule="evenodd" d="M40 67.9175H41.945V85.4228H48.2664L53.1289 76.7715V85.4228H58.9638L67.7165 67.9175H69.6615V65H60.909V67.9175H62.3678L58.9638 74.6238V65H52.1564L46.3212 75.9814V67.9175H48.2664V65H40V67.9175Z" fill="#76B1F1"/>
<path d="M95.7694 106.363H14V0H70.2165L95.7694 25.3245V106.363Z" fill="#B9B8A2"/>
<path d="M92.2753 28.0582H68V4L92.2753 28.0582Z" fill="#E2E0C1"/>
<rect y="16" width="55" height="28" rx="4" fill="#7E7F72"/>
<path d="M14.333 23.9141L17.4375 32.6797L20.5254 23.9141H23.7959V36H21.2974V32.6963L21.5464 26.9937L18.2842 36H16.5742L13.3203 27.002L13.5693 32.6963V36H11.0791V23.9141H14.333ZM28.0289 31.7417V36H25.5387V23.9141H30.2535C31.1611 23.9141 31.958 24.0801 32.6442 24.4121C33.3359 24.7441 33.8672 25.2173 34.2379 25.8315C34.6087 26.4403 34.7941 27.1348 34.7941 27.915C34.7941 29.0993 34.3873 30.0345 33.5739 30.7207C32.7659 31.4014 31.6453 31.7417 30.212 31.7417H28.0289ZM28.0289 29.7246H30.2535C30.9121 29.7246 31.4129 29.5697 31.756 29.2598C32.1046 28.9499 32.2789 28.5072 32.2789 27.9316C32.2789 27.3395 32.1046 26.8608 31.756 26.4956C31.4074 26.1304 30.9259 25.9422 30.3117 25.9312H28.0289V29.7246ZM39.9734 28.0811L42.2395 23.9141H45.1033L41.5838 29.9072L45.1946 36H42.2976L39.9734 31.7666L37.6492 36H34.7522L38.3631 29.9072L34.8435 23.9141H37.7073L39.9734 28.0811Z" fill="#E2E0C1"/>
<rect x="36" y="81" width="11" height="11" fill="#E2E0C1"/>
<path d="M67.0022 68.1495L60.8858 62.0189C60.4489 61.5811 60.4489 60.9242 60.8858 60.4863L67.0022 54.3558C67.4391 53.9179 68.0945 53.9179 68.5314 54.3558L74.6478 60.4863C75.0847 60.9242 75.0847 61.5811 74.6478 62.0189L68.5314 68.1495C68.0945 68.5874 67.4391 68.5874 67.0022 68.1495Z" fill="#E2E0C1"/>
<ellipse cx="41.5534" cy="61.2526" rx="6.55336" ry="6.56842" fill="#E2E0C1"/>
<ellipse cx="67.7667" cy="86.4316" rx="6.55336" ry="6.56842" fill="#E2E0C1"/>
<rect x="40.3176" y="73.2727" width="2.31757" height="5.45455" fill="#E2E0C1"/>
<path d="M41.4764 70L38 74.3636H44.9527L41.4764 70Z" fill="#E2E0C1"/>
<rect x="50" y="60.3333" width="5.41769" height="2.33333" fill="#E2E0C1"/>
<path d="M58.6683 61.5L54.3341 58V65L58.6683 61.5Z" fill="#E2E0C1"/>
<rect x="66.3176" y="70" width="2.31757" height="5.45455" fill="#E2E0C1"/>
<path d="M67.4764 78.7273L70.9527 74.3636H64L67.4764 78.7273Z" fill="#E2E0C1"/>
</svg>
