<svg width="96" height="107" viewBox="0 0 96 107" fill="none" xmlns="http://www.w3.org/2000/svg">
<path d="M95.7694 106.363H14V0H70.2165L95.7694 25.3245V106.363Z" fill="#79A92E"/>
<path d="M92.2753 28.0582H68V4L92.2753 28.0582Z" fill="#99CD48"/>
<rect y="16" width="55" height="28" rx="4" fill="#658C28"/>
<path fill-rule="evenodd" clip-rule="evenodd" d="M21.6543 30.8916C21.6543 32.1514 21.4316 33.2559 20.9863 34.2051C20.541 35.1543 19.9038 35.8867 19.0747 36.4023C18.2456 36.918 17.2949 37.1758 16.2227 37.1758C15.1621 37.1758 14.2158 36.9209 13.3838 36.4111C12.5518 35.9014 11.9072 35.1733 11.4502 34.2271C10.9932 33.2808 10.7617 32.1924 10.7559 30.9619V30.3291C10.7559 29.0693 10.9829 27.9605 11.437 27.0024C11.8911 26.0444 12.5327 25.3091 13.3618 24.7964C14.1909 24.2837 15.1387 24.0273 16.2051 24.0273C17.2715 24.0273 18.2192 24.2837 19.0483 24.7964C19.8774 25.3091 20.519 26.0444 20.9731 27.0024C21.4272 27.9605 21.6543 29.0664 21.6543 30.3203V30.8916ZM18.9824 30.3115C18.9824 28.9697 18.7422 27.9502 18.2617 27.2529C17.7812 26.5557 17.0957 26.207 16.2051 26.207C15.3203 26.207 14.6377 26.5513 14.1572 27.2397C13.6768 27.9282 13.4336 28.9375 13.4277 30.2676V30.8916C13.4277 32.1982 13.668 33.2119 14.1484 33.9326C14.6289 34.6533 15.3203 35.0137 16.2227 35.0137C17.1074 35.0137 17.7871 34.6665 18.2617 33.9722C18.7363 33.2778 18.9766 32.2656 18.9824 30.9355V30.3115ZM23.1383 37V24.2031H27.0758C28.2008 24.2031 29.2072 24.4565 30.0949 24.9634C30.9826 25.4702 31.6754 26.1909 32.1735 27.1255C32.6715 28.0601 32.9205 29.1221 32.9205 30.3115V30.9004C32.9205 32.0898 32.6759 33.1475 32.1867 34.0732C31.6974 34.999 31.0075 35.7168 30.1168 36.2266C29.2262 36.7363 28.2213 36.9941 27.1022 37H23.1383ZM25.775 26.3389V34.8818H27.0494C28.0807 34.8818 28.8688 34.5449 29.4137 33.8711C29.9586 33.1973 30.2369 32.2334 30.2487 30.9795V30.3027C30.2487 29.0019 29.9791 28.0161 29.4401 27.3452C28.901 26.6743 28.1129 26.3389 27.0758 26.3389H25.775ZM41.0403 33.6426C41.0403 33.1445 40.8645 32.7622 40.513 32.4956C40.1614 32.229 39.5286 31.9478 38.6145 31.6519C37.7004 31.356 36.9768 31.0645 36.4436 30.7773C34.9905 29.9922 34.2639 28.9346 34.2639 27.6045C34.2639 26.9131 34.4588 26.2964 34.8484 25.7544C35.2381 25.2124 35.7976 24.7891 36.5271 24.4844C37.2566 24.1797 38.0754 24.0273 38.9837 24.0273C39.8977 24.0273 40.7122 24.1929 41.427 24.5239C42.1419 24.855 42.697 25.3223 43.0925 25.9258C43.4881 26.5293 43.6858 27.2148 43.6858 27.9824H41.0491C41.0491 27.3965 40.8645 26.9409 40.4954 26.6157C40.1262 26.2905 39.6077 26.1279 38.9397 26.1279C38.2952 26.1279 37.7942 26.2642 37.4368 26.5366C37.0794 26.8091 36.9006 27.168 36.9006 27.6133C36.9006 28.0293 37.1101 28.3779 37.5291 28.6592C37.948 28.9404 38.5647 29.2041 39.3792 29.4502C40.8792 29.9014 41.9719 30.4609 42.6575 31.1289C43.343 31.7969 43.6858 32.6289 43.6858 33.625C43.6858 34.7324 43.2669 35.6011 42.429 36.231C41.5911 36.8608 40.4632 37.1758 39.0452 37.1758C38.0608 37.1758 37.1643 36.9956 36.3557 36.6353C35.5471 36.2749 34.9304 35.7813 34.5056 35.1543C34.0808 34.5273 33.8684 33.8008 33.8684 32.9746H36.5139C36.5139 34.3867 37.3577 35.0928 39.0452 35.0928C39.6721 35.0928 40.1614 34.9653 40.513 34.7104C40.8645 34.4556 41.0403 34.0996 41.0403 33.6426Z" fill="#99CD48"/>
<path fill-rule="evenodd" clip-rule="evenodd" d="M73.5625 57H59.375V64.125H62.875L55.8125 70.0625L48.6875 64.125H52.25V57H38V64.125H41.5625L52.25 73L41.5625 81.875H38V89H52.25V81.875H48.6875L55.8125 75.9375L62.875 81.875H59.375V89H73.5625V81.875H70L59.375 73L70 64.125H73.5625V57Z" fill="#99CD48"/>
</svg>
