<svg width="96" height="107" viewBox="0 0 96 107" fill="none" xmlns="http://www.w3.org/2000/svg">
<path d="M95.7694 106.363H14V0H70.2165L95.7694 25.3245V106.363Z" fill="#32373F"/>
<path d="M92.2753 28.0582H68V4L92.2753 28.0582Z" fill="#D1D1D1"/>
<rect y="16" width="55" height="28" rx="4" fill="black"/>
<path d="M20.6543 30.8916C20.6543 32.1514 20.4316 33.2559 19.9863 34.2051C19.541 35.1543 18.9023 35.8867 18.0703 36.4023C17.2441 36.918 16.2949 37.1758 15.2227 37.1758C14.1621 37.1758 13.2158 36.9209 12.3838 36.4111C11.5518 35.9014 10.9072 35.1748 10.4502 34.2314C9.99316 33.2822 9.76172 32.1924 9.75586 30.9619V30.3291C9.75586 29.0693 9.98145 27.9619 10.4326 27.0068C10.8896 26.0459 11.5312 25.3105 12.3574 24.8008C13.1895 24.2852 14.1387 24.0273 15.2051 24.0273C16.2715 24.0273 17.2178 24.2852 18.0439 24.8008C18.876 25.3105 19.5176 26.0459 19.9688 27.0068C20.4258 27.9619 20.6543 29.0664 20.6543 30.3203V30.8916ZM17.9824 30.3115C17.9824 28.9697 17.7422 27.9502 17.2617 27.2529C16.7812 26.5557 16.0957 26.207 15.2051 26.207C14.3203 26.207 13.6377 26.5527 13.1572 27.2441C12.6768 27.9297 12.4336 28.9375 12.4277 30.2676V30.8916C12.4277 32.1982 12.668 33.2119 13.1484 33.9326C13.6289 34.6533 14.3203 35.0137 15.2227 35.0137C16.1074 35.0137 16.7871 34.668 17.2617 33.9766C17.7363 33.2793 17.9766 32.2656 17.9824 30.9355V30.3115ZM32.2633 35.3828C31.7887 35.9512 31.1178 36.3936 30.2506 36.71C29.3834 37.0205 28.4225 37.1758 27.3678 37.1758C26.2604 37.1758 25.2877 36.9355 24.4498 36.4551C23.6178 35.9688 22.9733 35.2656 22.5162 34.3457C22.0651 33.4258 21.8336 32.3447 21.8219 31.1025V30.2324C21.8219 28.9551 22.0358 27.8506 22.4635 26.9189C22.8971 25.9814 23.5182 25.2666 24.3268 24.7744C25.1412 24.2764 26.0934 24.0273 27.1832 24.0273C28.7008 24.0273 29.8873 24.3906 30.7428 25.1172C31.5983 25.8379 32.1051 26.8896 32.2633 28.2725H29.6969C29.5797 27.54 29.319 27.0039 28.9147 26.6641C28.5162 26.3242 27.9655 26.1543 27.2623 26.1543C26.3659 26.1543 25.6832 26.4912 25.2145 27.165C24.7457 27.8389 24.5084 28.8408 24.5026 30.1709V30.9883C24.5026 32.3301 24.7575 33.3438 25.2672 34.0293C25.777 34.7148 26.5241 35.0576 27.5084 35.0576C28.4987 35.0576 29.2047 34.8467 29.6266 34.4248V32.2188H27.2272V30.2764H32.2633V35.3828ZM41.2005 34.3633H36.5774L35.6985 37H32.8948L37.6585 24.2031H40.1018L44.8919 37H42.0881L41.2005 34.3633ZM37.2893 32.2275H40.4885L38.8801 27.4375L37.2893 32.2275Z" fill="#D1D1D1"/>
<path fill-rule="evenodd" clip-rule="evenodd" d="M62.9844 65.9922V61.9844H55.0039V72.9883C54.582 72.6836 54.1191 72.4434 53.6152 72.2676C53.1113 72.0918 52.5664 72.0039 51.9805 72.0039C50.5976 72.0039 49.4199 72.4902 48.4473 73.4629C47.4746 74.4356 46.9883 75.6133 46.9883 76.9961C46.9883 78.3789 47.4746 79.5566 48.4473 80.5293C49.4199 81.502 50.5976 81.9883 51.9805 81.9883C53.3633 81.9883 54.5469 81.502 55.5312 80.5293C56.5156 79.5566 57.0078 78.3789 57.0078 76.9961V65.9922H62.9844ZM55.0039 52C57.7461 52 60.3359 52.5215 62.7734 53.5645C65.2109 54.6074 67.332 56.0371 69.1367 57.8535C70.9414 59.6699 72.3711 61.791 73.4258 64.2168C74.4805 66.6426 75.0078 69.2383 75.0078 72.0039C75.0078 74.7461 74.4805 77.3359 73.4258 79.7734C72.3711 82.2109 70.9414 84.332 69.1367 86.1367C67.332 87.9414 65.2109 89.3711 62.7734 90.4258C60.3359 91.4805 57.7461 92.0078 55.0039 92.0078C52.2383 92.0078 49.6426 91.4805 47.2168 90.4258C44.791 89.3711 42.6699 87.9414 40.8535 86.1367C39.0371 84.332 37.6074 82.2109 36.5645 79.7734C35.5215 77.3359 35 74.7461 35 72.0039C35 69.2383 35.5215 66.6426 36.5645 64.2168C37.6074 61.791 39.0371 59.6699 40.8535 57.8535C42.6699 56.0371 44.791 54.6074 47.2168 53.5645C49.6426 52.5215 52.2383 52 55.0039 52Z" fill="#D1D1D1"/>
</svg>
