<svg width="96" height="107" viewBox="0 0 96 107" fill="none" xmlns="http://www.w3.org/2000/svg">
<path d="M95.7694 106.363H14V0H70.2165L95.7694 25.3245V106.363Z" fill="#32373F"/>
<path d="M92.2753 28.0582H68V4L92.2753 28.0582Z" fill="#D1D1D1"/>
<rect y="16" width="55" height="28" rx="4" fill="black"/>
<path d="M19.6543 30.8916C19.6543 32.1514 19.4316 33.2559 18.9863 34.2051C18.541 35.1543 17.9023 35.8867 17.0703 36.4023C16.2441 36.918 15.2949 37.1758 14.2227 37.1758C13.1621 37.1758 12.2158 36.9209 11.3838 36.4111C10.5518 35.9014 9.90723 35.1748 9.4502 34.2314C8.99316 33.2822 8.76172 32.1924 8.75586 30.9619V30.3291C8.75586 29.0693 8.98145 27.9619 9.43262 27.0068C9.88965 26.0459 10.5312 25.3105 11.3574 24.8008C12.1895 24.2852 13.1387 24.0273 14.2051 24.0273C15.2715 24.0273 16.2178 24.2852 17.0439 24.8008C17.876 25.3105 18.5176 26.0459 18.9688 27.0068C19.4258 27.9619 19.6543 29.0664 19.6543 30.3203V30.8916ZM16.9824 30.3115C16.9824 28.9697 16.7422 27.9502 16.2617 27.2529C15.7812 26.5557 15.0957 26.207 14.2051 26.207C13.3203 26.207 12.6377 26.5527 12.1572 27.2441C11.6768 27.9297 11.4336 28.9375 11.4277 30.2676V30.8916C11.4277 32.1982 11.668 33.2119 12.1484 33.9326C12.6289 34.6533 13.3203 35.0137 14.2227 35.0137C15.1074 35.0137 15.7871 34.668 16.2617 33.9766C16.7363 33.2793 16.9766 32.2656 16.9824 30.9355V30.3115ZM31.2633 35.3828C30.7887 35.9512 30.1178 36.3936 29.2506 36.71C28.3834 37.0205 27.4225 37.1758 26.3678 37.1758C25.2604 37.1758 24.2877 36.9355 23.4498 36.4551C22.6178 35.9688 21.9733 35.2656 21.5162 34.3457C21.0651 33.4258 20.8336 32.3447 20.8219 31.1025V30.2324C20.8219 28.9551 21.0358 27.8506 21.4635 26.9189C21.8971 25.9814 22.5182 25.2666 23.3268 24.7744C24.1412 24.2764 25.0934 24.0273 26.1832 24.0273C27.7008 24.0273 28.8873 24.3906 29.7428 25.1172C30.5983 25.8379 31.1051 26.8896 31.2633 28.2725H28.6969C28.5797 27.54 28.319 27.0039 27.9147 26.6641C27.5162 26.3242 26.9655 26.1543 26.2623 26.1543C25.3659 26.1543 24.6832 26.4912 24.2145 27.165C23.7457 27.8389 23.5084 28.8408 23.5026 30.1709V30.9883C23.5026 32.3301 23.7575 33.3438 24.2672 34.0293C24.777 34.7148 25.5241 35.0576 26.5084 35.0576C27.4987 35.0576 28.2047 34.8467 28.6266 34.4248V32.2188H26.2272V30.2764H31.2633V35.3828ZM43.1008 35.3828C42.6262 35.9512 41.9553 36.3936 41.0881 36.71C40.221 37.0205 39.26 37.1758 38.2053 37.1758C37.0979 37.1758 36.1253 36.9355 35.2874 36.4551C34.4553 35.9688 33.8108 35.2656 33.3538 34.3457C32.9026 33.4258 32.6712 32.3447 32.6594 31.1025V30.2324C32.6594 28.9551 32.8733 27.8506 33.301 26.9189C33.7346 25.9814 34.3557 25.2666 35.1643 24.7744C35.9788 24.2764 36.9309 24.0273 38.0208 24.0273C39.5383 24.0273 40.7249 24.3906 41.5803 25.1172C42.4358 25.8379 42.9426 26.8896 43.1008 28.2725H40.5344C40.4172 27.54 40.1565 27.0039 39.7522 26.6641C39.3538 26.3242 38.803 26.1543 38.0999 26.1543C37.2034 26.1543 36.5208 26.4912 36.052 27.165C35.5833 27.8389 35.346 28.8408 35.3401 30.1709V30.9883C35.3401 32.3301 35.595 33.3438 36.1047 34.0293C36.6145 34.7148 37.3616 35.0576 38.346 35.0576C39.3362 35.0576 40.0422 34.8467 40.4641 34.4248V32.2188H38.0647V30.2764H43.1008V35.3828Z" fill="#D1D1D1"/>
<path fill-rule="evenodd" clip-rule="evenodd" d="M62.9844 65.9922V61.9844H55.0039V72.9883C54.582 72.6836 54.1191 72.4434 53.6152 72.2676C53.1113 72.0918 52.5664 72.0039 51.9805 72.0039C50.5976 72.0039 49.4199 72.4902 48.4473 73.4629C47.4746 74.4356 46.9883 75.6133 46.9883 76.9961C46.9883 78.3789 47.4746 79.5566 48.4473 80.5293C49.4199 81.502 50.5976 81.9883 51.9805 81.9883C53.3633 81.9883 54.5469 81.502 55.5312 80.5293C56.5156 79.5566 57.0078 78.3789 57.0078 76.9961V65.9922H62.9844ZM55.0039 52C57.7461 52 60.3359 52.5215 62.7734 53.5645C65.2109 54.6074 67.332 56.0371 69.1367 57.8535C70.9414 59.6699 72.3711 61.791 73.4258 64.2168C74.4805 66.6426 75.0078 69.2383 75.0078 72.0039C75.0078 74.7461 74.4805 77.3359 73.4258 79.7734C72.3711 82.2109 70.9414 84.332 69.1367 86.1367C67.332 87.9414 65.2109 89.3711 62.7734 90.4258C60.3359 91.4805 57.7461 92.0078 55.0039 92.0078C52.2383 92.0078 49.6426 91.4805 47.2168 90.4258C44.791 89.3711 42.6699 87.9414 40.8535 86.1367C39.0371 84.332 37.6074 82.2109 36.5645 79.7734C35.5215 77.3359 35 74.7461 35 72.0039C35 69.2383 35.5215 66.6426 36.5645 64.2168C37.6074 61.791 39.0371 59.6699 40.8535 57.8535C42.6699 56.0371 44.791 54.6074 47.2168 53.5645C49.6426 52.5215 52.2383 52 55.0039 52Z" fill="#D1D1D1"/>
</svg>
