<svg width="96" height="107" viewBox="0 0 96 107" fill="none" xmlns="http://www.w3.org/2000/svg">
<path d="M95.7694 106.363H14V0H70.2165L95.7694 25.3245V106.363Z" fill="#A75FD9"/>
<path d="M92.2753 28.0582H68V4L92.2753 28.0582Z" fill="#DBA7FF"/>
<rect y="16" width="55" height="28" rx="4" fill="#8950B1"/>
<path d="M21.0068 30.231C21.0068 31.4207 20.7965 32.4639 20.376 33.3604C19.9554 34.2568 19.3522 34.9486 18.5664 35.4355C17.7861 35.9225 16.8896 36.166 15.877 36.166C14.8753 36.166 13.9816 35.9253 13.1958 35.4438C12.41 34.9624 11.8013 34.2762 11.3696 33.3853C10.938 32.4888 10.7194 31.4595 10.7139 30.2974V29.6997C10.7139 28.5099 10.9269 27.464 11.353 26.562C11.7847 25.6545 12.3906 24.96 13.1709 24.4785C13.9567 23.9915 14.8532 23.748 15.8604 23.748C16.8675 23.748 17.7612 23.9915 18.5415 24.4785C19.3273 24.96 19.9333 25.6545 20.3594 26.562C20.791 27.464 21.0068 28.5072 21.0068 29.6914V30.231ZM18.4834 29.6831C18.4834 28.4159 18.2565 27.453 17.8027 26.7944C17.349 26.1359 16.7015 25.8066 15.8604 25.8066C15.0247 25.8066 14.38 26.1331 13.9263 26.7861C13.4725 27.4336 13.2428 28.3854 13.2373 29.6416V30.231C13.2373 31.465 13.4642 32.4224 13.918 33.103C14.3717 33.7837 15.0247 34.124 15.877 34.124C16.7126 34.124 17.3545 33.7975 17.8027 33.1445C18.251 32.486 18.4779 31.5286 18.4834 30.2725V29.6831ZM31.9709 34.4727C31.5227 35.0094 30.889 35.4272 30.07 35.7261C29.251 36.0194 28.3435 36.166 27.3474 36.166C26.3015 36.166 25.3829 35.9391 24.5915 35.4854C23.8057 35.026 23.197 34.362 22.7653 33.4932C22.3392 32.6243 22.1206 31.6034 22.1096 30.4302V29.6084C22.1096 28.402 22.3116 27.3589 22.7155 26.479C23.125 25.5936 23.7116 24.9185 24.4753 24.4536C25.2445 23.9832 26.1438 23.748 27.1731 23.748C28.6063 23.748 29.7269 24.0911 30.5349 24.7773C31.3428 25.458 31.8215 26.4513 31.9709 27.7573H29.5471C29.4364 27.0656 29.1901 26.5592 28.8083 26.2383C28.432 25.9173 27.9118 25.7568 27.2478 25.7568C26.4011 25.7568 25.7564 26.075 25.3137 26.7114C24.871 27.3478 24.6469 28.2941 24.6413 29.5503V30.3223C24.6413 31.5895 24.882 32.5469 25.3635 33.1943C25.8449 33.8418 26.5505 34.1655 27.4802 34.1655C28.4154 34.1655 29.0822 33.9663 29.4807 33.5679V31.4844H27.2146V29.6499H31.9709V34.4727ZM38.0541 33.0034L40.7934 23.9141H43.5658L39.3573 36H36.7592L32.5673 23.9141H35.3315L38.0541 33.0034Z" fill="#CC98F1"/>
</svg>
