<svg width="96" height="107" viewBox="0 0 96 107" fill="none" xmlns="http://www.w3.org/2000/svg">
<path d="M92.2753 28.0582H68V4L92.2753 28.0582Z" fill="#7BB6F6"/>
<rect y="16" width="55" height="28" rx="4" fill="#2C7ACD"/>
<path d="M10.1426 37V24.2031H14.0801C15.2051 24.2031 16.21 24.458 17.0947 24.9678C17.9854 25.4717 18.6797 26.1924 19.1777 27.1299C19.6758 28.0615 19.9248 29.1221 19.9248 30.3115V30.9004C19.9248 32.0898 19.6787 33.1475 19.1865 34.0732C18.7002 34.999 18.0117 35.7168 17.1211 36.2266C16.2305 36.7363 15.2256 36.9941 14.1064 37H10.1426ZM12.7793 26.3389V34.8818H14.0537C15.085 34.8818 15.873 34.5449 16.418 33.8711C16.9629 33.1973 17.2412 32.2334 17.2529 30.9795V30.3027C17.2529 29.002 16.9834 28.0176 16.4443 27.3496C15.9053 26.6758 15.1172 26.3389 14.0801 26.3389H12.7793ZM31.9293 30.8916C31.9293 32.1514 31.7067 33.2559 31.2614 34.2051C30.816 35.1543 30.1774 35.8867 29.3453 36.4023C28.5192 36.918 27.57 37.1758 26.4977 37.1758C25.4371 37.1758 24.4909 36.9209 23.6588 36.4111C22.8268 35.9014 22.1823 35.1748 21.7252 34.2314C21.2682 33.2822 21.0367 32.1924 21.0309 30.9619V30.3291C21.0309 29.0693 21.2565 27.9619 21.7076 27.0068C22.1647 26.0459 22.8063 25.3105 23.6325 24.8008C24.4645 24.2852 25.4137 24.0273 26.4801 24.0273C27.5465 24.0273 28.4928 24.2852 29.319 24.8008C30.151 25.3105 30.7926 26.0459 31.2438 27.0068C31.7008 27.9619 31.9293 29.0664 31.9293 30.3203V30.8916ZM29.2575 30.3115C29.2575 28.9697 29.0172 27.9502 28.5367 27.2529C28.0563 26.5557 27.3707 26.207 26.4801 26.207C25.5953 26.207 24.9127 26.5527 24.4323 27.2441C23.9518 27.9297 23.7086 28.9375 23.7028 30.2676V30.8916C23.7028 32.1982 23.943 33.2119 24.4235 33.9326C24.9039 34.6533 25.5953 35.0137 26.4977 35.0137C27.3825 35.0137 28.0621 34.668 28.5367 33.9766C29.0114 33.2793 29.2516 32.2656 29.2575 30.9355V30.3115ZM43.4592 32.7373C43.3596 34.1143 42.8499 35.1982 41.9299 35.9893C41.0159 36.7803 39.8089 37.1758 38.3089 37.1758C36.6682 37.1758 35.3762 36.625 34.4329 35.5234C33.4954 34.416 33.0266 32.8984 33.0266 30.9707V30.1885C33.0266 28.958 33.2434 27.874 33.677 26.9365C34.1106 25.999 34.7288 25.2812 35.5315 24.7832C36.3401 24.2793 37.2776 24.0273 38.344 24.0273C39.8206 24.0273 41.01 24.4229 41.9124 25.2139C42.8147 26.0049 43.3362 27.1152 43.4768 28.5449H40.8401C40.7756 27.7188 40.5442 27.1211 40.1458 26.752C39.7532 26.377 39.1526 26.1895 38.344 26.1895C37.4651 26.1895 36.8059 26.5059 36.3665 27.1387C35.9329 27.7656 35.7102 28.7412 35.6985 30.0654V31.0322C35.6985 32.415 35.9065 33.4258 36.3225 34.0645C36.7444 34.7031 37.4065 35.0225 38.3089 35.0225C39.1233 35.0225 39.7297 34.8379 40.1282 34.4688C40.5325 34.0938 40.7639 33.5166 40.8225 32.7373H43.4592Z" fill="#69A5F3"/>
<path fill-rule="evenodd" clip-rule="evenodd" d="M40 67.9175H41.945V85.4228H48.2664L53.1289 76.7715V85.4228H58.9638L67.7165 67.9175H69.6615V65H60.909V67.9175H62.3678L58.9638 74.6238V65H52.1564L46.3212 75.9814V67.9175H48.2664V65H40V67.9175Z" fill="#76B1F1"/>
<path d="M92.2753 28.0582H68V4L92.2753 28.0582Z" fill="#7BB6F6"/>
<rect y="16" width="55" height="28" rx="4" fill="#2C7ACD"/>
<path d="M10.1426 37V24.2031H14.0801C15.2051 24.2031 16.21 24.458 17.0947 24.9678C17.9854 25.4717 18.6797 26.1924 19.1777 27.1299C19.6758 28.0615 19.9248 29.1221 19.9248 30.3115V30.9004C19.9248 32.0898 19.6787 33.1475 19.1865 34.0732C18.7002 34.999 18.0117 35.7168 17.1211 36.2266C16.2305 36.7363 15.2256 36.9941 14.1064 37H10.1426ZM12.7793 26.3389V34.8818H14.0537C15.085 34.8818 15.873 34.5449 16.418 33.8711C16.9629 33.1973 17.2412 32.2334 17.2529 30.9795V30.3027C17.2529 29.002 16.9834 28.0176 16.4443 27.3496C15.9053 26.6758 15.1172 26.3389 14.0801 26.3389H12.7793ZM31.9293 30.8916C31.9293 32.1514 31.7067 33.2559 31.2614 34.2051C30.816 35.1543 30.1774 35.8867 29.3453 36.4023C28.5192 36.918 27.57 37.1758 26.4977 37.1758C25.4371 37.1758 24.4909 36.9209 23.6588 36.4111C22.8268 35.9014 22.1823 35.1748 21.7252 34.2314C21.2682 33.2822 21.0367 32.1924 21.0309 30.9619V30.3291C21.0309 29.0693 21.2565 27.9619 21.7076 27.0068C22.1647 26.0459 22.8063 25.3105 23.6325 24.8008C24.4645 24.2852 25.4137 24.0273 26.4801 24.0273C27.5465 24.0273 28.4928 24.2852 29.319 24.8008C30.151 25.3105 30.7926 26.0459 31.2438 27.0068C31.7008 27.9619 31.9293 29.0664 31.9293 30.3203V30.8916ZM29.2575 30.3115C29.2575 28.9697 29.0172 27.9502 28.5367 27.2529C28.0563 26.5557 27.3707 26.207 26.4801 26.207C25.5953 26.207 24.9127 26.5527 24.4323 27.2441C23.9518 27.9297 23.7086 28.9375 23.7028 30.2676V30.8916C23.7028 32.1982 23.943 33.2119 24.4235 33.9326C24.9039 34.6533 25.5953 35.0137 26.4977 35.0137C27.3825 35.0137 28.0621 34.668 28.5367 33.9766C29.0114 33.2793 29.2516 32.2656 29.2575 30.9355V30.3115ZM43.4592 32.7373C43.3596 34.1143 42.8499 35.1982 41.9299 35.9893C41.0159 36.7803 39.8089 37.1758 38.3089 37.1758C36.6682 37.1758 35.3762 36.625 34.4329 35.5234C33.4954 34.416 33.0266 32.8984 33.0266 30.9707V30.1885C33.0266 28.958 33.2434 27.874 33.677 26.9365C34.1106 25.999 34.7288 25.2812 35.5315 24.7832C36.3401 24.2793 37.2776 24.0273 38.344 24.0273C39.8206 24.0273 41.01 24.4229 41.9124 25.2139C42.8147 26.0049 43.3362 27.1152 43.4768 28.5449H40.8401C40.7756 27.7188 40.5442 27.1211 40.1458 26.752C39.7532 26.377 39.1526 26.1895 38.344 26.1895C37.4651 26.1895 36.8059 26.5059 36.3665 27.1387C35.9329 27.7656 35.7102 28.7412 35.6985 30.0654V31.0322C35.6985 32.415 35.9065 33.4258 36.3225 34.0645C36.7444 34.7031 37.4065 35.0225 38.3089 35.0225C39.1233 35.0225 39.7297 34.8379 40.1282 34.4688C40.5325 34.0938 40.7639 33.5166 40.8225 32.7373H43.4592Z" fill="#69A5F3"/>
<path fill-rule="evenodd" clip-rule="evenodd" d="M35 63.9009H37.6006V87.3071H46.0529L52.5545 75.7395V87.3071H60.3563L72.0594 63.9009H74.66V60H62.9572V63.9009H64.9077L60.3563 72.8679V60H51.2541L43.452 74.6831V63.9009H46.0529V60H35V63.9009Z" fill="white"/>
<path d="M92.2753 28.0582H68V4L92.2753 28.0582Z" fill="#7BB6F6"/>
<rect y="16" width="55" height="28" rx="4" fill="#2C7ACD"/>
<path d="M10.1426 37V24.2031H14.0801C15.2051 24.2031 16.21 24.458 17.0947 24.9678C17.9854 25.4717 18.6797 26.1924 19.1777 27.1299C19.6758 28.0615 19.9248 29.1221 19.9248 30.3115V30.9004C19.9248 32.0898 19.6787 33.1475 19.1865 34.0732C18.7002 34.999 18.0117 35.7168 17.1211 36.2266C16.2305 36.7363 15.2256 36.9941 14.1064 37H10.1426ZM12.7793 26.3389V34.8818H14.0537C15.085 34.8818 15.873 34.5449 16.418 33.8711C16.9629 33.1973 17.2412 32.2334 17.2529 30.9795V30.3027C17.2529 29.002 16.9834 28.0176 16.4443 27.3496C15.9053 26.6758 15.1172 26.3389 14.0801 26.3389H12.7793ZM31.9293 30.8916C31.9293 32.1514 31.7067 33.2559 31.2614 34.2051C30.816 35.1543 30.1774 35.8867 29.3453 36.4023C28.5192 36.918 27.57 37.1758 26.4977 37.1758C25.4371 37.1758 24.4909 36.9209 23.6588 36.4111C22.8268 35.9014 22.1823 35.1748 21.7252 34.2314C21.2682 33.2822 21.0367 32.1924 21.0309 30.9619V30.3291C21.0309 29.0693 21.2565 27.9619 21.7076 27.0068C22.1647 26.0459 22.8063 25.3105 23.6325 24.8008C24.4645 24.2852 25.4137 24.0273 26.4801 24.0273C27.5465 24.0273 28.4928 24.2852 29.319 24.8008C30.151 25.3105 30.7926 26.0459 31.2438 27.0068C31.7008 27.9619 31.9293 29.0664 31.9293 30.3203V30.8916ZM29.2575 30.3115C29.2575 28.9697 29.0172 27.9502 28.5367 27.2529C28.0563 26.5557 27.3707 26.207 26.4801 26.207C25.5953 26.207 24.9127 26.5527 24.4323 27.2441C23.9518 27.9297 23.7086 28.9375 23.7028 30.2676V30.8916C23.7028 32.1982 23.943 33.2119 24.4235 33.9326C24.9039 34.6533 25.5953 35.0137 26.4977 35.0137C27.3825 35.0137 28.0621 34.668 28.5367 33.9766C29.0114 33.2793 29.2516 32.2656 29.2575 30.9355V30.3115ZM43.4592 32.7373C43.3596 34.1143 42.8499 35.1982 41.9299 35.9893C41.0159 36.7803 39.8089 37.1758 38.3089 37.1758C36.6682 37.1758 35.3762 36.625 34.4329 35.5234C33.4954 34.416 33.0266 32.8984 33.0266 30.9707V30.1885C33.0266 28.958 33.2434 27.874 33.677 26.9365C34.1106 25.999 34.7288 25.2812 35.5315 24.7832C36.3401 24.2793 37.2776 24.0273 38.344 24.0273C39.8206 24.0273 41.01 24.4229 41.9124 25.2139C42.8147 26.0049 43.3362 27.1152 43.4768 28.5449H40.8401C40.7756 27.7188 40.5442 27.1211 40.1458 26.752C39.7532 26.377 39.1526 26.1895 38.344 26.1895C37.4651 26.1895 36.8059 26.5059 36.3665 27.1387C35.9329 27.7656 35.7102 28.7412 35.6985 30.0654V31.0322C35.6985 32.415 35.9065 33.4258 36.3225 34.0645C36.7444 34.7031 37.4065 35.0225 38.3089 35.0225C39.1233 35.0225 39.7297 34.8379 40.1282 34.4688C40.5325 34.0938 40.7639 33.5166 40.8225 32.7373H43.4592Z" fill="#69A5F3"/>
<path fill-rule="evenodd" clip-rule="evenodd" d="M40 67.9175H41.945V85.4228H48.2664L53.1289 76.7715V85.4228H58.9638L67.7165 67.9175H69.6615V65H60.909V67.9175H62.3678L58.9638 74.6238V65H52.1564L46.3212 75.9814V67.9175H48.2664V65H40V67.9175Z" fill="#76B1F1"/>
<path d="M95.7694 106.363H14V0H70.2165L95.7694 25.3245V106.363Z" fill="#EB5F5F"/>
<path d="M92.2753 28.0582H68V4L92.2753 28.0582Z" fill="#FFABAB"/>
<rect y="16" width="55" height="28" rx="4" fill="#C24949"/>
<path fill-rule="evenodd" clip-rule="evenodd" d="M21.0068 30.231C21.0068 31.4207 20.7966 32.4639 20.376 33.3604C19.9554 34.2568 19.3536 34.9486 18.5706 35.4355C17.7875 35.9225 16.8897 36.166 15.877 36.166C14.8753 36.166 13.9816 35.9253 13.1958 35.4438C12.41 34.9624 11.8013 34.2748 11.3696 33.3811C10.938 32.4874 10.7194 31.4595 10.7139 30.2974V29.6997C10.7139 28.5099 10.9283 27.4627 11.3572 26.5579C11.7861 25.6531 12.392 24.9586 13.175 24.4744C13.9581 23.9902 14.8532 23.748 15.8604 23.748C16.8675 23.748 17.7626 23.9902 18.5457 24.4744C19.3287 24.9586 19.9346 25.6531 20.3635 26.5579C20.7924 27.4627 21.0068 28.5072 21.0068 29.6914V30.231ZM18.4834 29.6831C18.4834 28.4158 18.2565 27.453 17.8027 26.7944C17.349 26.1359 16.7015 25.8066 15.8604 25.8066C15.0247 25.8066 14.38 26.1318 13.9263 26.782C13.4725 27.4322 13.2428 28.3854 13.2373 29.6416V30.231C13.2373 31.465 13.4642 32.4224 13.918 33.103C14.3717 33.7837 15.0247 34.124 15.877 34.124C16.7126 34.124 17.3545 33.7961 17.8027 33.1404C18.251 32.4846 18.4779 31.5287 18.4834 30.2725V29.6831ZM32.2125 36H29.7223L24.8746 28.0479V36H22.3844V23.9141H24.8746L29.7306 31.8828V23.9141H32.2125V36ZM41.2268 30.7622H36.4456V33.9995H42.0569V36H33.9553V23.9141H42.0403V25.9312H36.4456V28.8115H41.2268V30.7622Z" fill="#FFABAB"/>
<path fill-rule="evenodd" clip-rule="evenodd" d="M69 84.9766V76.9609H33V84.9766H69ZM81.0234 68.9453V61H33V68.9453H81.0234Z" fill="#FFABAB"/>
</svg>
