<svg width="96" height="107" viewBox="0 0 96 107" fill="none" xmlns="http://www.w3.org/2000/svg">
<path d="M95.7694 106.363H14V0H70.2165L95.7694 25.3245V106.363Z" fill="#7883A4"/>
<path d="M92.2753 28.0582H68V4L92.2753 28.0582Z" fill="#9AA6CA"/>
<rect y="16" width="55" height="28" rx="4" fill="#4B536D"/>
<path d="M22.0068 30.231C22.0068 31.4207 21.7965 32.4639 21.376 33.3604C20.9554 34.2568 20.3522 34.9486 19.5664 35.4355C18.7861 35.9225 17.8896 36.166 16.877 36.166C15.8753 36.166 14.9816 35.9253 14.1958 35.4438C13.41 34.9624 12.8013 34.2762 12.3696 33.3853C11.938 32.4888 11.7194 31.4595 11.7139 30.2974V29.6997C11.7139 28.5099 11.9269 27.464 12.353 26.562C12.7847 25.6545 13.3906 24.96 14.1709 24.4785C14.9567 23.9915 15.8532 23.748 16.8604 23.748C17.8675 23.748 18.7612 23.9915 19.5415 24.4785C20.3273 24.96 20.9333 25.6545 21.3594 26.562C21.791 27.464 22.0068 28.5072 22.0068 29.6914V30.231ZM19.4834 29.6831C19.4834 28.4159 19.2565 27.453 18.8027 26.7944C18.349 26.1359 17.7015 25.8066 16.8604 25.8066C16.0247 25.8066 15.38 26.1331 14.9263 26.7861C14.4725 27.4336 14.2428 28.3854 14.2373 29.6416V30.231C14.2373 31.465 14.4642 32.4224 14.918 33.103C15.3717 33.7837 16.0247 34.124 16.877 34.124C17.7126 34.124 18.3545 33.7975 18.8027 33.1445C19.251 32.486 19.4779 31.5286 19.4834 30.2725V29.6831ZM29.6515 32.8291C29.6515 32.3587 29.4855 31.999 29.1534 31.75C28.8214 31.4954 28.2238 31.2298 27.3605 30.9531C26.4972 30.6709 25.8138 30.3942 25.3102 30.123C23.9378 29.3815 23.2516 28.3826 23.2516 27.1265C23.2516 26.4735 23.4342 25.8924 23.7994 25.3833C24.1702 24.8687 24.6987 24.4674 25.3849 24.1797C26.0766 23.8919 26.8514 23.748 27.7091 23.748C28.5724 23.748 29.3416 23.9058 30.0167 24.2212C30.6919 24.5311 31.2148 24.971 31.5856 25.541C31.9619 26.111 32.15 26.7585 32.15 27.4834H29.6598C29.6598 26.93 29.4855 26.5011 29.1368 26.1968C28.7882 25.8869 28.2985 25.7319 27.6676 25.7319C27.0589 25.7319 26.5857 25.862 26.2482 26.1221C25.9106 26.3766 25.7418 26.7142 25.7418 27.1348C25.7418 27.5277 25.9383 27.8569 26.3312 28.1226C26.7296 28.3882 27.3134 28.6372 28.0826 28.8696C29.4993 29.2957 30.5314 29.8242 31.1788 30.4551C31.8263 31.0859 32.15 31.8717 32.15 32.8125C32.15 33.8584 31.7544 34.6802 30.963 35.2778C30.1717 35.87 29.1064 36.166 27.7672 36.166C26.8375 36.166 25.9909 35.9972 25.2272 35.6597C24.4635 35.3166 23.8797 34.849 23.4757 34.2568C23.0773 33.6647 22.8781 32.9785 22.8781 32.1982H25.3766C25.3766 33.5319 26.1735 34.1987 27.7672 34.1987C28.3593 34.1987 28.8214 34.0798 29.1534 33.8418C29.4855 33.5983 29.6515 33.2607 29.6515 32.8291ZM42.509 25.9312H38.8069V36H36.3167V25.9312H32.6643V23.9141H42.509V25.9312Z" fill="#9AA6CA"/>
<path fill-rule="evenodd" clip-rule="evenodd" d="M55.0039 83.4609L39.0078 73.4414V88.7344H71V73.4414L55.0039 83.4609ZM39.0078 68.7305L55.0039 78.75L71 68.7305L55.0039 58.7461L39.0078 68.7305ZM75.0078 68.7305V88.7344C75.0078 89.8359 74.6152 90.7793 73.8301 91.5645C73.0449 92.3496 72.1016 92.7422 71 92.7422H39.0078C37.9062 92.7422 36.9629 92.3496 36.1777 91.5645C35.3926 90.7793 35 89.8359 35 88.7344V68.7305C35 68.0039 35.1758 67.3418 35.5273 66.7441C35.8789 66.1465 36.3477 65.6719 36.9336 65.3203L55.0039 54L73.0391 65.3203C73.625 65.6719 74.0996 66.1465 74.4629 66.7441C74.8262 67.3418 75.0078 68.0039 75.0078 68.7305Z" fill="#9AA6CA"/>
</svg>
