<svg width="96" height="107" viewBox="0 0 96 107" fill="none" xmlns="http://www.w3.org/2000/svg">
<path d="M95.7694 106.363H14V0H70.2165L95.7694 25.3245V106.363Z" fill="#C61716"/>
<path d="M92.2753 28.0582H68V4L92.2753 28.0582Z" fill="#FF7F7F"/>
<rect y="16" width="55" height="28" rx="4" fill="#9F1312"/>
<path d="M14.7793 31.4912V36H12.1426V23.2031H17.1348C18.0957 23.2031 18.9395 23.3789 19.666 23.7305C20.3984 24.082 20.9609 24.583 21.3535 25.2334C21.7461 25.8779 21.9424 26.6133 21.9424 27.4395C21.9424 28.6934 21.5117 29.6836 20.6504 30.4102C19.7949 31.1309 18.6084 31.4912 17.0908 31.4912H14.7793ZM14.7793 29.3555H17.1348C17.832 29.3555 18.3623 29.1914 18.7256 28.8633C19.0947 28.5352 19.2793 28.0664 19.2793 27.457C19.2793 26.8301 19.0947 26.3232 18.7256 25.9365C18.3564 25.5498 17.8467 25.3506 17.1963 25.3389H14.7793V29.3555ZM23.3297 36V23.2031H27.2672C28.3922 23.2031 29.3971 23.458 30.2819 23.9678C31.1725 24.4717 31.8668 25.1924 32.3649 26.1299C32.8629 27.0615 33.1119 28.1221 33.1119 29.3115V29.9004C33.1119 31.0898 32.8659 32.1475 32.3737 33.0732C31.8873 33.999 31.1989 34.7168 30.3082 35.2266C29.4176 35.7363 28.4127 35.9941 27.2936 36H23.3297ZM25.9664 25.3389V33.8818H27.2409C28.2721 33.8818 29.0602 33.5449 29.6051 32.8711C30.15 32.1973 30.4284 31.2334 30.4401 29.9795V29.3027C30.4401 28.002 30.1705 27.0176 29.6315 26.3496C29.0924 25.6758 28.3043 25.3389 27.2672 25.3389H25.9664ZM42.304 30.7705H37.2415V36H34.6047V23.2031H42.9368V25.3389H37.2415V28.6436H42.304V30.7705Z" fill="#FF7F7F"/>
<path fill-rule="evenodd" clip-rule="evenodd" d="M52.7102 71.1856C53.3363 72.585 54.0544 73.8555 54.8646 74.9972C55.6748 76.1388 56.5586 77.1147 57.5161 77.9249L58.7867 78.9193C57.4241 79.1771 55.8313 79.5361 54.0084 79.9965C52.1854 80.4568 50.2796 81.0737 48.2909 81.847L47.9595 81.9575L49.5062 78.6983C50.206 77.3357 50.8228 76.0283 51.3568 74.7762C51.8908 73.5241 52.3419 72.3272 52.7102 71.1856ZM73.0388 83.1176C73.3334 82.8598 73.5544 82.556 73.7017 82.2061C73.849 81.8562 73.9227 81.4788 73.9227 81.0737C73.9963 80.7422 73.9963 80.4292 73.9227 80.1346C73.849 79.8399 73.7201 79.5822 73.536 79.3612C73.094 78.6246 72.2839 78.0722 71.1054 77.704C69.9269 77.3357 68.3618 77.1516 66.4099 77.1516L62.3221 77.3725L59.6153 75.5496C58.621 74.7394 57.6911 73.6438 56.8256 72.2627C55.9602 70.8817 55.2145 69.3074 54.5884 67.5397L54.6989 67.0977C55.2145 64.9986 55.5919 62.8442 55.8313 60.6346C56.0707 58.4249 55.6748 56.8045 54.6436 55.7734C54.3858 55.5156 54.0912 55.3222 53.7598 55.1933C53.4283 55.0644 53.0785 55 52.7102 55H51.9921C51.4028 55 50.8688 55.2578 50.3901 55.7734C49.9113 56.289 49.6167 56.8414 49.5062 57.4306C48.917 59.5298 48.7329 61.2882 48.9538 62.7061C49.1748 64.1239 49.5799 65.7904 50.1691 67.7054V67.7606C49.8008 69.1232 49.3405 70.5871 48.7881 72.1523C48.2357 73.7174 47.5728 75.3102 46.7994 76.9306L43.7612 82.6204L40.9439 84.1671C39.0657 85.3456 37.6571 86.5425 36.718 87.7578C35.7789 88.9731 35.2357 89.9858 35.0884 90.796C35.0147 91.0907 34.9871 91.3761 35.0055 91.6523C35.0239 91.9285 35.0884 92.2139 35.1989 92.5085L35.3093 92.6742L36.8008 93.6133L38.1819 94C39.4708 94 40.861 93.2266 42.3525 91.6799C43.8441 90.1331 45.5657 87.6842 47.5176 84.3329L48.1252 84.1119C49.7456 83.5963 51.587 83.1544 53.6493 82.7861C55.7116 82.4178 58.087 82.068 60.7754 81.7365C62.3958 82.5467 64.0714 83.1452 65.8023 83.5319C67.5332 83.9186 69.0062 84.1119 70.2215 84.1119C70.8844 84.1119 71.4552 84.029 71.934 83.8633C72.4128 83.6976 72.781 83.449 73.0388 83.1176ZM71.7683 80.9079L72.0445 81.2394C72.0445 81.4235 72.0169 81.534 71.9616 81.5708C71.9064 81.6076 71.8419 81.6445 71.7683 81.6813H71.6578L71.0501 81.7365C70.3136 81.7365 69.4205 81.5892 68.371 81.2946C67.3214 81 66.2258 80.6133 65.0841 80.1346C65.2314 79.9873 65.3511 79.8952 65.4432 79.8584C65.5353 79.8215 65.655 79.8031 65.8023 79.8031C68.0119 79.8031 69.5218 79.9504 70.332 80.245C71.1422 80.5397 71.621 80.7606 71.7683 80.9079ZM42.9326 85.4929C41.9382 87.3711 40.9807 88.8258 40.0601 89.8569C39.1394 90.8881 38.3292 91.5326 37.6295 91.7904C37.7031 91.2011 38.0806 90.4186 38.7619 89.4426C39.4432 88.4667 40.3363 87.4816 41.4411 86.4873L42.9326 85.4929ZM52.434 63.7833C52.0657 62.3838 51.8724 61.1225 51.854 59.9993C51.8356 58.8761 51.9552 57.983 52.213 57.3201L52.434 56.9887L52.9312 57.0992C53.189 57.5043 53.3363 57.9738 53.3731 58.5078C53.4099 59.0418 53.3547 59.7323 53.2074 60.5793L53.0969 61.0765L52.5997 63.6728L52.434 63.7833Z" fill="#FF7F7F"/>
</svg>
