<svg width="96" height="107" viewBox="0 0 96 107" fill="none" xmlns="http://www.w3.org/2000/svg">
<path d="M95.7694 106.363H14V0H70.2165L95.7694 25.3245V106.363Z" fill="#11907C"/>
<path d="M92.2753 28.0582H68V4L92.2753 28.0582Z" fill="#37D2BA"/>
<rect y="16" width="55" height="28" rx="4" fill="#0D6254"/>
<path fill-rule="evenodd" clip-rule="evenodd" d="M13.5693 31.7417V36H11.0791V23.9141H15.7939C16.7015 23.9141 17.4998 24.0801 18.1887 24.4121C18.8777 24.7441 19.4076 25.2159 19.7783 25.8274C20.1491 26.4389 20.3345 27.1348 20.3345 27.915C20.3345 29.0993 19.9291 30.0331 19.1184 30.7166C18.3077 31.4 17.1857 31.7417 15.7524 31.7417H13.5693ZM13.5693 29.7246H15.7939C16.4525 29.7246 16.9547 29.5697 17.3005 29.2598C17.6464 28.9499 17.8193 28.5072 17.8193 27.9316C17.8193 27.3395 17.645 26.8608 17.2964 26.4956C16.9478 26.1304 16.4663 25.9422 15.8521 25.9312H13.5693V29.7246ZM31.4489 36H28.9586V30.8203H24.1027V36H21.6124V23.9141H24.1027V28.8115H28.9586V23.9141H31.4489V36ZM35.6819 31.7417V36H33.1917V23.9141H37.9065C38.8141 23.9141 39.6123 24.0801 40.3013 24.4121C40.9903 24.7441 41.5201 25.2159 41.8909 25.8274C42.2617 26.4389 42.447 27.1348 42.447 27.915C42.447 29.0993 42.0417 30.0331 41.231 30.7166C40.4203 31.4 39.2983 31.7417 37.865 31.7417H35.6819ZM35.6819 29.7246H37.9065C38.565 29.7246 39.0672 29.5697 39.4131 29.2598C39.759 28.9499 39.9319 28.5072 39.9319 27.9316C39.9319 27.3395 39.7576 26.8608 39.4089 26.4956C39.0603 26.1304 38.5789 25.9422 37.9646 25.9312H35.6819V29.7246Z" fill="#37D2BA"/>
<path fill-rule="evenodd" clip-rule="evenodd" d="M33 71.9766L47.9766 86.9531L53.6719 81.2578L44.3203 71.9766L53.6719 62.625L47.9766 57L33 71.9766ZM77.6484 71.9766L62.6719 57L56.9766 62.625L66.3281 71.9766L56.9766 81.2578L62.6719 86.9531L77.6484 71.9766Z" fill="#37D2BA"/>
</svg>
