<svg width="96" height="107" viewBox="0 0 96 107" fill="none" xmlns="http://www.w3.org/2000/svg">
<path d="M95.7694 106.363H14V0H70.2165L95.7694 25.3245V106.363Z" fill="#CBA610"/>
<path d="M92.2753 28.0582H68V4L92.2753 28.0582Z" fill="#F3CE38"/>
<rect y="16" width="55" height="28" rx="4" fill="#AF8F0E"/>
<path d="M12.7793 32.4912V37H10.1426V24.2031H15.1348C16.0957 24.2031 16.9395 24.3789 17.666 24.7305C18.3984 25.082 18.9609 25.583 19.3535 26.2334C19.7461 26.8779 19.9424 27.6133 19.9424 28.4395C19.9424 29.6934 19.5117 30.6836 18.6504 31.4102C17.7949 32.1309 16.6084 32.4912 15.0908 32.4912H12.7793ZM12.7793 30.3555H15.1348C15.832 30.3555 16.3623 30.1914 16.7256 29.8633C17.0947 29.5352 17.2793 29.0664 17.2793 28.457C17.2793 27.8301 17.0947 27.3232 16.7256 26.9365C16.3564 26.5498 15.8467 26.3506 15.1963 26.3389H12.7793V30.3555ZM31.736 37H29.0992L23.9664 28.5801V37H21.3297V24.2031H23.9664L29.108 32.6406V24.2031H31.736V37ZM43.7317 35.3828C43.2571 35.9512 42.5862 36.3936 41.719 36.71C40.8518 37.0205 39.8909 37.1758 38.8362 37.1758C37.7288 37.1758 36.7561 36.9355 35.9182 36.4551C35.0862 35.9688 34.4417 35.2656 33.9846 34.3457C33.5335 33.4258 33.302 32.3447 33.2903 31.1025V30.2324C33.2903 28.9551 33.5042 27.8506 33.9319 26.9189C34.3655 25.9814 34.9866 25.2666 35.7952 24.7744C36.6096 24.2764 37.5618 24.0273 38.6516 24.0273C40.1692 24.0273 41.3557 24.3906 42.2112 25.1172C43.0667 25.8379 43.5735 26.8896 43.7317 28.2725H41.1653C41.0481 27.54 40.7874 27.0039 40.3831 26.6641C39.9846 26.3242 39.4339 26.1543 38.7307 26.1543C37.8342 26.1543 37.1516 26.4912 36.6829 27.165C36.2141 27.8389 35.9768 28.8408 35.971 30.1709V30.9883C35.971 32.3301 36.2258 33.3438 36.7356 34.0293C37.2454 34.7148 37.9924 35.0576 38.9768 35.0576C39.9671 35.0576 40.6731 34.8467 41.095 34.4248V32.2188H38.6956V30.2764H43.7317V35.3828Z" fill="#F3CE38"/>
<path fill-rule="evenodd" clip-rule="evenodd" d="M48.0039 76.9883L40.9727 85.9883H68.9922L59.9922 74L52.9961 83L48.0039 76.9883ZM73 87.9922C73 89.0938 72.6074 90.0371 71.8223 90.8223C71.0371 91.6074 70.0938 92 68.9922 92H40.9727C39.8945 92 38.9629 91.6074 38.1777 90.8223C37.3926 90.0371 37 89.0938 37 87.9922V59.9727C37 58.8945 37.3926 57.9629 38.1777 57.1777C38.9629 56.3926 39.8945 56 40.9727 56H68.9922C70.0938 56 71.0371 56.3867 71.8223 57.1602C72.6074 57.9336 73 58.8711 73 59.9727V87.9922Z" fill="#F3CE38"/>
</svg>
