<svg width="96" height="107" viewBox="0 0 96 107" fill="none" xmlns="http://www.w3.org/2000/svg">
<path d="M95.7694 106.363H14V0H70.2165L95.7694 25.3245V106.363Z" fill="#E6541D"/>
<path d="M92.2753 28.0582H68V4L92.2753 28.0582Z" fill="#FFA684"/>
<rect y="16" width="55" height="28" rx="4" fill="#BA3C0D"/>
<path d="M12.7793 32.4912V37H10.1426V24.2031H15.1348C16.0957 24.2031 16.9395 24.3789 17.666 24.7305C18.3984 25.082 18.9609 25.583 19.3535 26.2334C19.7461 26.8779 19.9424 27.6133 19.9424 28.4395C19.9424 29.6934 19.5117 30.6836 18.6504 31.4102C17.7949 32.1309 16.6084 32.4912 15.0908 32.4912H12.7793ZM12.7793 30.3555H15.1348C15.832 30.3555 16.3623 30.1914 16.7256 29.8633C17.0947 29.5352 17.2793 29.0664 17.2793 28.457C17.2793 27.8301 17.0947 27.3232 16.7256 26.9365C16.3564 26.5498 15.8467 26.3506 15.1963 26.3389H12.7793V30.3555ZM31.8414 30.8916C31.8414 32.1514 31.6188 33.2559 31.1735 34.2051C30.7282 35.1543 30.0895 35.8867 29.2575 36.4023C28.4313 36.918 27.4821 37.1758 26.4098 37.1758C25.3492 37.1758 24.403 36.9209 23.5709 36.4111C22.7389 35.9014 22.0944 35.1748 21.6373 34.2314C21.1803 33.2822 20.9489 32.1924 20.943 30.9619V30.3291C20.943 29.0693 21.1686 27.9619 21.6198 27.0068C22.0768 26.0459 22.7184 25.3105 23.5446 24.8008C24.3766 24.2852 25.3258 24.0273 26.3922 24.0273C27.4586 24.0273 28.4049 24.2852 29.2311 24.8008C30.0631 25.3105 30.7047 26.0459 31.1559 27.0068C31.6129 27.9619 31.8414 29.0664 31.8414 30.3203V30.8916ZM29.1696 30.3115C29.1696 28.9697 28.9293 27.9502 28.4489 27.2529C27.9684 26.5557 27.2828 26.207 26.3922 26.207C25.5075 26.207 24.8248 26.5527 24.3444 27.2441C23.8639 27.9297 23.6207 28.9375 23.6149 30.2676V30.8916C23.6149 32.1982 23.8551 33.2119 24.3356 33.9326C24.816 34.6533 25.5075 35.0137 26.4098 35.0137C27.2946 35.0137 27.9742 34.668 28.4489 33.9766C28.9235 33.2793 29.1637 32.2656 29.1696 30.9355V30.3115ZM42.2024 26.3389H38.2825V37H35.6458V26.3389H31.7786V24.2031H42.2024V26.3389Z" fill="#FFA684"/>
<path fill-rule="evenodd" clip-rule="evenodd" d="M73 69.9961H57.0039V54C59.207 54 61.2812 54.416 63.2266 55.248C65.1719 56.0801 66.8652 57.2226 68.3066 58.6758C69.7481 60.1289 70.8906 61.8223 71.7344 63.7559C72.5781 65.6895 73 67.7695 73 69.9961ZM68.9922 74.0039C68.9922 75.3867 68.8223 76.7226 68.4824 78.0117C68.1426 79.3008 67.6621 80.5195 67.041 81.668C66.4199 82.8164 65.6699 83.8652 64.791 84.8145C63.9121 85.7637 62.9336 86.6016 61.8555 87.3281L54.1562 74.0039H68.9922ZM52.9961 90C51.5898 90 50.2422 89.8301 48.9531 89.4902C47.6641 89.1504 46.4512 88.6641 45.3145 88.0312C44.1777 87.3984 43.1289 86.6426 42.168 85.7637C41.207 84.8848 40.3633 83.918 39.6367 82.8633L52.6445 75.3398L60.0977 88.3125C59.043 88.8516 57.9121 89.2676 56.7051 89.5605C55.498 89.8535 54.2617 90 52.9961 90ZM37 74.0039C37 71.7773 37.416 69.6914 38.248 67.7461C39.0801 65.8008 40.2226 64.1074 41.6758 62.666C43.1289 61.2246 44.8223 60.082 46.7559 59.2383C48.6895 58.3945 50.7695 57.9727 52.9961 57.9727V72.8438L38.6523 81.1055C38.1133 80.0508 37.7031 78.9199 37.4219 77.7129C37.1406 76.5059 37 75.2695 37 74.0039Z" fill="#FFA684"/>
</svg>
