<svg width="96" height="107" viewBox="0 0 96 107" fill="none" xmlns="http://www.w3.org/2000/svg">
<path d="M95.7694 106.363H14V0H70.2165L95.7694 25.3245V106.363Z" fill="#E6541D"/>
<path d="M92.2753 28.0582H68V4L92.2753 28.0582Z" fill="#FFA684"/>
<rect y="16" width="55" height="28" rx="4" fill="#BA3C0D"/>
<path d="M9.56934 32.7417V37H7.0791V24.9141H11.7939C12.7015 24.9141 13.4984 25.0801 14.1846 25.4121C14.8763 25.7441 15.4076 26.2173 15.7783 26.8315C16.1491 27.4403 16.3345 28.1348 16.3345 28.915C16.3345 30.0993 15.9277 31.0345 15.1143 31.7207C14.3063 32.4014 13.1857 32.7417 11.7524 32.7417H9.56934ZM9.56934 30.7246H11.7939C12.4525 30.7246 12.9533 30.5697 13.2964 30.2598C13.645 29.9499 13.8193 29.5072 13.8193 28.9316C13.8193 28.3395 13.645 27.8608 13.2964 27.4956C12.9478 27.1304 12.4663 26.9422 11.8521 26.9312H9.56934V30.7246ZM27.5725 31.231C27.5725 32.4207 27.3622 33.4639 26.9416 34.3604C26.521 35.2568 25.9178 35.9486 25.132 36.4355C24.3518 36.9225 23.4553 37.166 22.4426 37.166C21.441 37.166 20.5472 36.9253 19.7614 36.4438C18.9756 35.9624 18.3669 35.2762 17.9353 34.3853C17.5036 33.4888 17.285 32.4595 17.2795 31.2974V30.6997C17.2795 29.5099 17.4926 28.464 17.9187 27.562C18.3503 26.6545 18.9563 25.96 19.7365 25.4785C20.5223 24.9915 21.4188 24.748 22.426 24.748C23.4331 24.748 24.3269 24.9915 25.1071 25.4785C25.8929 25.96 26.4989 26.6545 26.925 27.562C27.3566 28.464 27.5725 29.5072 27.5725 30.6914V31.231ZM25.049 30.6831C25.049 29.4159 24.8221 28.453 24.3684 27.7944C23.9146 27.1359 23.2671 26.8066 22.426 26.8066C21.5904 26.8066 20.9457 27.1331 20.4919 27.7861C20.0381 28.4336 19.8085 29.3854 19.8029 30.6416V31.231C19.8029 32.465 20.0298 33.4224 20.4836 34.103C20.9374 34.7837 21.5904 35.124 22.4426 35.124C23.2782 35.124 23.9201 34.7975 24.3684 34.1445C24.8166 33.486 25.0435 32.5286 25.049 31.2725V30.6831ZM37.3578 26.9312H33.6557V37H31.1654V26.9312H27.5131V24.9141H37.3578V26.9312ZM48.214 37H45.7238V31.8203H40.8678V37H38.3776V24.9141H40.8678V29.8115H45.7238V24.9141H48.214V37Z" fill="#FFA684"/>
<path fill-rule="evenodd" clip-rule="evenodd" d="M73 69.9961H57.0039V54C59.207 54 61.2812 54.416 63.2266 55.248C65.1719 56.0801 66.8652 57.2226 68.3066 58.6758C69.7481 60.1289 70.8906 61.8223 71.7344 63.7559C72.5781 65.6895 73 67.7695 73 69.9961ZM68.9922 74.0039C68.9922 75.3867 68.8223 76.7226 68.4824 78.0117C68.1426 79.3008 67.6621 80.5195 67.041 81.668C66.4199 82.8164 65.6699 83.8652 64.791 84.8145C63.9121 85.7637 62.9336 86.6016 61.8555 87.3281L54.1562 74.0039H68.9922ZM52.9961 90C51.5898 90 50.2422 89.8301 48.9531 89.4902C47.6641 89.1504 46.4512 88.6641 45.3145 88.0312C44.1777 87.3984 43.1289 86.6426 42.168 85.7637C41.207 84.8848 40.3633 83.918 39.6367 82.8633L52.6445 75.3398L60.0977 88.3125C59.043 88.8516 57.9121 89.2676 56.7051 89.5605C55.498 89.8535 54.2617 90 52.9961 90ZM37 74.0039C37 71.7773 37.416 69.6914 38.248 67.7461C39.0801 65.8008 40.2226 64.1074 41.6758 62.666C43.1289 61.2246 44.8223 60.082 46.7559 59.2383C48.6895 58.3945 50.7695 57.9727 52.9961 57.9727V72.8438L38.6523 81.1055C38.1133 80.0508 37.7031 78.9199 37.4219 77.7129C37.1406 76.5059 37 75.2695 37 74.0039Z" fill="#FFA684"/>
</svg>
