<svg width="96" height="107" viewBox="0 0 96 107" fill="none" xmlns="http://www.w3.org/2000/svg">
<path d="M95.7694 106.363H14V0H70.2165L95.7694 25.3245V106.363Z" fill="#E6541D"/>
<path d="M92.2753 28.0582H68V4L92.2753 28.0582Z" fill="#FFA684"/>
<rect y="16" width="55" height="28" rx="4" fill="#BA3C0D"/>
<path d="M7.56934 32.7417V37H5.0791V24.9141H9.79395C10.7015 24.9141 11.4984 25.0801 12.1846 25.4121C12.8763 25.7441 13.4076 26.2173 13.7783 26.8315C14.1491 27.4403 14.3345 28.1348 14.3345 28.915C14.3345 30.0993 13.9277 31.0345 13.1143 31.7207C12.3063 32.4014 11.1857 32.7417 9.75244 32.7417H7.56934ZM7.56934 30.7246H9.79395C10.4525 30.7246 10.9533 30.5697 11.2964 30.2598C11.645 29.9499 11.8193 29.5072 11.8193 28.9316C11.8193 28.3395 11.645 27.8608 11.2964 27.4956C10.9478 27.1304 10.4663 26.9422 9.85205 26.9312H7.56934V30.7246ZM25.5725 31.231C25.5725 32.4207 25.3622 33.4639 24.9416 34.3604C24.521 35.2568 23.9178 35.9486 23.132 36.4355C22.3518 36.9225 21.4553 37.166 20.4426 37.166C19.441 37.166 18.5472 36.9253 17.7614 36.4438C16.9756 35.9624 16.3669 35.2762 15.9353 34.3853C15.5036 33.4888 15.285 32.4595 15.2795 31.2974V30.6997C15.2795 29.5099 15.4926 28.464 15.9187 27.562C16.3503 26.6545 16.9563 25.96 17.7365 25.4785C18.5223 24.9915 19.4188 24.748 20.426 24.748C21.4331 24.748 22.3269 24.9915 23.1071 25.4785C23.8929 25.96 24.4989 26.6545 24.925 27.562C25.3566 28.464 25.5725 29.5072 25.5725 30.6914V31.231ZM23.049 30.6831C23.049 29.4159 22.8221 28.453 22.3684 27.7944C21.9146 27.1359 21.2671 26.8066 20.426 26.8066C19.5904 26.8066 18.9457 27.1331 18.4919 27.7861C18.0381 28.4336 17.8085 29.3854 17.8029 30.6416V31.231C17.8029 32.465 18.0298 33.4224 18.4836 34.103C18.9374 34.7837 19.5904 35.124 20.4426 35.124C21.2782 35.124 21.9201 34.7975 22.3684 34.1445C22.8166 33.486 23.0435 32.5286 23.049 31.2725V30.6831ZM35.3578 26.9312H31.6557V37H29.1654V26.9312H25.5131V24.9141H35.3578V26.9312ZM39.6315 24.9141L42.736 33.6797L45.8239 24.9141H49.0944V37H46.5958V33.6963L46.8448 27.9937L43.5826 37H41.8727L38.6188 28.002L38.8678 33.6963V37H36.3776V24.9141H39.6315Z" fill="#FFA684"/>
<path fill-rule="evenodd" clip-rule="evenodd" d="M73 69.9961H57.0039V54C59.207 54 61.2812 54.416 63.2266 55.248C65.1719 56.0801 66.8652 57.2226 68.3066 58.6758C69.7481 60.1289 70.8906 61.8223 71.7344 63.7559C72.5781 65.6895 73 67.7695 73 69.9961ZM68.9922 74.0039C68.9922 75.3867 68.8223 76.7226 68.4824 78.0117C68.1426 79.3008 67.6621 80.5195 67.041 81.668C66.4199 82.8164 65.6699 83.8652 64.791 84.8145C63.9121 85.7637 62.9336 86.6016 61.8555 87.3281L54.1562 74.0039H68.9922ZM52.9961 90C51.5898 90 50.2422 89.8301 48.9531 89.4902C47.6641 89.1504 46.4512 88.6641 45.3145 88.0312C44.1777 87.3984 43.1289 86.6426 42.168 85.7637C41.207 84.8848 40.3633 83.918 39.6367 82.8633L52.6445 75.3398L60.0977 88.3125C59.043 88.8516 57.9121 89.2676 56.7051 89.5605C55.498 89.8535 54.2617 90 52.9961 90ZM37 74.0039C37 71.7773 37.416 69.6914 38.248 67.7461C39.0801 65.8008 40.2226 64.1074 41.6758 62.666C43.1289 61.2246 44.8223 60.082 46.7559 59.2383C48.6895 58.3945 50.7695 57.9727 52.9961 57.9727V72.8438L38.6523 81.1055C38.1133 80.0508 37.7031 78.9199 37.4219 77.7129C37.1406 76.5059 37 75.2695 37 74.0039Z" fill="#FFA684"/>
</svg>
