<svg width="96" height="107" viewBox="0 0 96 107" fill="none" xmlns="http://www.w3.org/2000/svg">
<path d="M95.7694 106.363H14V0H70.2165L95.7694 25.3245V106.363Z" fill="#E6541D"/>
<path d="M92.2753 28.0582H68V4L92.2753 28.0582Z" fill="#FFA684"/>
<rect y="16" width="55" height="28" rx="4" fill="#BA3C0D"/>
<path d="M14.5693 32.7417V37H12.0791V24.9141H16.7939C17.7015 24.9141 18.4984 25.0801 19.1846 25.4121C19.8763 25.7441 20.4076 26.2173 20.7783 26.8315C21.1491 27.4403 21.3345 28.1348 21.3345 28.915C21.3345 30.0993 20.9277 31.0345 20.1143 31.7207C19.3063 32.4014 18.1857 32.7417 16.7524 32.7417H14.5693ZM14.5693 30.7246H16.7939C17.4525 30.7246 17.9533 30.5697 18.2964 30.2598C18.645 29.9499 18.8193 29.5072 18.8193 28.9316C18.8193 28.3395 18.645 27.8608 18.2964 27.4956C17.9478 27.1304 17.4663 26.9422 16.8521 26.9312H14.5693V30.7246ZM25.135 32.7417V37H22.6447V24.9141H27.3596C28.2671 24.9141 29.064 25.0801 29.7502 25.4121C30.4419 25.7441 30.9732 26.2173 31.344 26.8315C31.7147 27.4403 31.9001 28.1348 31.9001 28.915C31.9001 30.0993 31.4934 31.0345 30.6799 31.7207C29.8719 32.4014 28.7513 32.7417 27.3181 32.7417H25.135ZM25.135 30.7246H27.3596C28.0181 30.7246 28.5189 30.5697 28.862 30.2598C29.2107 29.9499 29.385 29.5072 29.385 28.9316C29.385 28.3395 29.2107 27.8608 28.862 27.4956C28.5134 27.1304 28.0319 26.9422 27.4177 26.9312H25.135V30.7246ZM39.4775 33.8291C39.4775 33.3587 39.3114 32.999 38.9794 32.75C38.6474 32.4954 38.0497 32.2298 37.1864 31.9531C36.3232 31.6709 35.6397 31.3942 35.1361 31.123C33.7638 30.3815 33.0776 29.3826 33.0776 28.1265C33.0776 27.4735 33.2602 26.8924 33.6254 26.3833C33.9962 25.8687 34.5247 25.4674 35.2109 25.1797C35.9026 24.8919 36.6773 24.748 37.5351 24.748C38.3984 24.748 39.1676 24.9058 39.8427 25.2212C40.5178 25.5311 41.0408 25.971 41.4115 26.541C41.7878 27.111 41.976 27.7585 41.976 28.4834H39.4858C39.4858 27.93 39.3114 27.5011 38.9628 27.1968C38.6142 26.8869 38.1244 26.7319 37.4936 26.7319C36.8848 26.7319 36.4117 26.862 36.0741 27.1221C35.7366 27.3766 35.5678 27.7142 35.5678 28.1348C35.5678 28.5277 35.7642 28.8569 36.1571 29.1226C36.5556 29.3882 37.1394 29.6372 37.9086 29.8696C39.3253 30.2957 40.3573 30.8242 41.0048 31.4551C41.6523 32.0859 41.976 32.8717 41.976 33.8125C41.976 34.8584 41.5803 35.6802 40.789 36.2778C39.9976 36.87 38.9324 37.166 37.5932 37.166C36.6635 37.166 35.8168 36.9972 35.0531 36.6597C34.2895 36.3166 33.7056 35.849 33.3017 35.2568C32.9032 34.6647 32.704 33.9785 32.704 33.1982H35.2026C35.2026 34.5319 35.9994 35.1987 37.5932 35.1987C38.1853 35.1987 38.6474 35.0798 38.9794 34.8418C39.3114 34.5983 39.4775 34.2607 39.4775 33.8291Z" fill="#FFA684"/>
<path fill-rule="evenodd" clip-rule="evenodd" d="M73 69.9961H57.0039V54C59.207 54 61.2812 54.416 63.2266 55.248C65.1719 56.0801 66.8652 57.2226 68.3066 58.6758C69.7481 60.1289 70.8906 61.8223 71.7344 63.7559C72.5781 65.6895 73 67.7695 73 69.9961ZM68.9922 74.0039C68.9922 75.3867 68.8223 76.7226 68.4824 78.0117C68.1426 79.3008 67.6621 80.5195 67.041 81.668C66.4199 82.8164 65.6699 83.8652 64.791 84.8145C63.9121 85.7637 62.9336 86.6016 61.8555 87.3281L54.1562 74.0039H68.9922ZM52.9961 90C51.5898 90 50.2422 89.8301 48.9531 89.4902C47.6641 89.1504 46.4512 88.6641 45.3145 88.0312C44.1777 87.3984 43.1289 86.6426 42.168 85.7637C41.207 84.8848 40.3633 83.918 39.6367 82.8633L52.6445 75.3398L60.0977 88.3125C59.043 88.8516 57.9121 89.2676 56.7051 89.5605C55.498 89.8535 54.2617 90 52.9961 90ZM37 74.0039C37 71.7773 37.416 69.6914 38.248 67.7461C39.0801 65.8008 40.2226 64.1074 41.6758 62.666C43.1289 61.2246 44.8223 60.082 46.7559 59.2383C48.6895 58.3945 50.7695 57.9727 52.9961 57.9727V72.8438L38.6523 81.1055C38.1133 80.0508 37.7031 78.9199 37.4219 77.7129C37.1406 76.5059 37 75.2695 37 74.0039Z" fill="#FFA684"/>
</svg>
