<svg width="96" height="107" viewBox="0 0 96 107" fill="none" xmlns="http://www.w3.org/2000/svg">
<path d="M95.7694 106.363H14V0H70.2165L95.7694 25.3245V106.363Z" fill="#E6541D"/>
<path d="M92.2753 28.0582H68V4L92.2753 28.0582Z" fill="#FFA684"/>
<rect y="16" width="55" height="28" rx="4" fill="#BA3C0D"/>
<path d="M9.56934 32.7417V37H7.0791V24.9141H11.7939C12.7015 24.9141 13.4984 25.0801 14.1846 25.4121C14.8763 25.7441 15.4076 26.2173 15.7783 26.8315C16.1491 27.4403 16.3345 28.1348 16.3345 28.915C16.3345 30.0993 15.9277 31.0345 15.1143 31.7207C14.3063 32.4014 13.1857 32.7417 11.7524 32.7417H9.56934ZM9.56934 30.7246H11.7939C12.4525 30.7246 12.9533 30.5697 13.2964 30.2598C13.645 29.9499 13.8193 29.5072 13.8193 28.9316C13.8193 28.3395 13.645 27.8608 13.2964 27.4956C12.9478 27.1304 12.4663 26.9422 11.8521 26.9312H9.56934V30.7246ZM20.135 32.7417V37H17.6447V24.9141H22.3596C23.2671 24.9141 24.064 25.0801 24.7502 25.4121C25.4419 25.7441 25.9732 26.2173 26.344 26.8315C26.7147 27.4403 26.9001 28.1348 26.9001 28.915C26.9001 30.0993 26.4934 31.0345 25.6799 31.7207C24.8719 32.4014 23.7513 32.7417 22.3181 32.7417H20.135ZM20.135 30.7246H22.3596C23.0181 30.7246 23.5189 30.5697 23.862 30.2598C24.2107 29.9499 24.385 29.5072 24.385 28.9316C24.385 28.3395 24.2107 27.8608 23.862 27.4956C23.5134 27.1304 23.0319 26.9422 22.4177 26.9312H20.135V30.7246ZM34.4775 33.8291C34.4775 33.3587 34.3114 32.999 33.9794 32.75C33.6474 32.4954 33.0497 32.2298 32.1864 31.9531C31.3232 31.6709 30.6397 31.3942 30.1361 31.123C28.7638 30.3815 28.0776 29.3826 28.0776 28.1265C28.0776 27.4735 28.2602 26.8924 28.6254 26.3833C28.9962 25.8687 29.5247 25.4674 30.2109 25.1797C30.9026 24.8919 31.6773 24.748 32.5351 24.748C33.3984 24.748 34.1676 24.9058 34.8427 25.2212C35.5178 25.5311 36.0408 25.971 36.4115 26.541C36.7878 27.111 36.976 27.7585 36.976 28.4834H34.4858C34.4858 27.93 34.3114 27.5011 33.9628 27.1968C33.6142 26.8869 33.1244 26.7319 32.4936 26.7319C31.8848 26.7319 31.4117 26.862 31.0741 27.1221C30.7366 27.3766 30.5678 27.7142 30.5678 28.1348C30.5678 28.5277 30.7642 28.8569 31.1571 29.1226C31.5556 29.3882 32.1394 29.6372 32.9086 29.8696C34.3253 30.2957 35.3573 30.8242 36.0048 31.4551C36.6523 32.0859 36.976 32.8717 36.976 33.8125C36.976 34.8584 36.5803 35.6802 35.789 36.2778C34.9976 36.87 33.9324 37.166 32.5932 37.166C31.6635 37.166 30.8168 36.9972 30.0531 36.6597C29.2895 36.3166 28.7056 35.849 28.3017 35.2568C27.9032 34.6647 27.704 33.9785 27.704 33.1982H30.2026C30.2026 34.5319 30.9994 35.1987 32.5932 35.1987C33.1853 35.1987 33.6474 35.0798 33.9794 34.8418C34.3114 34.5983 34.4775 34.2607 34.4775 33.8291ZM42.5861 29.0811L44.8522 24.9141H47.7159L44.1964 30.9072L47.8072 37H44.9103L42.5861 32.7666L40.2618 37H37.3649L40.9757 30.9072L37.4562 24.9141H40.3199L42.5861 29.0811Z" fill="#FFA684"/>
<path fill-rule="evenodd" clip-rule="evenodd" d="M73 69.9961H57.0039V54C59.207 54 61.2812 54.416 63.2266 55.248C65.1719 56.0801 66.8652 57.2226 68.3066 58.6758C69.7481 60.1289 70.8906 61.8223 71.7344 63.7559C72.5781 65.6895 73 67.7695 73 69.9961ZM68.9922 74.0039C68.9922 75.3867 68.8223 76.7226 68.4824 78.0117C68.1426 79.3008 67.6621 80.5195 67.041 81.668C66.4199 82.8164 65.6699 83.8652 64.791 84.8145C63.9121 85.7637 62.9336 86.6016 61.8555 87.3281L54.1562 74.0039H68.9922ZM52.9961 90C51.5898 90 50.2422 89.8301 48.9531 89.4902C47.6641 89.1504 46.4512 88.6641 45.3145 88.0312C44.1777 87.3984 43.1289 86.6426 42.168 85.7637C41.207 84.8848 40.3633 83.918 39.6367 82.8633L52.6445 75.3398L60.0977 88.3125C59.043 88.8516 57.9121 89.2676 56.7051 89.5605C55.498 89.8535 54.2617 90 52.9961 90ZM37 74.0039C37 71.7773 37.416 69.6914 38.248 67.7461C39.0801 65.8008 40.2226 64.1074 41.6758 62.666C43.1289 61.2246 44.8223 60.082 46.7559 59.2383C48.6895 58.3945 50.7695 57.9727 52.9961 57.9727V72.8438L38.6523 81.1055C38.1133 80.0508 37.7031 78.9199 37.4219 77.7129C37.1406 76.5059 37 75.2695 37 74.0039Z" fill="#FFA684"/>
</svg>
