<svg width="96" height="107" viewBox="0 0 96 107" fill="none" xmlns="http://www.w3.org/2000/svg">
<path d="M95.7694 106.363H14V0H70.2165L95.7694 25.3245V106.363Z" fill="#E6541D"/>
<path d="M92.2753 28.0582H68V4L92.2753 28.0582Z" fill="#FFA684"/>
<rect y="16" width="55" height="28" rx="4" fill="#BA3C0D"/>
<path d="M14.7793 31.4912V36H12.1426V23.2031H17.1348C18.0957 23.2031 18.9395 23.3789 19.666 23.7305C20.3984 24.082 20.9609 24.583 21.3535 25.2334C21.7461 25.8779 21.9424 26.6133 21.9424 27.4395C21.9424 28.6934 21.5117 29.6836 20.6504 30.4102C19.7949 31.1309 18.6084 31.4912 17.0908 31.4912H14.7793ZM14.7793 29.3555H17.1348C17.832 29.3555 18.3623 29.1914 18.7256 28.8633C19.0947 28.5352 19.2793 28.0664 19.2793 27.457C19.2793 26.8301 19.0947 26.3232 18.7256 25.9365C18.3564 25.5498 17.8467 25.3506 17.1963 25.3389H14.7793V29.3555ZM25.9664 31.4912V36H23.3297V23.2031H28.3219C29.2828 23.2031 30.1266 23.3789 30.8532 23.7305C31.5856 24.082 32.1481 24.583 32.5407 25.2334C32.9332 25.8779 33.1295 26.6133 33.1295 27.4395C33.1295 28.6934 32.6989 29.6836 31.8375 30.4102C30.9821 31.1309 29.7955 31.4912 28.278 31.4912H25.9664ZM25.9664 29.3555H28.3219C29.0192 29.3555 29.5494 29.1914 29.9127 28.8633C30.2819 28.5352 30.4664 28.0664 30.4664 27.457C30.4664 26.8301 30.2819 26.3232 29.9127 25.9365C29.5436 25.5498 29.0338 25.3506 28.3834 25.3389H25.9664V29.3555ZM44.1497 25.3389H40.2297V36H37.593V25.3389H33.7258V23.2031H44.1497V25.3389Z" fill="#FFA684"/>
<path fill-rule="evenodd" clip-rule="evenodd" d="M73 69.9961H57.0039V54C59.207 54 61.2812 54.416 63.2266 55.248C65.1719 56.0801 66.8652 57.2226 68.3066 58.6758C69.7481 60.1289 70.8906 61.8223 71.7344 63.7559C72.5781 65.6895 73 67.7695 73 69.9961ZM68.9922 74.0039C68.9922 75.3867 68.8223 76.7226 68.4824 78.0117C68.1426 79.3008 67.6621 80.5195 67.041 81.668C66.4199 82.8164 65.6699 83.8652 64.791 84.8145C63.9121 85.7637 62.9336 86.6016 61.8555 87.3281L54.1562 74.0039H68.9922ZM52.9961 90C51.5898 90 50.2422 89.8301 48.9531 89.4902C47.6641 89.1504 46.4512 88.6641 45.3145 88.0312C44.1777 87.3984 43.1289 86.6426 42.168 85.7637C41.207 84.8848 40.3633 83.918 39.6367 82.8633L52.6445 75.3398L60.0977 88.3125C59.043 88.8516 57.9121 89.2676 56.7051 89.5605C55.498 89.8535 54.2617 90 52.9961 90ZM37 74.0039C37 71.7773 37.416 69.6914 38.248 67.7461C39.0801 65.8008 40.2226 64.1074 41.6758 62.666C43.1289 61.2246 44.8223 60.082 46.7559 59.2383C48.6895 58.3945 50.7695 57.9727 52.9961 57.9727V72.8438L38.6523 81.1055C38.1133 80.0508 37.7031 78.9199 37.4219 77.7129C37.1406 76.5059 37 75.2695 37 74.0039Z" fill="#FFA684"/>
</svg>
