<svg width="96" height="107" viewBox="0 0 96 107" fill="none" xmlns="http://www.w3.org/2000/svg">
<path d="M95.7694 106.363H14V0H70.2165L95.7694 25.3245V106.363Z" fill="#E6541D"/>
<path d="M92.2753 28.0582H68V4L92.2753 28.0582Z" fill="#FFA684"/>
<rect y="16" width="55" height="28" rx="4" fill="#BA3C0D"/>
<path d="M9.56934 31.7417V36H7.0791V23.9141H11.7939C12.7015 23.9141 13.4984 24.0801 14.1846 24.4121C14.8763 24.7441 15.4076 25.2173 15.7783 25.8315C16.1491 26.4403 16.3345 27.1348 16.3345 27.915C16.3345 29.0993 15.9277 30.0345 15.1143 30.7207C14.3063 31.4014 13.1857 31.7417 11.7524 31.7417H9.56934ZM9.56934 29.7246H11.7939C12.4525 29.7246 12.9533 29.5697 13.2964 29.2598C13.645 28.9499 13.8193 28.5072 13.8193 27.9316C13.8193 27.3395 13.645 26.8608 13.2964 26.4956C12.9478 26.1304 12.4663 25.9422 11.8521 25.9312H9.56934V29.7246ZM20.135 31.7417V36H17.6447V23.9141H22.3596C23.2671 23.9141 24.064 24.0801 24.7502 24.4121C25.4419 24.7441 25.9732 25.2173 26.344 25.8315C26.7147 26.4403 26.9001 27.1348 26.9001 27.915C26.9001 29.0993 26.4934 30.0345 25.6799 30.7207C24.8719 31.4014 23.7513 31.7417 22.3181 31.7417H20.135ZM20.135 29.7246H22.3596C23.0181 29.7246 23.5189 29.5697 23.862 29.2598C24.2107 28.9499 24.385 28.5072 24.385 27.9316C24.385 27.3395 24.2107 26.8608 23.862 26.4956C23.5134 26.1304 23.0319 25.9422 22.4177 25.9312H20.135V29.7246ZM37.308 25.9312H33.6059V36H31.1156V25.9312H27.4633V23.9141H37.308V25.9312ZM48.1642 36H45.6739V30.8203H40.818V36H38.3278V23.9141H40.818V28.8115H45.6739V23.9141H48.1642V36Z" fill="#FFA684"/>
<path fill-rule="evenodd" clip-rule="evenodd" d="M73 69.9961H57.0039V54C59.207 54 61.2812 54.416 63.2266 55.248C65.1719 56.0801 66.8652 57.2226 68.3066 58.6758C69.7481 60.1289 70.8906 61.8223 71.7344 63.7559C72.5781 65.6895 73 67.7695 73 69.9961ZM68.9922 74.0039C68.9922 75.3867 68.8223 76.7226 68.4824 78.0117C68.1426 79.3008 67.6621 80.5195 67.041 81.668C66.4199 82.8164 65.6699 83.8652 64.791 84.8145C63.9121 85.7637 62.9336 86.6016 61.8555 87.3281L54.1562 74.0039H68.9922ZM52.9961 90C51.5898 90 50.2422 89.8301 48.9531 89.4902C47.6641 89.1504 46.4512 88.6641 45.3145 88.0312C44.1777 87.3984 43.1289 86.6426 42.168 85.7637C41.207 84.8848 40.3633 83.918 39.6367 82.8633L52.6445 75.3398L60.0977 88.3125C59.043 88.8516 57.9121 89.2676 56.7051 89.5605C55.498 89.8535 54.2617 90 52.9961 90ZM37 74.0039C37 71.7773 37.416 69.6914 38.248 67.7461C39.0801 65.8008 40.2226 64.1074 41.6758 62.666C43.1289 61.2246 44.8223 60.082 46.7559 59.2383C48.6895 58.3945 50.7695 57.9727 52.9961 57.9727V72.8438L38.6523 81.1055C38.1133 80.0508 37.7031 78.9199 37.4219 77.7129C37.1406 76.5059 37 75.2695 37 74.0039Z" fill="#FFA684"/>
</svg>
