<svg width="96" height="107" viewBox="0 0 96 107" fill="none" xmlns="http://www.w3.org/2000/svg">
<path d="M95.7694 106.363H14V0H70.2165L95.7694 25.3245V106.363Z" fill="#E6541D"/>
<path d="M92.2753 28.0582H68V4L92.2753 28.0582Z" fill="#FFA684"/>
<rect y="16" width="55" height="28" rx="4" fill="#BA3C0D"/>
<path d="M7.56934 31.7417V36H5.0791V23.9141H9.79395C10.7015 23.9141 11.4984 24.0801 12.1846 24.4121C12.8763 24.7441 13.4076 25.2173 13.7783 25.8315C14.1491 26.4403 14.3345 27.1348 14.3345 27.915C14.3345 29.0993 13.9277 30.0345 13.1143 30.7207C12.3063 31.4014 11.1857 31.7417 9.75244 31.7417H7.56934ZM7.56934 29.7246H9.79395C10.4525 29.7246 10.9533 29.5697 11.2964 29.2598C11.645 28.9499 11.8193 28.5072 11.8193 27.9316C11.8193 27.3395 11.645 26.8608 11.2964 26.4956C10.9478 26.1304 10.4663 25.9422 9.85205 25.9312H7.56934V29.7246ZM18.135 31.7417V36H15.6447V23.9141H20.3596C21.2671 23.9141 22.064 24.0801 22.7502 24.4121C23.4419 24.7441 23.9732 25.2173 24.344 25.8315C24.7147 26.4403 24.9001 27.1348 24.9001 27.915C24.9001 29.0993 24.4934 30.0345 23.6799 30.7207C22.8719 31.4014 21.7513 31.7417 20.3181 31.7417H18.135ZM18.135 29.7246H20.3596C21.0181 29.7246 21.5189 29.5697 21.862 29.2598C22.2107 28.9499 22.385 28.5072 22.385 27.9316C22.385 27.3395 22.2107 26.8608 21.862 26.4956C21.5134 26.1304 21.0319 25.9422 20.4177 25.9312H18.135V29.7246ZM35.308 25.9312H31.6059V36H29.1156V25.9312H25.4633V23.9141H35.308V25.9312ZM39.5817 23.9141L42.6862 32.6797L45.774 23.9141H49.0446V36H46.546V32.6963L46.795 26.9937L43.5328 36H41.8229L38.569 27.002L38.818 32.6963V36H36.3278V23.9141H39.5817Z" fill="#FFA684"/>
<path fill-rule="evenodd" clip-rule="evenodd" d="M73 69.9961H57.0039V54C59.207 54 61.2812 54.416 63.2266 55.248C65.1719 56.0801 66.8652 57.2226 68.3066 58.6758C69.7481 60.1289 70.8906 61.8223 71.7344 63.7559C72.5781 65.6895 73 67.7695 73 69.9961ZM68.9922 74.0039C68.9922 75.3867 68.8223 76.7226 68.4824 78.0117C68.1426 79.3008 67.6621 80.5195 67.041 81.668C66.4199 82.8164 65.6699 83.8652 64.791 84.8145C63.9121 85.7637 62.9336 86.6016 61.8555 87.3281L54.1562 74.0039H68.9922ZM52.9961 90C51.5898 90 50.2422 89.8301 48.9531 89.4902C47.6641 89.1504 46.4512 88.6641 45.3145 88.0312C44.1777 87.3984 43.1289 86.6426 42.168 85.7637C41.207 84.8848 40.3633 83.918 39.6367 82.8633L52.6445 75.3398L60.0977 88.3125C59.043 88.8516 57.9121 89.2676 56.7051 89.5605C55.498 89.8535 54.2617 90 52.9961 90ZM37 74.0039C37 71.7773 37.416 69.6914 38.248 67.7461C39.0801 65.8008 40.2226 64.1074 41.6758 62.666C43.1289 61.2246 44.8223 60.082 46.7559 59.2383C48.6895 58.3945 50.7695 57.9727 52.9961 57.9727V72.8438L38.6523 81.1055C38.1133 80.0508 37.7031 78.9199 37.4219 77.7129C37.1406 76.5059 37 75.2695 37 74.0039Z" fill="#FFA684"/>
</svg>
