<svg width="96" height="107" viewBox="0 0 96 107" fill="none" xmlns="http://www.w3.org/2000/svg">
<path d="M95.7694 106.363H14V0H70.2165L95.7694 25.3245V106.363Z" fill="#E6541D"/>
<path d="M92.2753 28.0582H68V4L92.2753 28.0582Z" fill="#FFA684"/>
<rect y="16" width="55" height="28" rx="4" fill="#BA3C0D"/>
<path d="M8.7793 32.4912V37H6.14258V24.2031H11.1348C12.0957 24.2031 12.9395 24.3789 13.666 24.7305C14.3984 25.082 14.9609 25.583 15.3535 26.2334C15.7461 26.8779 15.9424 27.6133 15.9424 28.4395C15.9424 29.6934 15.5117 30.6836 14.6504 31.4102C13.7949 32.1309 12.6084 32.4912 11.0908 32.4912H8.7793ZM8.7793 30.3555H11.1348C11.832 30.3555 12.3623 30.1914 12.7256 29.8633C13.0947 29.5352 13.2793 29.0664 13.2793 28.457C13.2793 27.8301 13.0947 27.3232 12.7256 26.9365C12.3564 26.5498 11.8467 26.3506 11.1963 26.3389H8.7793V30.3555ZM19.9664 32.4912V37H17.3297V24.2031H22.3219C23.2828 24.2031 24.1266 24.3789 24.8532 24.7305C25.5856 25.082 26.1481 25.583 26.5407 26.2334C26.9332 26.8779 27.1295 27.6133 27.1295 28.4395C27.1295 29.6934 26.6989 30.6836 25.8375 31.4102C24.9821 32.1309 23.7955 32.4912 22.278 32.4912H19.9664ZM19.9664 30.3555H22.3219C23.0192 30.3555 23.5494 30.1914 23.9127 29.8633C24.2819 29.5352 24.4664 29.0664 24.4664 28.457C24.4664 27.8301 24.2819 27.3232 23.9127 26.9365C23.5436 26.5498 23.0338 26.3506 22.3834 26.3389H19.9664V30.3555ZM38.1497 26.3389H34.2297V37H31.593V26.3389H27.7258V24.2031H38.1497V26.3389ZM43.8085 28.6152L46.2079 24.2031H49.2401L45.5136 30.5488L49.3368 37H46.2694L43.8085 32.5176L41.3476 37H38.2802L42.1034 30.5488L38.3769 24.2031H41.4091L43.8085 28.6152Z" fill="#FFA684"/>
<path fill-rule="evenodd" clip-rule="evenodd" d="M73 69.9961H57.0039V54C59.207 54 61.2812 54.416 63.2266 55.248C65.1719 56.0801 66.8652 57.2226 68.3066 58.6758C69.7481 60.1289 70.8906 61.8223 71.7344 63.7559C72.5781 65.6895 73 67.7695 73 69.9961ZM68.9922 74.0039C68.9922 75.3867 68.8223 76.7226 68.4824 78.0117C68.1426 79.3008 67.6621 80.5195 67.041 81.668C66.4199 82.8164 65.6699 83.8652 64.791 84.8145C63.9121 85.7637 62.9336 86.6016 61.8555 87.3281L54.1562 74.0039H68.9922ZM52.9961 90C51.5898 90 50.2422 89.8301 48.9531 89.4902C47.6641 89.1504 46.4512 88.6641 45.3145 88.0312C44.1777 87.3984 43.1289 86.6426 42.168 85.7637C41.207 84.8848 40.3633 83.918 39.6367 82.8633L52.6445 75.3398L60.0977 88.3125C59.043 88.8516 57.9121 89.2676 56.7051 89.5605C55.498 89.8535 54.2617 90 52.9961 90ZM37 74.0039C37 71.7773 37.416 69.6914 38.248 67.7461C39.0801 65.8008 40.2226 64.1074 41.6758 62.666C43.1289 61.2246 44.8223 60.082 46.7559 59.2383C48.6895 58.3945 50.7695 57.9727 52.9961 57.9727V72.8438L38.6523 81.1055C38.1133 80.0508 37.7031 78.9199 37.4219 77.7129C37.1406 76.5059 37 75.2695 37 74.0039Z" fill="#FFA684"/>
</svg>
