<svg width="96" height="107" viewBox="0 0 96 107" fill="none" xmlns="http://www.w3.org/2000/svg">
<path d="M95.7694 106.363H14V0H70.2165L95.7694 25.3245V106.363Z" fill="#51295A"/>
<path d="M92.2753 28.0582H68V4L92.2753 28.0582Z" fill="#EB7AFF"/>
<rect y="16" width="55" height="28" rx="4" fill="#2C0050"/>
<path fill-rule="evenodd" clip-rule="evenodd" d="M8.56934 31.7417V36H6.0791V23.9141H10.7939C11.7015 23.9141 12.4998 24.0801 13.1887 24.4121C13.8777 24.7441 14.4076 25.2159 14.7783 25.8274C15.1491 26.4389 15.3345 27.1348 15.3345 27.915C15.3345 29.0993 14.9291 30.0331 14.1184 30.7166C13.3077 31.4 12.1857 31.7417 10.7524 31.7417H8.56934ZM8.56934 29.7246H10.7939C11.4525 29.7246 11.9547 29.5697 12.3005 29.2598C12.6464 28.9499 12.8193 28.5072 12.8193 27.9316C12.8193 27.3395 12.645 26.8608 12.2964 26.4956C11.9478 26.1304 11.4663 25.9422 10.8521 25.9312H8.56934V29.7246ZM21.1106 31.5757H19.1267V36H16.6364V23.9141H21.1272C22.5549 23.9141 23.6561 24.2323 24.4309 24.8687C25.2056 25.505 25.593 26.4043 25.593 27.5664C25.593 28.391 25.4145 29.0785 25.0576 29.6292C24.7006 30.1798 24.1597 30.6183 23.4348 30.9448L26.0495 35.8838V36H23.3767L21.1106 31.5757ZM19.1267 29.5586H21.1355C21.7608 29.5586 22.245 29.3995 22.5881 29.0813C22.9312 28.7631 23.1027 28.3245 23.1027 27.7656C23.1027 27.1956 22.9409 26.7474 22.6171 26.4209C22.2934 26.0944 21.7968 25.9312 21.1272 25.9312H19.1267V29.5586ZM34.349 30.7622H29.5678V33.9995H35.1791V36H27.0776V23.9141H35.1625V25.9312H29.5678V28.8115H34.349V30.7622ZM39.486 23.9141L42.5905 32.6797L45.6783 23.9141H48.9489V36H46.4503V32.6963L46.6993 26.9937L43.4371 36H41.7272L38.4733 27.002L38.7223 32.6963V36H36.2321V23.9141H39.486Z" fill="#E171FB"/>
<path fill-rule="evenodd" clip-rule="evenodd" d="M66.9844 69V62.0039C66.9844 61.4648 66.791 60.9961 66.4043 60.5977C66.0176 60.1992 65.543 60 64.9805 60H41.0039C40.4414 60 39.9668 60.1992 39.5801 60.5977C39.1934 60.9961 39 61.4648 39 62.0039V82.0078C39 82.5703 39.1934 83.0449 39.5801 83.4316C39.9668 83.8184 40.4414 84.0117 41.0039 84.0117H64.9805C65.543 84.0117 66.0176 83.8184 66.4043 83.4316C66.791 83.0449 66.9844 82.5703 66.9844 82.0078V75.0117L75 83.0273V61.0195L66.9844 69Z" fill="#E171FB"/>
</svg>
