<svg width="96" height="107" viewBox="0 0 96 107" fill="none" xmlns="http://www.w3.org/2000/svg">
<path d="M95.7694 106.363H14V0H70.2165L95.7694 25.3245V106.363Z" fill="#003C4A"/>
<path d="M92.2753 28.0582H68V4L92.2753 28.0582Z" fill="#00CBFF"/>
<rect y="16" width="55" height="28" rx="4" fill="#002C36"/>
<path fill-rule="evenodd" clip-rule="evenodd" d="M19.7793 32.4912V37H17.1426V24.2031H22.1348C23.0957 24.2031 23.9409 24.3789 24.6704 24.7305C25.3999 25.082 25.9609 25.5815 26.3535 26.229C26.7461 26.8765 26.9424 27.6133 26.9424 28.4395C26.9424 29.6934 26.5132 30.6821 25.6548 31.4058C24.7964 32.1294 23.6084 32.4912 22.0908 32.4912H19.7793ZM19.7793 30.3555H22.1348C22.832 30.3555 23.3638 30.1914 23.73 29.8633C24.0962 29.5352 24.2793 29.0664 24.2793 28.457C24.2793 27.8301 24.0947 27.3232 23.7256 26.9365C23.3564 26.5498 22.8467 26.3506 22.1963 26.3389H19.7793V30.3555ZM34.9567 33.6426C34.9567 33.1445 34.7809 32.7622 34.4293 32.4956C34.0778 32.229 33.445 31.9478 32.5309 31.6519C31.6168 31.356 30.8932 31.0645 30.36 30.7773C28.9069 29.9922 28.1803 28.9346 28.1803 27.6045C28.1803 26.9131 28.3751 26.2964 28.7648 25.7544C29.1544 25.2124 29.714 24.7891 30.4435 24.4844C31.173 24.1797 31.9918 24.0273 32.9 24.0273C33.8141 24.0273 34.6285 24.1929 35.3434 24.5239C36.0582 24.855 36.6134 25.3223 37.0089 25.9258C37.4044 26.5293 37.6022 27.2148 37.6022 27.9824H34.9655C34.9655 27.3965 34.7809 26.9409 34.4117 26.6157C34.0426 26.2905 33.5241 26.1279 32.8561 26.1279C32.2116 26.1279 31.7106 26.2642 31.3532 26.5366C30.9957 26.8091 30.817 27.168 30.817 27.6133C30.817 28.0293 31.0265 28.3779 31.4454 28.6592C31.8644 28.9404 32.4811 29.2041 33.2955 29.4502C34.7955 29.9014 35.8883 30.4609 36.5739 31.1289C37.2594 31.7969 37.6022 32.6289 37.6022 33.625C37.6022 34.7324 37.1832 35.6011 36.3453 36.231C35.5074 36.8608 34.3795 37.1758 32.9616 37.1758C31.9772 37.1758 31.0807 36.9956 30.2721 36.6353C29.4635 36.2749 28.8468 35.7813 28.422 35.1543C27.9972 34.5273 27.7848 33.8008 27.7848 32.9746H30.4303C30.4303 34.3867 31.274 35.0928 32.9616 35.0928C33.5885 35.0928 34.0778 34.9653 34.4293 34.7104C34.7809 34.4556 34.9567 34.0996 34.9567 33.6426Z" fill="#00CBFF"/>
<path fill-rule="evenodd" clip-rule="evenodd" d="M66.9844 56.0078V54.0039C66.9844 53.4414 66.791 52.9668 66.4043 52.5801C66.0176 52.1934 65.543 52 64.9805 52H40.9688C40.4297 52 39.9668 52.1934 39.5801 52.5801C39.1934 52.9668 39 53.4414 39 54.0039V61.9844C39 62.5469 39.1934 63.0215 39.5801 63.4082C39.9668 63.7949 40.4297 63.9883 40.9688 63.9883H64.9805C65.543 63.9883 66.0176 63.7949 66.4043 63.4082C66.791 63.0215 66.9844 62.5469 66.9844 61.9844V59.9805H68.9883V67.9961H48.9844V90.0039C48.9844 90.543 49.1777 91.0117 49.5645 91.4102C49.9512 91.8086 50.4258 92.0078 50.9883 92.0078H54.9961C55.5352 92.0078 56.0039 91.8086 56.4023 91.4102C56.8008 91.0117 57 90.543 57 90.0039V72.0039H72.9961V56.0078H66.9844Z" fill="#00CBFF"/>
</svg>
