<svg width="96" height="107" viewBox="0 0 96 107" fill="none" xmlns="http://www.w3.org/2000/svg">
<path d="M95.7694 106.363H14V0H70.2165L95.7694 25.3245V106.363Z" fill="#003C4A"/>
<path d="M92.2753 28.0582H68V4L92.2753 28.0582Z" fill="#00CBFF"/>
<rect y="16" width="55" height="28" rx="4" fill="#002C36"/>
<path fill-rule="evenodd" clip-rule="evenodd" d="M15.7793 32.4912V37H13.1426V24.2031H18.1348C19.0957 24.2031 19.9409 24.3789 20.6704 24.7305C21.3999 25.082 21.9609 25.5815 22.3535 26.229C22.7461 26.8765 22.9424 27.6133 22.9424 28.4395C22.9424 29.6934 22.5132 30.6821 21.6548 31.4058C20.7964 32.1294 19.6084 32.4912 18.0908 32.4912H15.7793ZM15.7793 30.3555H18.1348C18.832 30.3555 19.3638 30.1914 19.73 29.8633C20.0962 29.5352 20.2793 29.0664 20.2793 28.457C20.2793 27.8301 20.0947 27.3232 19.7256 26.9365C19.3564 26.5498 18.8467 26.3506 18.1963 26.3389H15.7793V30.3555ZM30.9567 33.6426C30.9567 33.1445 30.7809 32.7622 30.4293 32.4956C30.0778 32.229 29.445 31.9478 28.5309 31.6519C27.6168 31.356 26.8932 31.0645 26.36 30.7773C24.9069 29.9922 24.1803 28.9346 24.1803 27.6045C24.1803 26.9131 24.3751 26.2964 24.7648 25.7544C25.1544 25.2124 25.714 24.7891 26.4435 24.4844C27.173 24.1797 27.9918 24.0273 28.9 24.0273C29.8141 24.0273 30.6285 24.1929 31.3434 24.5239C32.0582 24.855 32.6134 25.3223 33.0089 25.9258C33.4044 26.5293 33.6022 27.2148 33.6022 27.9824H30.9655C30.9655 27.3965 30.7809 26.9409 30.4117 26.6157C30.0426 26.2905 29.5241 26.1279 28.8561 26.1279C28.2116 26.1279 27.7106 26.2642 27.3532 26.5366C26.9957 26.8091 26.817 27.168 26.817 27.6133C26.817 28.0293 27.0265 28.3779 27.4454 28.6592C27.8644 28.9404 28.4811 29.2041 29.2955 29.4502C30.7955 29.9014 31.8883 30.4609 32.5739 31.1289C33.2594 31.7969 33.6022 32.6289 33.6022 33.625C33.6022 34.7324 33.1832 35.6011 32.3453 36.231C31.5074 36.8608 30.3795 37.1758 28.9616 37.1758C27.9772 37.1758 27.0807 36.9956 26.2721 36.6353C25.4635 36.2749 24.8468 35.7813 24.422 35.1543C23.9972 34.5273 23.7848 33.8008 23.7848 32.9746H26.4303C26.4303 34.3867 27.274 35.0928 28.9616 35.0928C29.5885 35.0928 30.0778 34.9653 30.4293 34.7104C30.7809 34.4556 30.9567 34.0996 30.9567 33.6426ZM34.9544 37V24.2031H38.8919C40.0169 24.2031 41.0232 24.4565 41.9109 24.9634C42.7986 25.4702 43.4915 26.1909 43.9895 27.1255C44.4876 28.0601 44.7366 29.1221 44.7366 30.3115V30.9004C44.7366 32.0898 44.492 33.1475 44.0027 34.0732C43.5134 34.999 42.8235 35.7168 41.9329 36.2266C41.0422 36.7363 40.0374 36.9941 38.9182 37H34.9544ZM37.5911 26.3389V34.8818H38.8655C39.8967 34.8818 40.6848 34.5449 41.2297 33.8711C41.7747 33.1973 42.053 32.2334 42.0647 30.9795V30.3027C42.0647 29.0019 41.7952 28.0161 41.2561 27.3452C40.7171 26.6743 39.929 26.3389 38.8919 26.3389H37.5911Z" fill="#00CBFF"/>
<path fill-rule="evenodd" clip-rule="evenodd" d="M66.9844 56.0078V54.0039C66.9844 53.4414 66.791 52.9668 66.4043 52.5801C66.0176 52.1934 65.543 52 64.9805 52H40.9688C40.4297 52 39.9668 52.1934 39.5801 52.5801C39.1934 52.9668 39 53.4414 39 54.0039V61.9844C39 62.5469 39.1934 63.0215 39.5801 63.4082C39.9668 63.7949 40.4297 63.9883 40.9688 63.9883H64.9805C65.543 63.9883 66.0176 63.7949 66.4043 63.4082C66.791 63.0215 66.9844 62.5469 66.9844 61.9844V59.9805H68.9883V67.9961H48.9844V90.0039C48.9844 90.543 49.1777 91.0117 49.5645 91.4102C49.9512 91.8086 50.4258 92.0078 50.9883 92.0078H54.9961C55.5352 92.0078 56.0039 91.8086 56.4023 91.4102C56.8008 91.0117 57 90.543 57 90.0039V72.0039H72.9961V56.0078H66.9844Z" fill="#00CBFF"/>
</svg>
