<svg width="96" height="107" viewBox="0 0 96 107" fill="none" xmlns="http://www.w3.org/2000/svg">
<path d="M95.7694 106.363H14V0H70.2165L95.7694 25.3245V106.363Z" fill="#7883A4"/>
<path d="M92.2753 28.0582H68V4L92.2753 28.0582Z" fill="#9AA6CA"/>
<rect y="16" width="55" height="28" rx="4" fill="#4B536D"/>
<path d="M14.5693 31.7417V36H12.0791V23.9141H16.7939C17.7015 23.9141 18.4984 24.0801 19.1846 24.4121C19.8763 24.7441 20.4076 25.2173 20.7783 25.8315C21.1491 26.4403 21.3345 27.1348 21.3345 27.915C21.3345 29.0993 20.9277 30.0345 20.1143 30.7207C19.3063 31.4014 18.1857 31.7417 16.7524 31.7417H14.5693ZM14.5693 29.7246H16.7939C17.4525 29.7246 17.9533 29.5697 18.2964 29.2598C18.645 28.9499 18.8193 28.5072 18.8193 27.9316C18.8193 27.3395 18.645 26.8608 18.2964 26.4956C17.9478 26.1304 17.4663 25.9422 16.8521 25.9312H14.5693V29.7246ZM28.8878 32.8291C28.8878 32.3587 28.7218 31.999 28.3898 31.75C28.0577 31.4954 27.4601 31.2298 26.5968 30.9531C25.7335 30.6709 25.0501 30.3942 24.5465 30.123C23.1741 29.3815 22.4879 28.3826 22.4879 27.1265C22.4879 26.4735 22.6705 25.8924 23.0358 25.3833C23.4065 24.8687 23.935 24.4674 24.6212 24.1797C25.313 23.8919 26.0877 23.748 26.9454 23.748C27.8087 23.748 28.5779 23.9058 29.2531 24.2212C29.9282 24.5311 30.4511 24.971 30.8219 25.541C31.1982 26.111 31.3864 26.7585 31.3864 27.4834H28.8961C28.8961 26.93 28.7218 26.5011 28.3732 26.1968C28.0245 25.8869 27.5348 25.7319 26.9039 25.7319C26.2952 25.7319 25.8221 25.862 25.4845 26.1221C25.1469 26.3766 24.9782 26.7142 24.9782 27.1348C24.9782 27.5277 25.1746 27.8569 25.5675 28.1226C25.9659 28.3882 26.5498 28.6372 27.319 28.8696C28.7356 29.2957 29.7677 29.8242 30.4152 30.4551C31.0626 31.0859 31.3864 31.8717 31.3864 32.8125C31.3864 33.8584 30.9907 34.6802 30.1993 35.2778C29.408 35.87 28.3427 36.166 27.0035 36.166C26.0739 36.166 25.2272 35.9972 24.4635 35.6597C23.6998 35.3166 23.116 34.849 22.712 34.2568C22.3136 33.6647 22.1144 32.9785 22.1144 32.1982H24.6129C24.6129 33.5319 25.4098 34.1987 27.0035 34.1987C27.5957 34.1987 28.0577 34.0798 28.3898 33.8418C28.7218 33.5983 28.8878 33.2607 28.8878 32.8291ZM41.7454 25.9312H38.0432V36H35.553V25.9312H31.9006V23.9141H41.7454V25.9312Z" fill="#9AA6CA"/>
<path fill-rule="evenodd" clip-rule="evenodd" d="M55.0039 83.4609L39.0078 73.4414V88.7344H71V73.4414L55.0039 83.4609ZM39.0078 68.7305L55.0039 78.75L71 68.7305L55.0039 58.7461L39.0078 68.7305ZM75.0078 68.7305V88.7344C75.0078 89.8359 74.6152 90.7793 73.8301 91.5645C73.0449 92.3496 72.1016 92.7422 71 92.7422H39.0078C37.9062 92.7422 36.9629 92.3496 36.1777 91.5645C35.3926 90.7793 35 89.8359 35 88.7344V68.7305C35 68.0039 35.1758 67.3418 35.5273 66.7441C35.8789 66.1465 36.3477 65.6719 36.9336 65.3203L55.0039 54L73.0391 65.3203C73.625 65.6719 74.0996 66.1465 74.4629 66.7441C74.8262 67.3418 75.0078 68.0039 75.0078 68.7305Z" fill="#9AA6CA"/>
</svg>
