<svg width="96" height="107" viewBox="0 0 96 107" fill="none" xmlns="http://www.w3.org/2000/svg">
<path d="M95.7694 106.363H14V0H70.2165L95.7694 25.3245V106.363Z" fill="#00BF77"/>
<path d="M92.2753 28.0582H68V4L92.2753 28.0582Z" fill="#7DFFCE"/>
<rect y="16" width="55" height="28" rx="4" fill="#0D6254"/>
<path fill-rule="evenodd" clip-rule="evenodd" d="M14.5693 31.7417V36H12.0791V23.9141H16.7939C17.7015 23.9141 18.4998 24.0801 19.1887 24.4121C19.8777 24.7441 20.4076 25.2159 20.7783 25.8274C21.1491 26.4389 21.3345 27.1348 21.3345 27.915C21.3345 29.0993 20.9291 30.0331 20.1184 30.7166C19.3077 31.4 18.1857 31.7417 16.7524 31.7417H14.5693ZM14.5693 29.7246H16.7939C17.4525 29.7246 17.9547 29.5697 18.3005 29.2598C18.6464 28.9499 18.8193 28.5072 18.8193 27.9316C18.8193 27.3395 18.645 26.8608 18.2964 26.4956C17.9478 26.1304 17.4663 25.9422 16.8521 25.9312H14.5693V29.7246ZM31.7599 23.9141V31.8745C31.7599 33.1971 31.3462 34.243 30.5189 35.0122C29.6916 35.7814 28.5613 36.166 27.1281 36.166C25.7169 36.166 24.5963 35.7925 23.7662 35.0454C22.9362 34.2983 22.5128 33.2718 22.4962 31.9658V23.9141H24.9865V31.8911C24.9865 32.6825 25.176 33.2594 25.5551 33.6218C25.9341 33.9843 26.4585 34.1655 27.1281 34.1655C28.5281 34.1655 29.2392 33.4295 29.2614 31.9575V23.9141H31.7599ZM33.3699 36V23.9141H37.6033C39.0698 23.9141 40.1821 24.1949 40.9402 24.7566C41.6983 25.3183 42.0774 26.1414 42.0774 27.2261C42.0774 27.8182 41.9252 28.3398 41.6209 28.7908C41.3165 29.2418 40.8932 29.5724 40.3508 29.7827C40.9706 29.9377 41.459 30.2503 41.8159 30.7207C42.1729 31.1911 42.3513 31.7666 42.3513 32.4473C42.3513 33.6094 41.9806 34.4893 41.239 35.0869C40.4975 35.6846 39.4405 35.9889 38.0681 36H33.3699ZM35.8601 30.7373V33.9995H37.9934C38.58 33.9995 39.0379 33.8598 39.3672 33.5803C39.6965 33.3009 39.8611 32.9149 39.8611 32.4224C39.8611 31.3156 39.2883 30.7539 38.1428 30.7373H35.8601ZM35.8601 28.9775H37.7029C38.9591 28.9554 39.5872 28.4546 39.5872 27.4751C39.5872 26.9272 39.4281 26.533 39.1099 26.2922C38.7917 26.0515 38.2895 25.9312 37.6033 25.9312H35.8601V28.9775Z" fill="#7DFFCE"/>
<path d="M50.5586 73.9824V83H45.2852V57.4062H55.2695C57.1914 57.4062 58.8789 57.7578 60.332 58.4609C61.7969 59.1641 62.9219 60.166 63.707 61.4668C64.4922 62.7559 64.8848 64.2266 64.8848 65.8789C64.8848 68.3867 64.0234 70.3672 62.3008 71.8203C60.5898 73.2617 58.2168 73.9824 55.1816 73.9824H50.5586ZM50.5586 69.7109H55.2695C56.6641 69.7109 57.7246 69.3828 58.4512 68.7266C59.1895 68.0703 59.5586 67.1328 59.5586 65.9141C59.5586 64.6602 59.1895 63.6465 58.4512 62.873C57.7129 62.0996 56.6934 61.7012 55.3926 61.6777H50.5586V69.7109Z" fill="#7DFFCE"/>
</svg>
