<svg width="96" height="107" viewBox="0 0 96 107" fill="none" xmlns="http://www.w3.org/2000/svg">
<path d="M95.7694 106.363H14V0H70.2165L95.7694 25.3245V106.363Z" fill="#00BF77"/>
<path d="M92.2753 28.0582H68V4L92.2753 28.0582Z" fill="#7DFFCE"/>
<rect y="16" width="55" height="28" rx="4" fill="#0D6254"/>
<path fill-rule="evenodd" clip-rule="evenodd" d="M9.49023 31.8276V36.0859H7V24H11.7148C12.6224 24 13.4207 24.166 14.1096 24.498C14.7986 24.8301 15.3284 25.3018 15.6992 25.9133C16.07 26.5248 16.2554 27.2207 16.2554 28.001C16.2554 29.1852 15.85 30.1191 15.0393 30.8025C14.2286 31.4859 13.1066 31.8276 11.6733 31.8276H9.49023ZM9.49023 29.8105H11.7148C12.3734 29.8105 12.8756 29.6556 13.2214 29.3457C13.5673 29.0358 13.7402 28.5931 13.7402 28.0176C13.7402 27.4255 13.5659 26.9468 13.2173 26.5815C12.8687 26.2163 12.3872 26.0282 11.7729 26.0171H9.49023V29.8105ZM26.6808 24V31.9604C26.6808 33.283 26.2671 34.3289 25.4398 35.0981C24.6125 35.8674 23.4822 36.252 22.049 36.252C20.6378 36.252 19.5172 35.8784 18.6871 35.1313C17.8571 34.3843 17.4337 33.3578 17.4171 32.0518V24H19.9074V31.9771C19.9074 32.7684 20.0969 33.3453 20.476 33.7078C20.855 34.0702 21.3794 34.2515 22.049 34.2515C23.449 34.2515 24.1601 33.5155 24.1823 32.0435V24H26.6808ZM28.2908 36.0859V24H32.5242C33.9907 24 35.103 24.2808 35.8611 24.8425C36.6192 25.4042 36.9983 26.2274 36.9983 27.312C36.9983 27.9041 36.8461 28.4257 36.5418 28.8767C36.2374 29.3277 35.8141 29.6584 35.2717 29.8687C35.8915 30.0236 36.3799 30.3363 36.7368 30.8066C37.0938 31.277 37.2722 31.8525 37.2722 32.5332C37.2722 33.6953 36.9015 34.5752 36.1599 35.1729C35.4184 35.7705 34.3614 36.0749 32.989 36.0859H28.2908ZM30.781 30.8232V34.0854H32.9143C33.5009 34.0854 33.9588 33.9457 34.2881 33.6663C34.6174 33.3868 34.782 33.0008 34.782 32.5083C34.782 31.4015 34.2092 30.8398 33.0637 30.8232H30.781ZM30.781 29.0635H32.6238C33.88 29.0413 34.5081 28.5405 34.5081 27.561C34.5081 27.0132 34.349 26.6189 34.0308 26.3782C33.7126 26.1374 33.2104 26.0171 32.5242 26.0171H30.781V29.0635ZM48.5443 36.0859H46.0541V30.9062H41.1981V36.0859H38.7079V24H41.1981V28.8975H46.0541V24H48.5443V36.0859Z" fill="#7DFFCE"/>
<path d="M50.5586 73.9824V83H45.2852V57.4062H55.2695C57.1914 57.4062 58.8789 57.7578 60.332 58.4609C61.7969 59.1641 62.9219 60.166 63.707 61.4668C64.4922 62.7559 64.8848 64.2266 64.8848 65.8789C64.8848 68.3867 64.0234 70.3672 62.3008 71.8203C60.5898 73.2617 58.2168 73.9824 55.1816 73.9824H50.5586ZM50.5586 69.7109H55.2695C56.6641 69.7109 57.7246 69.3828 58.4512 68.7266C59.1895 68.0703 59.5586 67.1328 59.5586 65.9141C59.5586 64.6602 59.1895 63.6465 58.4512 62.873C57.7129 62.0996 56.6934 61.7012 55.3926 61.6777H50.5586V69.7109Z" fill="#7DFFCE"/>
</svg>
