<svg width="96" height="107" viewBox="0 0 96 107" fill="none" xmlns="http://www.w3.org/2000/svg">
<path d="M95.7694 106.363H14V0H70.2165L95.7694 25.3245V106.363Z" fill="#00BF77"/>
<path d="M92.2753 28.0582H68V4L92.2753 28.0582Z" fill="#7DFFCE"/>
<rect y="16" width="55" height="28" rx="4" fill="#0D6254"/>
<path fill-rule="evenodd" clip-rule="evenodd" d="M7.49023 31.8276V36.0859H5V24H9.71484C10.6224 24 11.4207 24.166 12.1096 24.498C12.7986 24.8301 13.3284 25.3018 13.6992 25.9133C14.07 26.5248 14.2554 27.2207 14.2554 28.001C14.2554 29.1852 13.85 30.1191 13.0393 30.8025C12.2286 31.4859 11.1066 31.8276 9.67334 31.8276H7.49023ZM7.49023 29.8105H9.71484C10.3734 29.8105 10.8756 29.6556 11.2214 29.3457C11.5673 29.0358 11.7402 28.5931 11.7402 28.0176C11.7402 27.4255 11.5659 26.9468 11.2173 26.5815C10.8687 26.2163 10.3872 26.0282 9.77295 26.0171H7.49023V29.8105ZM24.6808 24V31.9604C24.6808 33.283 24.2671 34.3289 23.4398 35.0981C22.6125 35.8674 21.4822 36.252 20.049 36.252C18.6378 36.252 17.5172 35.8784 16.6871 35.1313C15.8571 34.3843 15.4337 33.3578 15.4171 32.0518V24H17.9074V31.9771C17.9074 32.7684 18.0969 33.3453 18.476 33.7078C18.855 34.0702 19.3794 34.2515 20.049 34.2515C21.449 34.2515 22.1601 33.5155 22.1823 32.0435V24H24.6808ZM26.2908 36.0859V24H30.5242C31.9907 24 33.103 24.2808 33.8611 24.8425C34.6192 25.4042 34.9983 26.2274 34.9983 27.312C34.9983 27.9041 34.8461 28.4257 34.5418 28.8767C34.2374 29.3277 33.8141 29.6584 33.2717 29.8687C33.8915 30.0236 34.3799 30.3363 34.7368 30.8066C35.0938 31.277 35.2722 31.8525 35.2722 32.5332C35.2722 33.6953 34.9015 34.5752 34.1599 35.1729C33.4184 35.7705 32.3614 36.0749 30.989 36.0859H26.2908ZM28.781 30.8232V34.0854H30.9143C31.5009 34.0854 31.9588 33.9457 32.2881 33.6663C32.6174 33.3868 32.782 33.0008 32.782 32.5083C32.782 31.4015 32.2092 30.8398 31.0637 30.8232H28.781ZM28.781 29.0635H30.6238C31.88 29.0413 32.5081 28.5405 32.5081 27.561C32.5081 27.0132 32.349 26.6189 32.0308 26.3782C31.7126 26.1374 31.2104 26.0171 30.5242 26.0171H28.781V29.0635ZM39.9618 24L43.0663 32.7656L46.1542 24H49.4247V36.0859H46.9262V32.7822L47.1752 27.0796L43.913 36.0859H42.203L38.9491 27.0879L39.1981 32.7822V36.0859H36.7079V24H39.9618Z" fill="#7DFFCE"/>
<path d="M50.5586 73.9824V83H45.2852V57.4062H55.2695C57.1914 57.4062 58.8789 57.7578 60.332 58.4609C61.7969 59.1641 62.9219 60.166 63.707 61.4668C64.4922 62.7559 64.8848 64.2266 64.8848 65.8789C64.8848 68.3867 64.0234 70.3672 62.3008 71.8203C60.5898 73.2617 58.2168 73.9824 55.1816 73.9824H50.5586ZM50.5586 69.7109H55.2695C56.6641 69.7109 57.7246 69.3828 58.4512 68.7266C59.1895 68.0703 59.5586 67.1328 59.5586 65.9141C59.5586 64.6602 59.1895 63.6465 58.4512 62.873C57.7129 62.0996 56.6934 61.7012 55.3926 61.6777H50.5586V69.7109Z" fill="#7DFFCE"/>
</svg>
