<svg width="96" height="107" viewBox="0 0 96 107" fill="none" xmlns="http://www.w3.org/2000/svg">
<path d="M95.7694 106.363H14V0H70.2165L95.7694 25.3245V106.363Z" fill="#E6541D"/>
<path d="M92.2753 28.0582H68V4L92.2753 28.0582Z" fill="#FFA684"/>
<rect y="16" width="55" height="28" rx="4" fill="#BA3C0D"/>
<path d="M12.5693 31.7417V36H10.0791V23.9141H14.7939C15.7015 23.9141 16.4984 24.0801 17.1846 24.4121C17.8763 24.7441 18.4076 25.2173 18.7783 25.8315C19.1491 26.4403 19.3345 27.1348 19.3345 27.915C19.3345 29.0993 18.9277 30.0345 18.1143 30.7207C17.3063 31.4014 16.1857 31.7417 14.7524 31.7417H12.5693ZM12.5693 29.7246H14.7939C15.4525 29.7246 15.9533 29.5697 16.2964 29.2598C16.645 28.9499 16.8193 28.5072 16.8193 27.9316C16.8193 27.3395 16.645 26.8608 16.2964 26.4956C15.9478 26.1304 15.4663 25.9422 14.8521 25.9312H12.5693V29.7246ZM30.0578 32.5137L31.6848 23.9141H34.1667L31.4856 36H28.9787L27.0114 27.915L25.0441 36H22.5373L19.8562 23.9141H22.3381L23.9733 32.4971L25.9655 23.9141H28.0739L30.0578 32.5137ZM37.7514 33.9995H43.8442V36H34.6386V34.5391L40.6152 25.9312H34.6469V23.9141H43.7113V25.3418L37.7514 33.9995Z" fill="#FFA684"/>
<path fill-rule="evenodd" clip-rule="evenodd" d="M73 69.9961H57.0039V54C59.207 54 61.2812 54.416 63.2266 55.248C65.1719 56.0801 66.8652 57.2226 68.3066 58.6758C69.7481 60.1289 70.8906 61.8223 71.7344 63.7559C72.5781 65.6895 73 67.7695 73 69.9961ZM68.9922 74.0039C68.9922 75.3867 68.8223 76.7226 68.4824 78.0117C68.1426 79.3008 67.6621 80.5195 67.041 81.668C66.4199 82.8164 65.6699 83.8652 64.791 84.8145C63.9121 85.7637 62.9336 86.6016 61.8555 87.3281L54.1562 74.0039H68.9922ZM52.9961 90C51.5898 90 50.2422 89.8301 48.9531 89.4902C47.6641 89.1504 46.4512 88.6641 45.3145 88.0312C44.1777 87.3984 43.1289 86.6426 42.168 85.7637C41.207 84.8848 40.3633 83.918 39.6367 82.8633L52.6445 75.3398L60.0977 88.3125C59.043 88.8516 57.9121 89.2676 56.7051 89.5605C55.498 89.8535 54.2617 90 52.9961 90ZM37 74.0039C37 71.7773 37.416 69.6914 38.248 67.7461C39.0801 65.8008 40.2226 64.1074 41.6758 62.666C43.1289 61.2246 44.8223 60.082 46.7559 59.2383C48.6895 58.3945 50.7695 57.9727 52.9961 57.9727V72.8438L38.6523 81.1055C38.1133 80.0508 37.7031 78.9199 37.4219 77.7129C37.1406 76.5059 37 75.2695 37 74.0039Z" fill="#FFA684"/>
</svg>
