<svg width="96" height="107" viewBox="0 0 96 107" fill="none" xmlns="http://www.w3.org/2000/svg">
<path d="M95.7694 106.363H14V0H70.2165L95.7694 25.3245V106.363Z" fill="#1C5DA4"/>
<path d="M92.0602 27.5664H67.7849V3.50818L92.0602 27.5664Z" fill="#7BB6F6"/>
<rect y="16" width="55" height="28" rx="4" fill="#2C7ACD"/>
<path fill-rule="evenodd" clip-rule="evenodd" d="M12.8799 32.3154H10.7793V37H8.14258V24.2031H12.8975C14.4092 24.2031 15.5752 24.54 16.3955 25.2139C17.2158 25.8877 17.626 26.8398 17.626 28.0703C17.626 28.9434 17.437 29.6714 17.0591 30.2544C16.6812 30.8374 16.1084 31.3018 15.3408 31.6475L18.1094 36.877V37H15.2793L12.8799 32.3154ZM10.7793 30.1797H12.9062C13.5684 30.1797 14.0811 30.0112 14.4443 29.6743C14.8076 29.3374 14.9893 28.873 14.9893 28.2812C14.9893 27.6777 14.8179 27.2031 14.4751 26.8574C14.1323 26.5117 13.6064 26.3389 12.8975 26.3389H10.7793V30.1797ZM23.4078 37.1758C22.0133 37.1758 20.8781 36.7481 20.0021 35.8926C19.1261 35.0371 18.6881 33.8975 18.6881 32.4736V32.2275C18.6881 31.2725 18.8727 30.4185 19.2418 29.6655C19.611 28.9126 20.1339 28.3325 20.8107 27.9253C21.4874 27.5181 22.2594 27.3145 23.1266 27.3145C24.4274 27.3145 25.4513 27.7246 26.1984 28.5449C26.9454 29.3652 27.319 30.5283 27.319 32.0342V33.0713H21.2633C21.3453 33.6924 21.5929 34.1904 22.006 34.5654C22.4191 34.9404 22.942 35.1279 23.5748 35.1279C24.5534 35.1279 25.318 34.7734 25.8688 34.0645L27.1168 35.4619C26.736 36.001 26.2203 36.4214 25.57 36.7231C24.9196 37.0249 24.1989 37.1758 23.4078 37.1758ZM23.1178 29.3711C22.6139 29.3711 22.2052 29.541 21.8917 29.8809C21.5783 30.2207 21.3776 30.707 21.2897 31.3398H24.8229V31.1377C24.8112 30.5752 24.6588 30.1401 24.3659 29.8325C24.0729 29.5249 23.6569 29.3711 23.1178 29.3711ZM33.8391 37C33.7219 36.7715 33.637 36.4873 33.5842 36.1475C32.969 36.833 32.1692 37.1758 31.1848 37.1758C30.2532 37.1758 29.4812 36.9063 28.8689 36.3672C28.2566 35.8281 27.9505 35.1484 27.9505 34.3281C27.9505 33.3203 28.324 32.5469 29.0711 32.0078C29.8181 31.4687 30.8977 31.1963 32.3098 31.1904H33.4788V30.6455C33.4788 30.2061 33.366 29.8545 33.1404 29.5908C32.9148 29.3271 32.5589 29.1953 32.0725 29.1953C31.6448 29.1953 31.3093 29.2979 31.0662 29.5029C30.823 29.708 30.7014 29.9893 30.7014 30.3467H28.1614C28.1614 29.7959 28.3313 29.2861 28.6712 28.8174C29.011 28.3486 29.4915 27.981 30.1126 27.7144C30.7337 27.4478 31.4309 27.3145 32.2044 27.3145C33.3762 27.3145 34.3064 27.6089 34.9949 28.1978C35.6834 28.7866 36.0276 29.6143 36.0276 30.6807V34.8027C36.0335 35.7051 36.1594 36.3877 36.4055 36.8506V37H33.8391ZM31.7385 35.2334C32.1135 35.2334 32.4592 35.1499 32.7756 34.9829C33.0921 34.8159 33.3264 34.5918 33.4788 34.3105V32.6758H32.5296C31.2581 32.6758 30.5813 33.1152 30.4993 33.9941L30.4905 34.1436C30.4905 34.46 30.6018 34.7207 30.8245 34.9258C31.0471 35.1309 31.3518 35.2334 31.7385 35.2334ZM37.1513 32.1748C37.1513 30.6924 37.4838 29.5117 38.1488 28.6328C38.8139 27.7539 39.7235 27.3145 40.8778 27.3145C41.8036 27.3145 42.5683 27.6602 43.1718 28.3516V23.5H45.7206V37H43.4267L43.3036 35.9893C42.6708 36.7803 41.8563 37.1758 40.8603 37.1758C39.7411 37.1758 38.8432 36.7349 38.1664 35.853C37.4896 34.9712 37.1513 33.7451 37.1513 32.1748ZM39.6913 32.3594C39.6913 33.25 39.8466 33.9326 40.1571 34.4072C40.4677 34.8818 40.9188 35.1191 41.5106 35.1191C42.2958 35.1191 42.8495 34.7881 43.1718 34.126V30.373C42.8554 29.7109 42.3075 29.3799 41.5282 29.3799C40.3036 29.3799 39.6913 30.373 39.6913 32.3594Z" fill="#7BB6F6"/>
<path fill-rule="evenodd" clip-rule="evenodd" d="M35 63.9009H37.6006V87.3071H46.0529L52.5545 75.7395V87.3071H60.3563L72.0594 63.9009H74.66V60H62.9572V63.9009H64.9077L60.3563 72.8679V60H51.2541L43.452 74.6831V63.9009H46.0529V60H35V63.9009Z" fill="#7BB6F6"/>
</svg>
