<svg width="96" height="107" viewBox="0 0 96 107" fill="none" xmlns="http://www.w3.org/2000/svg">
<path d="M95.7694 106.363H14V0H70.2165L95.7694 25.3245V106.363Z" fill="#4D1772"/>
<path d="M92.2753 28.0582H68V4L92.2753 28.0582Z" fill="#D512FA"/>
<rect y="16" width="55" height="28" rx="4" fill="black"/>
<path fill-rule="evenodd" clip-rule="evenodd" d="M21.8799 32.3154H19.7793V37H17.1426V24.2031H21.8975C23.4092 24.2031 24.5752 24.54 25.3955 25.2139C26.2158 25.8877 26.626 26.8398 26.626 28.0703C26.626 28.9434 26.437 29.6714 26.0591 30.2544C25.6812 30.8374 25.1084 31.3018 24.3408 31.6475L27.1094 36.877V37H24.2793L21.8799 32.3154ZM19.7793 30.1797H21.9062C22.5684 30.1797 23.0811 30.0112 23.4443 29.6743C23.8076 29.3374 23.9893 28.873 23.9893 28.2812C23.9893 27.6777 23.8179 27.2031 23.4751 26.8574C23.1323 26.5117 22.6064 26.3389 21.8975 26.3389H19.7793V30.1797ZM30.8346 32.4912V37H28.1979V24.2031H33.1901C34.151 24.2031 34.9962 24.3789 35.7257 24.7305C36.4552 25.082 37.0162 25.5815 37.4088 26.229C37.8014 26.8765 37.9977 27.6133 37.9977 28.4395C37.9977 29.6934 37.5685 30.6821 36.7101 31.4058C35.8517 32.1294 34.6637 32.4912 33.1461 32.4912H30.8346ZM30.8346 30.3555H33.1901C33.8873 30.3555 34.4191 30.1914 34.7853 29.8633C35.1515 29.5352 35.3346 29.0664 35.3346 28.457C35.3346 27.8301 35.15 27.3232 34.7809 26.9365C34.4117 26.5498 33.902 26.3506 33.2516 26.3389H30.8346V30.3555Z" fill="#D512FA"/>
<path fill-rule="evenodd" clip-rule="evenodd" d="M36 53V61H72V53H36ZM36 65V89H60V65H36ZM64 89V65H72V89H64Z" fill="#D512FA"/>
</svg>
