<svg width="96" height="107" viewBox="0 0 96 107" fill="none" xmlns="http://www.w3.org/2000/svg">
<path d="M95.7694 106.363H14V0H70.2165L95.7694 25.3245V106.363Z" fill="#1C5DA4"/>
<path d="M92.0602 27.5664H67.7849V3.50818L92.0602 27.5664Z" fill="#7BB6F6"/>
<rect y="16" width="55" height="28" rx="4" fill="#2C7ACD"/>
<path d="M18.5532 31.5757H16.5693V36H14.0791V23.9141H18.5698C19.9976 23.9141 21.0988 24.2323 21.8735 24.8687C22.6483 25.505 23.0356 26.4043 23.0356 27.5664C23.0356 28.391 22.8558 29.0799 22.4961 29.6333C22.1419 30.1812 21.6024 30.6183 20.8774 30.9448L23.4922 35.8838V36H20.8193L18.5532 31.5757ZM16.5693 29.5586H18.5781C19.2035 29.5586 19.6877 29.4009 20.0308 29.0854C20.3739 28.7645 20.5454 28.3245 20.5454 27.7656C20.5454 27.1956 20.3822 26.7474 20.0557 26.4209C19.7347 26.0944 19.2394 25.9312 18.5698 25.9312H16.5693V29.5586ZM33.1871 25.9312H29.485V36H26.9948V25.9312H23.3424V23.9141H33.1871V25.9312ZM41.4544 31.061H36.6731V36H34.1829V23.9141H42.052V25.9312H36.6731V29.0522H41.4544V31.061Z" fill="#69A5F3"/>
<path fill-rule="evenodd" clip-rule="evenodd" d="M68.3008 58L70.6211 66.6836L68.7227 67.2109C68.2773 66.3437 67.8203 65.5117 67.3516 64.7148C66.8828 63.918 66.3789 63.2969 65.8398 62.8516C65.3008 62.4062 64.7324 62.1484 64.1348 62.0781C63.5371 62.0078 62.9336 61.9727 62.3242 61.9727H57.332V82.9961C57.332 83.4883 57.3555 83.9629 57.4023 84.4199C57.4492 84.877 57.6367 85.2344 57.9648 85.4922C58.3164 85.7266 58.7969 85.8672 59.4062 85.9141C60.0156 85.9609 60.6484 85.9844 61.3047 85.9844V87.9883H49.3164V85.9844C49.9961 85.9844 50.6348 85.9609 51.2324 85.9141C51.8301 85.8672 52.3047 85.7266 52.6562 85.4922C52.9844 85.2344 53.1777 84.877 53.2363 84.4199C53.2949 83.9629 53.3242 83.4883 53.3242 82.9961V61.9727H48.332C47.7227 61.9727 47.1133 62.0078 46.5039 62.0781C45.8945 62.1484 45.3203 62.4062 44.7812 62.8516C44.2656 63.2969 43.7734 63.918 43.3047 64.7148C42.8359 65.5117 42.3789 66.3437 41.9336 67.2109L40 66.6836L42.3203 58H68.3008Z" fill="#7BB6F6"/>
</svg>
