<svg width="96" height="107" viewBox="0 0 96 107" fill="none" xmlns="http://www.w3.org/2000/svg">
<path d="M95.7694 106.363H14V0H70.2165L95.7694 25.3245V106.363Z" fill="#A63A3D"/>
<path d="M92.2753 28.0582H68V4L92.2753 28.0582Z" fill="#EB6D71"/>
<rect y="16" width="55" height="28" rx="4" fill="#5C1C1E"/>
<path fill-rule="evenodd" clip-rule="evenodd" d="M19.3462 32.8291C19.3462 32.3587 19.1802 31.9976 18.8481 31.7458C18.5161 31.4941 17.9185 31.2284 17.0552 30.949C16.1919 30.6695 15.5085 30.3942 15.0049 30.123C13.6325 29.3815 12.9463 28.3827 12.9463 27.1265C12.9463 26.4735 13.1303 25.891 13.4983 25.3792C13.8663 24.8673 14.3948 24.4674 15.0837 24.1797C15.7727 23.8919 16.5461 23.748 17.4038 23.748C18.2671 23.748 19.0363 23.9044 19.7114 24.217C20.3866 24.5297 20.9109 24.971 21.2844 25.541C21.658 26.111 21.8447 26.7585 21.8447 27.4834H19.3545C19.3545 26.93 19.1802 26.4998 18.8315 26.1926C18.4829 25.8855 17.9932 25.7319 17.3623 25.7319C16.7536 25.7319 16.2804 25.8606 15.9429 26.1179C15.6053 26.3752 15.4365 26.7142 15.4365 27.1348C15.4365 27.5277 15.6344 27.8569 16.03 28.1226C16.4257 28.3882 17.0081 28.6372 17.7773 28.8696C19.194 29.2957 20.2261 29.8242 20.8735 30.4551C21.521 31.0859 21.8447 31.8717 21.8447 32.8125C21.8447 33.8584 21.4491 34.6788 20.6577 35.2737C19.8664 35.8686 18.8011 36.166 17.4619 36.166C16.5322 36.166 15.6856 35.9959 14.9219 35.6555C14.1582 35.3152 13.5758 34.849 13.1746 34.2568C12.7734 33.6647 12.5728 32.9785 12.5728 32.1982H15.0713C15.0713 33.5319 15.8682 34.1987 17.4619 34.1987C18.054 34.1987 18.5161 34.0784 18.8481 33.8376C19.1802 33.5969 19.3462 33.2607 19.3462 32.8291ZM33.0089 30.231C33.0089 31.3599 32.8263 32.3407 32.4611 33.1736C32.0958 34.0064 31.5895 34.6746 30.942 35.1782L32.9508 36.7554L31.3654 38.1582L28.7921 36.0913C28.4988 36.1411 28.1945 36.166 27.879 36.166C26.8774 36.166 25.9837 35.9253 25.1979 35.4438C24.4121 34.9624 23.8034 34.2748 23.3717 33.3811C22.9401 32.4874 22.7215 31.4595 22.7159 30.2974V29.6997C22.7159 28.5099 22.9304 27.4627 23.3593 26.5579C23.7881 25.6531 24.3941 24.9586 25.1771 24.4744C25.9602 23.9902 26.8553 23.748 27.8624 23.748C28.8696 23.748 29.7647 23.9902 30.5477 24.4744C31.3308 24.9586 31.9367 25.6531 32.3656 26.5579C32.7945 27.4627 33.0089 28.5072 33.0089 29.6914V30.231ZM30.4855 29.6831C30.4855 28.4158 30.2586 27.453 29.8048 26.7944C29.351 26.1359 28.7036 25.8066 27.8624 25.8066C27.0268 25.8066 26.3821 26.1318 25.9284 26.782C25.4746 27.4322 25.2449 28.3854 25.2394 29.6416V30.231C25.2394 31.465 25.4663 32.4224 25.9201 33.103C26.3738 33.7837 27.0268 34.124 27.879 34.124C28.7147 34.124 29.3566 33.7961 29.8048 33.1404C30.2531 32.4846 30.4799 31.5287 30.4855 30.2725V29.6831ZM36.8933 33.9995H42.1809V36H34.4031V23.9141H36.8933V33.9995Z" fill="#EB6D71"/>
<path fill-rule="evenodd" clip-rule="evenodd" d="M37.0039 50H68.9961C69.5352 50 70.0039 50.1934 70.4023 50.5801C70.8008 50.9668 71 51.4414 71 52.0039V59.9844C71 60.5469 70.8008 61.0215 70.4023 61.4082C70.0039 61.7949 69.5352 61.9883 68.9961 61.9883H37.0039C36.4414 61.9883 35.9668 61.7949 35.5801 61.4082C35.1934 61.0215 35 60.5469 35 59.9844V52.0039C35 51.4414 35.1934 50.9668 35.5801 50.5801C35.9668 50.1934 36.4414 50 37.0039 50ZM37.0039 65.9961H68.9961C69.5352 65.9961 70.0039 66.1895 70.4023 66.5762C70.8008 66.9629 71 67.4375 71 68V69.3359L66.0078 67.1211L53 72.8867V77.9844H37.0039C36.4414 77.9844 35.9668 77.791 35.5801 77.4043C35.1934 77.0176 35 76.543 35 75.9805V68C35 67.4375 35.1934 66.9629 35.5801 66.5762C35.9668 66.1895 36.4414 65.9961 37.0039 65.9961ZM37.0039 81.9922H53C53.0234 83.1172 53.1582 84.2246 53.4043 85.3145C53.6504 86.4043 53.9844 87.459 54.4062 88.4785C54.8281 89.4981 55.3379 90.4707 55.9355 91.3965C56.5332 92.3223 57.1953 93.1836 57.9219 93.9805H37.0039C36.4414 93.9805 35.9668 93.7871 35.5801 93.4004C35.1934 93.0137 35 92.5508 35 92.0117V83.9961C35 83.457 35.1934 82.9883 35.5801 82.5898C35.9668 82.1914 36.4414 81.9922 37.0039 81.9922ZM46.9883 57.9805H48.9922V54.0078H46.9883V57.9805ZM46.9883 74.0117H48.9922V70.0039H46.9883V74.0117ZM46.9883 90.0078H48.9922V86H46.9883V90.0078ZM39.0078 54.0078V57.9805H42.9805V54.0078H39.0078ZM39.0078 70.0039V74.0117H42.9805V70.0039H39.0078ZM39.0078 86V90.0078H42.9805V86H39.0078ZM66.0078 72.0078L75.0078 75.9805V81.9922C75.0078 83.375 74.7793 84.7226 74.3223 86.0352C73.8652 87.3477 73.2324 88.5371 72.4238 89.6035C71.6152 90.6699 70.666 91.5898 69.5762 92.3633C68.4863 93.1367 67.2969 93.6758 66.0078 93.9805C64.7187 93.6758 63.5234 93.1367 62.4219 92.3633C61.3203 91.5898 60.3652 90.6699 59.5566 89.6035C58.748 88.5371 58.1211 87.3477 57.6758 86.0352C57.2305 84.7226 57.0078 83.375 57.0078 81.9922V75.9805L66.0078 72.0078ZM66.0078 75.875L60.9805 78.125V83.4336C60.9805 84.9805 61.4609 86.3926 62.4219 87.6699C63.3828 88.9473 64.5781 89.7617 66.0078 90.1133V75.875Z" fill="#EB6D71"/>
</svg>
