<svg width="96" height="107" viewBox="0 0 96 107" fill="none" xmlns="http://www.w3.org/2000/svg">
<path d="M95.7694 106.363H14V0H70.2165L95.7694 25.3245V106.363Z" fill="#D07012"/>
<path d="M92.2753 28.0582H68V4L92.2753 28.0582Z" fill="#FFAD5D"/>
<rect y="16" width="55" height="28" rx="4" fill="#A75402"/>
<path fill-rule="evenodd" clip-rule="evenodd" d="M17.7783 33.6426C17.7783 33.1445 17.6025 32.7622 17.251 32.4956C16.8994 32.229 16.2666 31.9478 15.3525 31.6519C14.4385 31.356 13.7148 31.0645 13.1816 30.7773C11.7285 29.9922 11.002 28.9346 11.002 27.6045C11.002 26.9131 11.1968 26.2964 11.5864 25.7544C11.9761 25.2124 12.5356 24.7891 13.2651 24.4844C13.9946 24.1797 14.8135 24.0273 15.7217 24.0273C16.6357 24.0273 17.4502 24.1929 18.165 24.5239C18.8799 24.855 19.4351 25.3223 19.8306 25.9258C20.2261 26.5293 20.4238 27.2148 20.4238 27.9824H17.7871C17.7871 27.3965 17.6025 26.9409 17.2334 26.6157C16.8643 26.2905 16.3457 26.1279 15.6777 26.1279C15.0332 26.1279 14.5322 26.2642 14.1748 26.5366C13.8174 26.8091 13.6387 27.168 13.6387 27.6133C13.6387 28.0293 13.8481 28.3779 14.2671 28.6592C14.686 28.9404 15.3027 29.2041 16.1172 29.4502C17.6172 29.9014 18.71 30.4609 19.3955 31.1289C20.0811 31.7969 20.4238 32.6289 20.4238 33.625C20.4238 34.7324 20.0049 35.6011 19.167 36.231C18.3291 36.8608 17.2012 37.1758 15.7832 37.1758C14.7988 37.1758 13.9023 36.9956 13.0938 36.6353C12.2852 36.2749 11.6685 35.7813 11.2437 35.1543C10.8188 34.5273 10.6064 33.8008 10.6064 32.9746H13.252C13.252 34.3867 14.0957 35.0928 15.7832 35.0928C16.4102 35.0928 16.8994 34.9653 17.251 34.7104C17.6025 34.4556 17.7783 34.0996 17.7783 33.6426ZM26.5045 33.8271L29.4049 24.2031H32.3405L27.8844 37H25.1334L20.695 24.2031H23.6217L26.5045 33.8271ZM43.1233 35.3828C42.6487 35.9512 41.9778 36.3921 41.1106 36.7056C40.2434 37.019 39.2825 37.1758 38.2278 37.1758C37.1204 37.1758 36.1492 36.9341 35.3142 36.4507C34.4793 35.9673 33.8347 35.2656 33.3806 34.3457C32.9265 33.4258 32.6936 32.3447 32.6819 31.1025V30.2324C32.6819 28.9551 32.8972 27.8491 33.3279 26.9146C33.7586 25.98 34.3796 25.2651 35.1912 24.77C36.0027 24.2749 36.9534 24.0273 38.0432 24.0273C39.5608 24.0273 40.7473 24.3892 41.6028 25.1128C42.4583 25.8364 42.9651 26.8896 43.1233 28.2725H40.5569C40.4397 27.54 40.1804 27.0039 39.7791 26.6641C39.3777 26.3242 38.8255 26.1543 38.1223 26.1543C37.2258 26.1543 36.5432 26.4912 36.0745 27.165C35.6057 27.8389 35.3684 28.8408 35.3626 30.1709V30.9883C35.3626 32.3301 35.6174 33.3437 36.1272 34.0293C36.637 34.7148 37.384 35.0576 38.3684 35.0576C39.3587 35.0576 40.0647 34.8467 40.4866 34.4248V32.2188H38.0872V30.2764H43.1233V35.3828Z" fill="#FFAD5D"/>
<path fill-rule="evenodd" clip-rule="evenodd" d="M33 71.9766L47.9766 86.9531L53.6719 81.2578L44.3203 71.9766L53.6719 62.625L47.9766 57L33 71.9766ZM77.6484 71.9766L62.6719 57L56.9766 62.625L66.3281 71.9766L56.9766 81.2578L62.6719 86.9531L77.6484 71.9766Z" fill="#FFAD5D"/>
</svg>
