<svg width="96" height="107" viewBox="0 0 96 107" fill="none" xmlns="http://www.w3.org/2000/svg">
<path d="M95.7694 106.363H14V0H70.2165L95.7694 25.3245V106.363Z" fill="#A75FD9"/>
<path d="M92.2753 28.0582H68V4L92.2753 28.0582Z" fill="#DBA7FF"/>
<rect y="16" width="55" height="28" rx="4" fill="#8950B1"/>
<path d="M17.3462 32.8291C17.3462 32.3587 17.1802 31.999 16.8481 31.75C16.5161 31.4954 15.9185 31.2298 15.0552 30.9531C14.1919 30.6709 13.5085 30.3942 13.0049 30.123C11.6325 29.3815 10.9463 28.3826 10.9463 27.1265C10.9463 26.4735 11.1289 25.8924 11.4941 25.3833C11.8649 24.8687 12.3934 24.4674 13.0796 24.1797C13.7713 23.8919 14.5461 23.748 15.4038 23.748C16.2671 23.748 17.0363 23.9058 17.7114 24.2212C18.3866 24.5311 18.9095 24.971 19.2803 25.541C19.6566 26.111 19.8447 26.7585 19.8447 27.4834H17.3545C17.3545 26.93 17.1802 26.5011 16.8315 26.1968C16.4829 25.8869 15.9932 25.7319 15.3623 25.7319C14.7536 25.7319 14.2804 25.862 13.9429 26.1221C13.6053 26.3766 13.4365 26.7142 13.4365 27.1348C13.4365 27.5277 13.633 27.8569 14.0259 28.1226C14.4243 28.3882 15.0081 28.6372 15.7773 28.8696C17.194 29.2957 18.2261 29.8242 18.8735 30.4551C19.521 31.0859 19.8447 31.8717 19.8447 32.8125C19.8447 33.8584 19.4491 34.6802 18.6577 35.2778C17.8664 35.87 16.8011 36.166 15.4619 36.166C14.5322 36.166 13.6855 35.9972 12.9219 35.6597C12.1582 35.3166 11.5744 34.849 11.1704 34.2568C10.772 33.6647 10.5728 32.9785 10.5728 32.1982H13.0713C13.0713 33.5319 13.8682 34.1987 15.4619 34.1987C16.054 34.1987 16.5161 34.0798 16.8481 33.8418C17.1802 33.5983 17.3462 33.2607 17.3462 32.8291ZM30.5432 32.5137L32.1701 23.9141H34.6521L31.9709 36H29.4641L27.4968 27.915L25.5295 36H23.0227L20.3415 23.9141H22.8234L24.4587 32.4971L26.4509 23.9141H28.5593L30.5432 32.5137ZM42.8686 31.061H38.0873V36H35.5971V23.9141H43.4662V25.9312H38.0873V29.0522H42.8686V31.061Z" fill="#CC98F1"/>
</svg>
