<svg width="96" height="107" viewBox="0 0 96 107" fill="none" xmlns="http://www.w3.org/2000/svg">
<path d="M95.7694 106.363H14V0H70.2165L95.7694 25.3245V106.363Z" fill="#0B3101"/>
<path d="M92.2753 28.0582H68V4L92.2753 28.0582Z" fill="#E6E6E6"/>
<rect y="16" width="55" height="28" rx="4" fill="black"/>
<path d="M23.3809 26.708H20.332V35H18.2812V26.708H15.2734V25.0469H23.3809V26.708ZM32.1582 26.708H29.1094V35H27.0586V26.708H24.0508V25.0469H32.1582V26.708ZM39.3223 30.9326H35.3848V35H33.334V25.0469H39.8145V26.708H35.3848V29.2783H39.3223V30.9326Z" fill="#E5E5E5"/>
<path d="M47.3125 80.9688H34.9844L32.6406 88H25.1641L37.8672 53.875H44.3828L57.1562 88H49.6797L47.3125 80.9688ZM36.8828 75.2734H45.4141L41.125 62.5L36.8828 75.2734ZM74.5938 88C74.2812 87.3906 74.0547 86.6328 73.9141 85.7266C72.2734 87.5547 70.1406 88.4688 67.5156 88.4688C65.0312 88.4688 62.9688 87.75 61.3281 86.3125C59.7031 84.875 58.8906 83.0625 58.8906 80.875C58.8906 78.1875 59.8828 76.125 61.8672 74.6875C63.8672 73.25 66.75 72.5234 70.5156 72.5078H73.6328V71.0547C73.6328 69.8828 73.3281 68.9453 72.7188 68.2422C72.125 67.5391 71.1797 67.1875 69.8828 67.1875C68.7422 67.1875 67.8438 67.4609 67.1875 68.0078C66.5469 68.5547 66.2266 69.3047 66.2266 70.2578H59.4531C59.4531 68.7891 59.9062 67.4297 60.8125 66.1797C61.7188 64.9297 63 63.9531 64.6562 63.25C66.3125 62.5312 68.1719 62.1719 70.2344 62.1719C73.3594 62.1719 75.8359 62.9609 77.6641 64.5391C79.5078 66.1016 80.4297 68.3047 80.4297 71.1484V82.1406C80.4453 84.5469 80.7812 86.3672 81.4375 87.6016V88H74.5938ZM68.9922 83.2891C69.9922 83.2891 70.9141 83.0703 71.7578 82.6328C72.6016 82.1797 73.2266 81.5781 73.6328 80.8281V76.4688H71.1016C67.7109 76.4688 65.9062 77.6406 65.6875 79.9844L65.6641 80.3828C65.6641 81.2266 65.9609 81.9219 66.5547 82.4688C67.1484 83.0156 67.9609 83.2891 68.9922 83.2891Z" fill="#E5E5E5"/>
</svg>
