<svg width="96" height="107" viewBox="0 0 96 107" fill="none" xmlns="http://www.w3.org/2000/svg">
<path d="M95.7694 106.363H14V0H70.2165L95.7694 25.3245V106.363Z" fill="#1C5DA4"/>
<path d="M92.0602 27.5664H67.7849V3.50818L92.0602 27.5664Z" fill="#7BB6F6"/>
<rect y="16" width="55" height="28" rx="4" fill="#2C7ACD"/>
<path d="M22.1768 25.9312H18.4746V36H15.9844V25.9312H12.332V23.9141H22.1768V25.9312ZM27.4972 28.0811L29.7633 23.9141H32.6271L29.1076 29.9072L32.7184 36H29.8214L27.4972 31.7666L25.173 36H22.276L25.8868 29.9072L22.3673 23.9141H25.2311L27.4972 28.0811ZM42.6458 25.9312H38.9436V36H36.4534V25.9312H32.801V23.9141H42.6458V25.9312Z" fill="#69A5F3"/>
<path fill-rule="evenodd" clip-rule="evenodd" d="M68.3008 58L70.6211 66.6836L68.7227 67.2109C68.2773 66.3437 67.8203 65.5117 67.3516 64.7148C66.8828 63.918 66.3789 63.2969 65.8398 62.8516C65.3008 62.4062 64.7324 62.1484 64.1348 62.0781C63.5371 62.0078 62.9336 61.9727 62.3242 61.9727H57.332V82.9961C57.332 83.4883 57.3555 83.9629 57.4023 84.4199C57.4492 84.877 57.6367 85.2344 57.9648 85.4922C58.3164 85.7266 58.7969 85.8672 59.4062 85.9141C60.0156 85.9609 60.6484 85.9844 61.3047 85.9844V87.9883H49.3164V85.9844C49.9961 85.9844 50.6348 85.9609 51.2324 85.9141C51.8301 85.8672 52.3047 85.7266 52.6562 85.4922C52.9844 85.2344 53.1777 84.877 53.2363 84.4199C53.2949 83.9629 53.3242 83.4883 53.3242 82.9961V61.9727H48.332C47.7227 61.9727 47.1133 62.0078 46.5039 62.0781C45.8945 62.1484 45.3203 62.4062 44.7812 62.8516C44.2656 63.2969 43.7734 63.918 43.3047 64.7148C42.8359 65.5117 42.3789 66.3437 41.9336 67.2109L40 66.6836L42.3203 58H68.3008Z" fill="#7BB6F6"/>
</svg>
