<svg width="96" height="107" viewBox="0 0 96 107" fill="none" xmlns="http://www.w3.org/2000/svg">
<path d="M95.7694 106.363H14V0H70.2165L95.7694 25.3245V106.363Z" fill="#11907C"/>
<path d="M92.2753 28.0582H68V4L92.2753 28.0582Z" fill="#37D2BA"/>
<rect y="16" width="55" height="28" rx="4" fill="#0D6254"/>
<path fill-rule="evenodd" clip-rule="evenodd" d="M22.2266 23.9141V31.8745C22.2266 33.1971 21.8129 34.243 20.9856 35.0122C20.1583 35.7814 19.028 36.166 17.5947 36.166C16.1836 36.166 15.063 35.7925 14.2329 35.0454C13.4028 34.2983 12.9795 33.2718 12.9629 31.9658V23.9141H15.4531V31.8911C15.4531 32.6825 15.6427 33.2594 16.0217 33.6218C16.4008 33.9843 16.9251 34.1655 17.5947 34.1655C18.9948 34.1655 19.7059 33.4295 19.728 31.9575V23.9141H22.2266ZM28.3107 31.5757H26.3268V36H23.8366V23.9141H28.3273C29.755 23.9141 30.8562 24.2323 31.631 24.8687C32.4057 25.505 32.7931 26.4043 32.7931 27.5664C32.7931 28.391 32.6146 29.0785 32.2577 29.6292C31.9008 30.1798 31.3598 30.6183 30.6349 30.9448L33.2496 35.8838V36H30.5768L28.3107 31.5757ZM26.3268 29.5586H28.3356C28.9609 29.5586 29.4451 29.3995 29.7882 29.0813C30.1313 28.7631 30.3029 28.3245 30.3029 27.7656C30.3029 27.1956 30.141 26.7474 29.8173 26.4209C29.4935 26.0944 28.9969 25.9312 28.3273 25.9312H26.3268V29.5586ZM36.7439 33.9995H42.0315V36H34.2537V23.9141H36.7439V33.9995Z" fill="#37D2BA"/>
<path fill-rule="evenodd" clip-rule="evenodd" d="M66.7812 82.7617C67.4375 82.0586 68.0234 81.2969 68.5391 80.4766C69.0547 79.6562 69.4941 78.7891 69.8574 77.875C70.2207 76.9609 70.502 76.0117 70.7012 75.0273C70.9004 74.043 71 73.0352 71 72.0039C71 70.3164 70.7539 68.7051 70.2617 67.1699C69.7695 65.6348 69.0781 64.2285 68.1875 62.9512C67.2969 61.6738 66.2422 60.5371 65.0234 59.541C63.8047 58.5449 62.457 57.7539 60.9805 57.168V57.9766C60.9805 59.0781 60.5879 60.0215 59.8027 60.8066C59.0176 61.5918 58.0859 61.9844 57.0078 61.9844H53V65.9922C53 66.5313 52.8008 67 52.4023 67.3984C52.0039 67.7969 51.5352 67.9961 50.9961 67.9961H46.9883V72.0039H58.9766C59.5391 72.0039 60.0137 72.1973 60.4004 72.584C60.7871 72.9707 60.9805 73.4453 60.9805 74.0078V79.9844H62.9844C63.875 79.9844 64.666 80.248 65.3574 80.7754C66.0488 81.3027 66.5234 81.9648 66.7812 82.7617ZM53 87.8594V83.9922C51.8984 83.9922 50.9551 83.5996 50.1699 82.8145C49.3848 82.0293 48.9922 81.0859 48.9922 79.9844V77.9805L39.4297 68.418C39.2891 68.9805 39.1836 69.5605 39.1133 70.1582C39.043 70.7559 39.0078 71.3711 39.0078 72.0039C39.0078 74.043 39.3652 75.9707 40.0801 77.7871C40.7949 79.6035 41.7793 81.2148 43.0332 82.6211C44.2871 84.0274 45.7695 85.1875 47.4805 86.1016C49.1914 87.0156 51.0312 87.6016 53 87.8594ZM55.0039 52C57.7461 52 60.3359 52.5215 62.7734 53.5645C65.2109 54.6074 67.332 56.0371 69.1367 57.8535C70.9414 59.6699 72.3711 61.791 73.4258 64.2168C74.4805 66.6426 75.0078 69.2383 75.0078 72.0039C75.0078 74.7461 74.4805 77.3359 73.4258 79.7734C72.3711 82.2109 70.9414 84.332 69.1367 86.1367C67.332 87.9414 65.2109 89.3711 62.7734 90.4258C60.3359 91.4805 57.7461 92.0078 55.0039 92.0078C52.2383 92.0078 49.6426 91.4805 47.2168 90.4258C44.791 89.3711 42.6699 87.9414 40.8535 86.1367C39.0371 84.332 37.6074 82.2109 36.5645 79.7734C35.5215 77.3359 35 74.7461 35 72.0039C35 69.2383 35.5215 66.6426 36.5645 64.2168C37.6074 61.791 39.0371 59.6699 40.8535 57.8535C42.6699 56.0371 44.791 54.6074 47.2168 53.5645C49.6426 52.5215 52.2383 52 55.0039 52Z" fill="#37D2BA"/>
</svg>
