<svg width="96" height="107" viewBox="0 0 96 107" fill="none" xmlns="http://www.w3.org/2000/svg">
<path d="M95.7694 106.363H14V0H70.2165L95.7694 25.3245V106.363Z" fill="#403534"/>
<path d="M92.2753 28.0582H68V4L92.2753 28.0582Z" fill="#E5BEBA"/>
<rect y="16" width="55" height="28" rx="4" fill="#2F2726"/>
<path fill-rule="evenodd" clip-rule="evenodd" d="M16.5449 33.0034L19.2842 23.9141H22.0566L17.8481 36H15.25L11.0581 23.9141H13.8223L16.5449 33.0034ZM32.1417 31.9741C32.0477 33.2746 31.5676 34.2983 30.7015 35.0454C29.8355 35.7925 28.6941 36.166 27.2775 36.166C25.728 36.166 24.5092 35.6445 23.621 34.6013C22.7328 33.5582 22.2887 32.1263 22.2887 30.3057V29.5669C22.2887 28.4048 22.4935 27.381 22.903 26.4956C23.3125 25.6102 23.8977 24.9309 24.6586 24.4578C25.4195 23.9846 26.3035 23.748 27.3107 23.748C28.7052 23.748 29.8286 24.1216 30.6808 24.8687C31.533 25.6157 32.0255 26.6644 32.1583 28.0146H29.6681C29.6072 27.2344 29.39 26.6685 29.0165 26.3171C28.6429 25.9657 28.0744 25.79 27.3107 25.79C26.4806 25.79 25.8594 26.0875 25.4472 26.6824C25.0349 27.2773 24.8232 28.2 24.8121 29.4507V30.3638C24.8121 31.6698 25.01 32.6243 25.4056 33.2275C25.8013 33.8307 26.4253 34.1323 27.2775 34.1323C28.0467 34.1323 28.6208 33.9566 28.9999 33.6052C29.379 33.2538 29.5962 32.7101 29.6515 31.9741H32.1417ZM40.6165 31.061H35.8352V36H33.345V23.9141H41.2141V25.9312H35.8352V29.0522H40.6165V31.061Z" fill="#E5BEBA"/>
<path fill-rule="evenodd" clip-rule="evenodd" d="M35.0078 55.3867H75.0156C76.0469 55.3867 76.9668 55.791 77.7754 56.5996C78.584 57.4082 78.9883 58.3281 78.9883 59.3594V87.3789C78.9883 88.4336 78.584 89.3652 77.7754 90.1738C76.9668 90.9824 76.0469 91.3867 75.0156 91.3867H35.0078C33.9531 91.3867 33.0215 90.9824 32.2129 90.1738C31.4043 89.3652 31 88.4336 31 87.3789V59.3594C31 58.3281 31.4043 57.4082 32.2129 56.5996C33.0215 55.791 33.9531 55.3867 35.0078 55.3867ZM58.9844 61.3633V63.3672H75.0156V61.3633H58.9844ZM58.9844 65.3711V67.375H75.0156V65.3711H58.9844ZM58.9844 69.3789V71.3828H73.0117V69.3789H58.9844ZM46.9961 77.1836C45.9883 77.1836 44.7988 77.3184 43.4277 77.5879C42.0566 77.8574 40.7441 78.2559 39.4902 78.7832C38.2363 79.3105 37.1758 79.9551 36.3086 80.7168C35.4414 81.4785 35.0078 82.3633 35.0078 83.3711V85.375H58.9844V83.3711C58.9844 82.3633 58.5508 81.4785 57.6836 80.7168C56.8164 79.9551 55.7559 79.3105 54.502 78.7832C53.248 78.2559 51.9356 77.8574 50.5645 77.5879C49.1934 77.3184 48.0039 77.1836 46.9961 77.1836ZM46.9961 61.3633C45.332 61.3633 43.9141 61.9492 42.7422 63.1211C41.5703 64.293 40.9844 65.7109 40.9844 67.375C40.9844 69.0391 41.5703 70.457 42.7422 71.6289C43.9141 72.8008 45.332 73.3867 46.9961 73.3867C48.6602 73.3867 50.0781 72.8008 51.25 71.6289C52.4219 70.457 53.0078 69.0391 53.0078 67.375C53.0078 65.7109 52.4219 64.293 51.25 63.1211C50.0781 61.9492 48.6602 61.3633 46.9961 61.3633Z" fill="#E5BEBA"/>
</svg>
