<svg width="96" height="107" viewBox="0 0 96 107" fill="none" xmlns="http://www.w3.org/2000/svg">
<path d="M95.7694 106.363H14V0H70.2165L95.7694 25.3245V106.363Z" fill="#A75FD9"/>
<path d="M92.2753 28.0582H68V4L92.2753 28.0582Z" fill="#DBA7FF"/>
<rect y="16" width="55" height="28" rx="4" fill="#8950B1"/>
<path d="M14.8711 33.8271L17.7715 24.2031H20.707L16.251 37H13.5L9.06152 24.2031H11.9883L14.8711 33.8271ZM31.8766 30.8916C31.8766 32.1514 31.6539 33.2559 31.2086 34.2051C30.7633 35.1543 30.1246 35.8867 29.2926 36.4023C28.4664 36.918 27.5172 37.1758 26.445 37.1758C25.3844 37.1758 24.4381 36.9209 23.6061 36.4111C22.7741 35.9014 22.1295 35.1748 21.6725 34.2314C21.2155 33.2822 20.984 32.1924 20.9782 30.9619V30.3291C20.9782 29.0693 21.2037 27.9619 21.6549 27.0068C22.1119 26.0459 22.7535 25.3105 23.5797 24.8008C24.4117 24.2852 25.361 24.0273 26.4274 24.0273C27.4938 24.0273 28.4401 24.2852 29.2662 24.8008C30.0983 25.3105 30.7399 26.0459 31.191 27.0068C31.6481 27.9619 31.8766 29.0664 31.8766 30.3203V30.8916ZM29.2047 30.3115C29.2047 28.9697 28.9645 27.9502 28.484 27.2529C28.0035 26.5557 27.318 26.207 26.4274 26.207C25.5426 26.207 24.86 26.5527 24.3795 27.2441C23.8991 27.9297 23.6559 28.9375 23.65 30.2676V30.8916C23.65 32.1982 23.8903 33.2119 24.3707 33.9326C24.8512 34.6533 25.5426 35.0137 26.445 35.0137C27.3297 35.0137 28.0094 34.668 28.484 33.9766C28.9586 33.2793 29.1989 32.2656 29.2047 30.9355V30.3115ZM33.3606 37V24.2031H37.843C39.3958 24.2031 40.5735 24.502 41.3762 25.0996C42.179 25.6914 42.5803 26.5615 42.5803 27.71C42.5803 28.3369 42.4192 28.8906 42.0969 29.3711C41.7747 29.8457 41.3264 30.1943 40.7522 30.417C41.4085 30.5811 41.9241 30.9121 42.2991 31.4102C42.6799 31.9082 42.8704 32.5176 42.8704 33.2383C42.8704 34.4688 42.4778 35.4004 41.6926 36.0332C40.9075 36.666 39.7883 36.9883 38.3352 37H33.3606ZM35.9973 31.4277V34.8818H38.2561C38.8772 34.8818 39.3606 34.7354 39.7063 34.4424C40.0579 34.1436 40.2337 33.7334 40.2337 33.2119C40.2337 32.04 39.6272 31.4453 38.4143 31.4277H35.9973ZM35.9973 29.5645H37.9485C39.2786 29.541 39.9436 29.0107 39.9436 27.9736C39.9436 27.3936 39.7737 26.9775 39.4339 26.7256C39.0999 26.4678 38.5696 26.3389 37.843 26.3389H35.9973V29.5645Z" fill="#CC98F1"/>
</svg>
