<svg width="96" height="107" viewBox="0 0 96 107" fill="none" xmlns="http://www.w3.org/2000/svg">
<path d="M92.2753 28.0582H68V4L92.2753 28.0582Z" fill="#7BB6F6"/>
<rect y="16" width="55" height="28" rx="4" fill="#2C7ACD"/>
<path d="M10.1426 37V24.2031H14.0801C15.2051 24.2031 16.21 24.458 17.0947 24.9678C17.9854 25.4717 18.6797 26.1924 19.1777 27.1299C19.6758 28.0615 19.9248 29.1221 19.9248 30.3115V30.9004C19.9248 32.0898 19.6787 33.1475 19.1865 34.0732C18.7002 34.999 18.0117 35.7168 17.1211 36.2266C16.2305 36.7363 15.2256 36.9941 14.1064 37H10.1426ZM12.7793 26.3389V34.8818H14.0537C15.085 34.8818 15.873 34.5449 16.418 33.8711C16.9629 33.1973 17.2412 32.2334 17.2529 30.9795V30.3027C17.2529 29.002 16.9834 28.0176 16.4443 27.3496C15.9053 26.6758 15.1172 26.3389 14.0801 26.3389H12.7793ZM31.9293 30.8916C31.9293 32.1514 31.7067 33.2559 31.2614 34.2051C30.816 35.1543 30.1774 35.8867 29.3453 36.4023C28.5192 36.918 27.57 37.1758 26.4977 37.1758C25.4371 37.1758 24.4909 36.9209 23.6588 36.4111C22.8268 35.9014 22.1823 35.1748 21.7252 34.2314C21.2682 33.2822 21.0367 32.1924 21.0309 30.9619V30.3291C21.0309 29.0693 21.2565 27.9619 21.7076 27.0068C22.1647 26.0459 22.8063 25.3105 23.6325 24.8008C24.4645 24.2852 25.4137 24.0273 26.4801 24.0273C27.5465 24.0273 28.4928 24.2852 29.319 24.8008C30.151 25.3105 30.7926 26.0459 31.2438 27.0068C31.7008 27.9619 31.9293 29.0664 31.9293 30.3203V30.8916ZM29.2575 30.3115C29.2575 28.9697 29.0172 27.9502 28.5367 27.2529C28.0563 26.5557 27.3707 26.207 26.4801 26.207C25.5953 26.207 24.9127 26.5527 24.4323 27.2441C23.9518 27.9297 23.7086 28.9375 23.7028 30.2676V30.8916C23.7028 32.1982 23.943 33.2119 24.4235 33.9326C24.9039 34.6533 25.5953 35.0137 26.4977 35.0137C27.3825 35.0137 28.0621 34.668 28.5367 33.9766C29.0114 33.2793 29.2516 32.2656 29.2575 30.9355V30.3115ZM43.4592 32.7373C43.3596 34.1143 42.8499 35.1982 41.9299 35.9893C41.0159 36.7803 39.8089 37.1758 38.3089 37.1758C36.6682 37.1758 35.3762 36.625 34.4329 35.5234C33.4954 34.416 33.0266 32.8984 33.0266 30.9707V30.1885C33.0266 28.958 33.2434 27.874 33.677 26.9365C34.1106 25.999 34.7288 25.2812 35.5315 24.7832C36.3401 24.2793 37.2776 24.0273 38.344 24.0273C39.8206 24.0273 41.01 24.4229 41.9124 25.2139C42.8147 26.0049 43.3362 27.1152 43.4768 28.5449H40.8401C40.7756 27.7188 40.5442 27.1211 40.1458 26.752C39.7532 26.377 39.1526 26.1895 38.344 26.1895C37.4651 26.1895 36.8059 26.5059 36.3665 27.1387C35.9329 27.7656 35.7102 28.7412 35.6985 30.0654V31.0322C35.6985 32.415 35.9065 33.4258 36.3225 34.0645C36.7444 34.7031 37.4065 35.0225 38.3089 35.0225C39.1233 35.0225 39.7297 34.8379 40.1282 34.4688C40.5325 34.0938 40.7639 33.5166 40.8225 32.7373H43.4592Z" fill="#69A5F3"/>
<path fill-rule="evenodd" clip-rule="evenodd" d="M40 67.9175H41.945V85.4228H48.2664L53.1289 76.7715V85.4228H58.9638L67.7165 67.9175H69.6615V65H60.909V67.9175H62.3678L58.9638 74.6238V65H52.1564L46.3212 75.9814V67.9175H48.2664V65H40V67.9175Z" fill="#76B1F1"/>
<path d="M92.2753 28.0582H68V4L92.2753 28.0582Z" fill="#7BB6F6"/>
<rect y="16" width="55" height="28" rx="4" fill="#2C7ACD"/>
<path d="M10.1426 37V24.2031H14.0801C15.2051 24.2031 16.21 24.458 17.0947 24.9678C17.9854 25.4717 18.6797 26.1924 19.1777 27.1299C19.6758 28.0615 19.9248 29.1221 19.9248 30.3115V30.9004C19.9248 32.0898 19.6787 33.1475 19.1865 34.0732C18.7002 34.999 18.0117 35.7168 17.1211 36.2266C16.2305 36.7363 15.2256 36.9941 14.1064 37H10.1426ZM12.7793 26.3389V34.8818H14.0537C15.085 34.8818 15.873 34.5449 16.418 33.8711C16.9629 33.1973 17.2412 32.2334 17.2529 30.9795V30.3027C17.2529 29.002 16.9834 28.0176 16.4443 27.3496C15.9053 26.6758 15.1172 26.3389 14.0801 26.3389H12.7793ZM31.9293 30.8916C31.9293 32.1514 31.7067 33.2559 31.2614 34.2051C30.816 35.1543 30.1774 35.8867 29.3453 36.4023C28.5192 36.918 27.57 37.1758 26.4977 37.1758C25.4371 37.1758 24.4909 36.9209 23.6588 36.4111C22.8268 35.9014 22.1823 35.1748 21.7252 34.2314C21.2682 33.2822 21.0367 32.1924 21.0309 30.9619V30.3291C21.0309 29.0693 21.2565 27.9619 21.7076 27.0068C22.1647 26.0459 22.8063 25.3105 23.6325 24.8008C24.4645 24.2852 25.4137 24.0273 26.4801 24.0273C27.5465 24.0273 28.4928 24.2852 29.319 24.8008C30.151 25.3105 30.7926 26.0459 31.2438 27.0068C31.7008 27.9619 31.9293 29.0664 31.9293 30.3203V30.8916ZM29.2575 30.3115C29.2575 28.9697 29.0172 27.9502 28.5367 27.2529C28.0563 26.5557 27.3707 26.207 26.4801 26.207C25.5953 26.207 24.9127 26.5527 24.4323 27.2441C23.9518 27.9297 23.7086 28.9375 23.7028 30.2676V30.8916C23.7028 32.1982 23.943 33.2119 24.4235 33.9326C24.9039 34.6533 25.5953 35.0137 26.4977 35.0137C27.3825 35.0137 28.0621 34.668 28.5367 33.9766C29.0114 33.2793 29.2516 32.2656 29.2575 30.9355V30.3115ZM43.4592 32.7373C43.3596 34.1143 42.8499 35.1982 41.9299 35.9893C41.0159 36.7803 39.8089 37.1758 38.3089 37.1758C36.6682 37.1758 35.3762 36.625 34.4329 35.5234C33.4954 34.416 33.0266 32.8984 33.0266 30.9707V30.1885C33.0266 28.958 33.2434 27.874 33.677 26.9365C34.1106 25.999 34.7288 25.2812 35.5315 24.7832C36.3401 24.2793 37.2776 24.0273 38.344 24.0273C39.8206 24.0273 41.01 24.4229 41.9124 25.2139C42.8147 26.0049 43.3362 27.1152 43.4768 28.5449H40.8401C40.7756 27.7188 40.5442 27.1211 40.1458 26.752C39.7532 26.377 39.1526 26.1895 38.344 26.1895C37.4651 26.1895 36.8059 26.5059 36.3665 27.1387C35.9329 27.7656 35.7102 28.7412 35.6985 30.0654V31.0322C35.6985 32.415 35.9065 33.4258 36.3225 34.0645C36.7444 34.7031 37.4065 35.0225 38.3089 35.0225C39.1233 35.0225 39.7297 34.8379 40.1282 34.4688C40.5325 34.0938 40.7639 33.5166 40.8225 32.7373H43.4592Z" fill="#69A5F3"/>
<path fill-rule="evenodd" clip-rule="evenodd" d="M35 63.9009H37.6006V87.3071H46.0529L52.5545 75.7395V87.3071H60.3563L72.0594 63.9009H74.66V60H62.9572V63.9009H64.9077L60.3563 72.8679V60H51.2541L43.452 74.6831V63.9009H46.0529V60H35V63.9009Z" fill="white"/>
<path d="M92.2753 28.0582H68V4L92.2753 28.0582Z" fill="#7BB6F6"/>
<rect y="16" width="55" height="28" rx="4" fill="#2C7ACD"/>
<path d="M10.1426 37V24.2031H14.0801C15.2051 24.2031 16.21 24.458 17.0947 24.9678C17.9854 25.4717 18.6797 26.1924 19.1777 27.1299C19.6758 28.0615 19.9248 29.1221 19.9248 30.3115V30.9004C19.9248 32.0898 19.6787 33.1475 19.1865 34.0732C18.7002 34.999 18.0117 35.7168 17.1211 36.2266C16.2305 36.7363 15.2256 36.9941 14.1064 37H10.1426ZM12.7793 26.3389V34.8818H14.0537C15.085 34.8818 15.873 34.5449 16.418 33.8711C16.9629 33.1973 17.2412 32.2334 17.2529 30.9795V30.3027C17.2529 29.002 16.9834 28.0176 16.4443 27.3496C15.9053 26.6758 15.1172 26.3389 14.0801 26.3389H12.7793ZM31.9293 30.8916C31.9293 32.1514 31.7067 33.2559 31.2614 34.2051C30.816 35.1543 30.1774 35.8867 29.3453 36.4023C28.5192 36.918 27.57 37.1758 26.4977 37.1758C25.4371 37.1758 24.4909 36.9209 23.6588 36.4111C22.8268 35.9014 22.1823 35.1748 21.7252 34.2314C21.2682 33.2822 21.0367 32.1924 21.0309 30.9619V30.3291C21.0309 29.0693 21.2565 27.9619 21.7076 27.0068C22.1647 26.0459 22.8063 25.3105 23.6325 24.8008C24.4645 24.2852 25.4137 24.0273 26.4801 24.0273C27.5465 24.0273 28.4928 24.2852 29.319 24.8008C30.151 25.3105 30.7926 26.0459 31.2438 27.0068C31.7008 27.9619 31.9293 29.0664 31.9293 30.3203V30.8916ZM29.2575 30.3115C29.2575 28.9697 29.0172 27.9502 28.5367 27.2529C28.0563 26.5557 27.3707 26.207 26.4801 26.207C25.5953 26.207 24.9127 26.5527 24.4323 27.2441C23.9518 27.9297 23.7086 28.9375 23.7028 30.2676V30.8916C23.7028 32.1982 23.943 33.2119 24.4235 33.9326C24.9039 34.6533 25.5953 35.0137 26.4977 35.0137C27.3825 35.0137 28.0621 34.668 28.5367 33.9766C29.0114 33.2793 29.2516 32.2656 29.2575 30.9355V30.3115ZM43.4592 32.7373C43.3596 34.1143 42.8499 35.1982 41.9299 35.9893C41.0159 36.7803 39.8089 37.1758 38.3089 37.1758C36.6682 37.1758 35.3762 36.625 34.4329 35.5234C33.4954 34.416 33.0266 32.8984 33.0266 30.9707V30.1885C33.0266 28.958 33.2434 27.874 33.677 26.9365C34.1106 25.999 34.7288 25.2812 35.5315 24.7832C36.3401 24.2793 37.2776 24.0273 38.344 24.0273C39.8206 24.0273 41.01 24.4229 41.9124 25.2139C42.8147 26.0049 43.3362 27.1152 43.4768 28.5449H40.8401C40.7756 27.7188 40.5442 27.1211 40.1458 26.752C39.7532 26.377 39.1526 26.1895 38.344 26.1895C37.4651 26.1895 36.8059 26.5059 36.3665 27.1387C35.9329 27.7656 35.7102 28.7412 35.6985 30.0654V31.0322C35.6985 32.415 35.9065 33.4258 36.3225 34.0645C36.7444 34.7031 37.4065 35.0225 38.3089 35.0225C39.1233 35.0225 39.7297 34.8379 40.1282 34.4688C40.5325 34.0938 40.7639 33.5166 40.8225 32.7373H43.4592Z" fill="#69A5F3"/>
<path fill-rule="evenodd" clip-rule="evenodd" d="M40 67.9175H41.945V85.4228H48.2664L53.1289 76.7715V85.4228H58.9638L67.7165 67.9175H69.6615V65H60.909V67.9175H62.3678L58.9638 74.6238V65H52.1564L46.3212 75.9814V67.9175H48.2664V65H40V67.9175Z" fill="#76B1F1"/>
<path d="M95.7694 106.363H14V0H70.2165L95.7694 25.3245V106.363Z" fill="#B9B8A2"/>
<path d="M92.2753 28.0582H68V4L92.2753 28.0582Z" fill="#E2E0C1"/>
<rect y="16" width="55" height="28" rx="4" fill="#7E7F72"/>
<path fill-rule="evenodd" clip-rule="evenodd" d="M17.5449 33.0034L20.2842 23.9141H23.0566L18.8481 36H16.25L12.0581 23.9141H14.8223L17.5449 33.0034ZM30.0289 32.8291C30.0289 32.3587 29.8629 31.9976 29.5309 31.7458C29.1989 31.4941 28.6012 31.2284 27.7379 30.949C26.8746 30.6695 26.1912 30.3942 25.6876 30.123C24.3152 29.3815 23.629 28.3827 23.629 27.1265C23.629 26.4735 23.813 25.891 24.181 25.3792C24.549 24.8673 25.0775 24.4674 25.7665 24.1797C26.4555 23.8919 27.2288 23.748 28.0866 23.748C28.9498 23.748 29.719 23.9044 30.3942 24.217C31.0693 24.5297 31.5936 24.971 31.9672 25.541C32.3407 26.111 32.5275 26.7585 32.5275 27.4834H30.0372C30.0372 26.93 29.8629 26.4998 29.5143 26.1926C29.1657 25.8855 28.6759 25.7319 28.0451 25.7319C27.4363 25.7319 26.9632 25.8606 26.6256 26.1179C26.2881 26.3752 26.1193 26.7142 26.1193 27.1348C26.1193 27.5277 26.3171 27.8569 26.7128 28.1226C27.1084 28.3882 27.6909 28.6372 28.4601 28.8696C29.8768 29.2957 30.9088 29.8242 31.5563 30.4551C32.2037 31.0859 32.5275 31.8717 32.5275 32.8125C32.5275 33.8584 32.1318 34.6788 31.3405 35.2737C30.5491 35.8686 29.4839 36.166 28.1447 36.166C27.215 36.166 26.3683 35.9959 25.6046 35.6555C24.8409 35.3152 24.2585 34.849 23.8573 34.2568C23.4561 33.6647 23.2555 32.9785 23.2555 32.1982H25.754C25.754 33.5319 26.5509 34.1987 28.1447 34.1987C28.7368 34.1987 29.1989 34.0784 29.5309 33.8376C29.8629 33.5969 30.0289 33.2607 30.0289 32.8291ZM42.8782 25.9312H39.176V36H36.6858V25.9312H33.0335V23.9141H42.8782V25.9312Z" fill="#E2E0C1"/>
<rect x="36" y="81" width="11" height="11" fill="#E2E0C1"/>
<path d="M67.0022 68.1495L60.8858 62.019C60.4489 61.5811 60.4489 60.9242 60.8858 60.4863L67.0022 54.3558C67.4391 53.9179 68.0945 53.9179 68.5314 54.3558L74.6478 60.4863C75.0847 60.9242 75.0847 61.5811 74.6478 62.019L68.5314 68.1495C68.0945 68.5874 67.4391 68.5874 67.0022 68.1495Z" fill="#E2E0C1"/>
<ellipse cx="41.5534" cy="61.2526" rx="6.55336" ry="6.56842" fill="#E2E0C1"/>
<ellipse cx="67.7668" cy="86.4316" rx="6.55336" ry="6.56842" fill="#E2E0C1"/>
<rect x="40.3176" y="73.2727" width="2.31757" height="5.45455" fill="#E2E0C1"/>
<path d="M41.4764 70L38 74.3636H44.9527L41.4764 70Z" fill="#E2E0C1"/>
<rect x="50" y="60.3333" width="5.41769" height="2.33333" fill="#E2E0C1"/>
<path d="M58.6683 61.5L54.3342 58V65L58.6683 61.5Z" fill="#E2E0C1"/>
<rect x="66.3176" y="70" width="2.31757" height="5.45455" fill="#E2E0C1"/>
<path d="M67.4764 78.7273L70.9527 74.3636H64L67.4764 78.7273Z" fill="#E2E0C1"/>
</svg>
