<svg width="96" height="107" viewBox="0 0 96 107" fill="none" xmlns="http://www.w3.org/2000/svg">
<path d="M95.7694 106.363H14V0H70.2165L95.7694 25.3245V106.363Z" fill="#3C97A4"/>
<path d="M92.2753 28.0582H68V4L92.2753 28.0582Z" fill="#19E2FF"/>
<rect y="16" width="55" height="28" rx="4" fill="#2B747F"/>
<path d="M18.1094 33.3086L19.832 24.2031H22.46L19.6211 37H16.9668L14.8838 28.4395L12.8008 37H10.1465L7.30762 24.2031H9.93555L11.667 33.291L13.7764 24.2031H16.0088L18.1094 33.3086ZM23.4352 37V24.2031H27.3727C28.4977 24.2031 29.5025 24.458 30.3873 24.9678C31.2779 25.4717 31.9723 26.1924 32.4703 27.1299C32.9684 28.0615 33.2174 29.1221 33.2174 30.3115V30.9004C33.2174 32.0898 32.9713 33.1475 32.4791 34.0732C31.9928 34.999 31.3043 35.7168 30.4137 36.2266C29.5231 36.7363 28.5182 36.9941 27.399 37H23.4352ZM26.0719 26.3389V34.8818H27.3463C28.3775 34.8818 29.1656 34.5449 29.7106 33.8711C30.2555 33.1973 30.5338 32.2334 30.5455 30.9795V30.3027C30.5455 29.002 30.276 28.0176 29.7369 27.3496C29.1979 26.6758 28.4098 26.3389 27.3727 26.3389H26.0719ZM37.3215 32.4912V37H34.6848V24.2031H39.677C40.6379 24.2031 41.4817 24.3789 42.2082 24.7305C42.9406 25.082 43.5031 25.583 43.8957 26.2334C44.2883 26.8779 44.4846 27.6133 44.4846 28.4395C44.4846 29.6934 44.0539 30.6836 43.1926 31.4102C42.3371 32.1309 41.1506 32.4912 39.633 32.4912H37.3215ZM37.3215 30.3555H39.677C40.3742 30.3555 40.9045 30.1914 41.2678 29.8633C41.6369 29.5352 41.8215 29.0664 41.8215 28.457C41.8215 27.8301 41.6369 27.3232 41.2678 26.9365C40.8987 26.5498 40.3889 26.3506 39.7385 26.3389H37.3215V30.3555Z" fill="#23DCFF"/>
<path fill-rule="evenodd" clip-rule="evenodd" d="M57 57.3945C58.1953 57.793 59.1562 58.5019 59.8828 59.5215C60.6094 60.541 60.9727 61.6953 60.9727 62.9844C60.9727 64.6953 60.3984 66.125 59.25 67.2734C58.1016 68.4219 56.6836 68.9961 54.9961 68.9961H54.1875L43.3945 89L39 93.0078V88.7891L50.6016 66.9922C50.0859 66.5 49.6875 65.9082 49.4062 65.2168C49.125 64.5254 48.9844 63.7813 48.9844 62.9844C48.9844 61.6953 49.4355 60.541 50.3379 59.5215C51.2402 58.5019 52.793 57.793 54.9961 57.3945V53C55.582 53 56.0625 53.1816 56.4375 53.5449C56.8125 53.9082 57 54.3945 57 55.0039V57.3945ZM56.7891 64.0039C56.7891 63.793 56.8242 63.623 56.8945 63.4941C56.9648 63.3652 57 63.1953 57 62.9844C57 62.3984 56.8125 61.918 56.4375 61.543C56.0625 61.168 55.582 60.9805 54.9961 60.9805C54.5977 60.9805 54.2461 61.0742 53.9414 61.2617C53.6367 61.4492 53.3789 61.6953 53.168 62C53.168 62.1875 53.1387 62.3516 53.0801 62.4922C53.0215 62.6328 52.9922 62.7969 52.9922 62.9844C52.9922 63.5938 53.1738 64.0801 53.5371 64.4434C53.9004 64.8066 54.3867 64.9883 54.9961 64.9883C55.3945 64.9883 55.7402 64.8945 56.0332 64.707C56.3262 64.5195 56.5781 64.2852 56.7891 64.0039ZM70.9922 88.7891V93.0078L66.5977 89L57.7734 72.582C58.4766 72.3945 59.127 72.1484 59.7246 71.8438C60.3223 71.5391 60.8789 71.1875 61.3945 70.7891L70.9922 88.7891Z" fill="#19E2FF"/>
</svg>
