<svg width="96" height="107" viewBox="0 0 96 107" fill="none" xmlns="http://www.w3.org/2000/svg">
<path d="M95.7694 106.363H14V0H70.2165L95.7694 25.3245V106.363Z" fill="#A75FD9"/>
<path d="M92.2753 28.0582H68V4L92.2753 28.0582Z" fill="#DBA7FF"/>
<rect y="16" width="55" height="28" rx="4" fill="#8950B1"/>
<path d="M13.4922 32.5137L15.1191 23.9141H17.6011L14.9199 36H12.4131L10.4458 27.915L8.47852 36H5.97168L3.29053 23.9141H5.77246L7.40771 32.4971L9.3999 23.9141H11.5083L13.4922 32.5137ZM25.8176 30.7622H21.0363V33.9995H26.6477V36H18.5461V23.9141H26.6311V25.9312H21.0363V28.8115H25.8176V30.7622ZM27.7006 36V23.9141H31.934C33.4005 23.9141 34.5128 24.1963 35.2709 24.7607C36.0291 25.3197 36.4081 26.1414 36.4081 27.2261C36.4081 27.8182 36.2559 28.3411 35.9516 28.7949C35.6472 29.2432 35.2239 29.5724 34.6816 29.7827C35.3014 29.9377 35.7883 30.2503 36.1425 30.7207C36.5022 31.1911 36.682 31.7666 36.682 32.4473C36.682 33.6094 36.3113 34.4893 35.5697 35.0869C34.8282 35.6846 33.7712 35.9889 32.3988 36H27.7006ZM30.1908 30.7373V33.9995H32.3241C32.9107 33.9995 33.3673 33.8612 33.6938 33.5845C34.0258 33.3022 34.1918 32.9149 34.1918 32.4224C34.1918 31.3156 33.6191 30.7539 32.4736 30.7373H30.1908ZM30.1908 28.9775H32.0336C33.2898 28.9554 33.9179 28.4546 33.9179 27.4751C33.9179 26.9272 33.7574 26.5343 33.4364 26.2964C33.121 26.0529 32.6202 25.9312 31.934 25.9312H30.1908V28.9775ZM41.4039 23.9141L44.5084 32.6797L47.5963 23.9141H50.8668V36H48.3683V32.6963L48.6173 26.9937L45.3551 36H43.6451L40.3912 27.002L40.6403 32.6963V36H38.15V23.9141H41.4039Z" fill="#CC98F1"/>
</svg>
