<svg width="96" height="107" viewBox="0 0 96 107" fill="none" xmlns="http://www.w3.org/2000/svg">
<path d="M95.7694 106.363H14V0H70.2165L95.7694 25.3245V106.363Z" fill="#390A2C"/>
<path d="M92.2753 28.0582H68V4L92.2753 28.0582Z" fill="#FF2DC2"/>
<rect y="16" width="55" height="28" rx="4" fill="black"/>
<path fill-rule="evenodd" clip-rule="evenodd" d="M21.7217 28.6152L24.1211 24.2031H27.1533L23.4268 30.5488L27.25 37H24.1826L21.7217 32.5176L19.2607 37H16.1934L20.0166 30.5488L16.29 24.2031H19.3223L21.7217 28.6152ZM28.1451 37V24.2031H32.0826C33.2077 24.2031 34.214 24.4565 35.1017 24.9634C35.9894 25.4702 36.6823 26.1909 37.1803 27.1255C37.6784 28.0601 37.9274 29.1221 37.9274 30.3115V30.9004C37.9274 32.0898 37.6827 33.1475 37.1935 34.0732C36.7042 34.999 36.0143 35.7168 35.1237 36.2266C34.233 36.7363 33.2282 36.9941 32.109 37H28.1451ZM30.7819 26.3389V34.8818H32.0563C33.0875 34.8818 33.8756 34.5449 34.4205 33.8711C34.9655 33.1973 35.2438 32.2334 35.2555 30.9795V30.3027C35.2555 29.0019 34.986 28.0161 34.4469 27.3452C33.9078 26.6743 33.1198 26.3389 32.0826 26.3389H30.7819Z" fill="#FF2DC2"/>
<path fill-rule="evenodd" clip-rule="evenodd" d="M57.0039 54V65.9883H73V54H57.0039ZM57.0039 90H73V69.9961H57.0039V90ZM37 90H52.9961V77.9766H37V90ZM37 74.0039H52.9961V54H37V74.0039Z" fill="#FF2DC2"/>
</svg>
