<svg width="96" height="107" viewBox="0 0 96 107" fill="none" xmlns="http://www.w3.org/2000/svg">
<path d="M95.7694 106.363H14V0H70.2165L95.7694 25.3245V106.363Z" fill="#79A92E"/>
<path d="M92.2753 28.0582H68V4L92.2753 28.0582Z" fill="#99CD48"/>
<rect y="16" width="55" height="28" rx="4" fill="#658C28"/>
<path fill-rule="evenodd" clip-rule="evenodd" d="M16.7217 28.6152L19.1211 24.2031H22.1533L18.4268 30.5488L22.25 37H19.1826L16.7217 32.5176L14.2607 37H11.1934L15.0166 30.5488L11.29 24.2031H14.3223L16.7217 28.6152ZM25.7819 34.8818H31.3805V37H23.1451V24.2031H25.7819V34.8818ZM39.096 33.6426C39.096 33.1445 38.9202 32.7622 38.5686 32.4956C38.2171 32.229 37.5842 31.9478 36.6702 31.6519C35.7561 31.356 35.0325 31.0645 34.4993 30.7773C33.0461 29.9922 32.3196 28.9346 32.3196 27.6045C32.3196 26.9131 32.5144 26.2964 32.9041 25.7544C33.2937 25.2124 33.8533 24.7891 34.5828 24.4844C35.3123 24.1797 36.1311 24.0273 37.0393 24.0273C37.9534 24.0273 38.7678 24.1929 39.4827 24.5239C40.1975 24.855 40.7527 25.3223 41.1482 25.9258C41.5437 26.5293 41.7415 27.2148 41.7415 27.9824H39.1047C39.1047 27.3965 38.9202 26.9409 38.551 26.6157C38.1819 26.2905 37.6633 26.1279 36.9954 26.1279C36.3508 26.1279 35.8499 26.2642 35.4924 26.5366C35.135 26.8091 34.9563 27.168 34.9563 27.6133C34.9563 28.0293 35.1658 28.3779 35.5847 28.6592C36.0037 28.9404 36.6204 29.2041 37.4348 29.4502C38.9348 29.9014 40.0276 30.4609 40.7131 31.1289C41.3987 31.7969 41.7415 32.6289 41.7415 33.625C41.7415 34.7324 41.3225 35.6011 40.4846 36.231C39.6467 36.8608 38.5188 37.1758 37.1008 37.1758C36.1165 37.1758 35.22 36.9956 34.4114 36.6353C33.6028 36.2749 32.9861 35.7813 32.5613 35.1543C32.1365 34.5273 31.9241 33.8008 31.9241 32.9746H34.5696C34.5696 34.3867 35.4133 35.0928 37.1008 35.0928C37.7278 35.0928 38.2171 34.9653 38.5686 34.7104C38.9202 34.4556 39.096 34.0996 39.096 33.6426Z" fill="#99CD48"/>
<path fill-rule="evenodd" clip-rule="evenodd" d="M73.5625 57H59.375V64.125H62.875L55.8125 70.0625L48.6875 64.125H52.25V57H38V64.125H41.5625L52.25 73L41.5625 81.875H38V89H52.25V81.875H48.6875L55.8125 75.9375L62.875 81.875H59.375V89H73.5625V81.875H70L59.375 73L70 64.125H73.5625V57Z" fill="#99CD48"/>
</svg>
