<svg width="96" height="107" viewBox="0 0 96 107" fill="none" xmlns="http://www.w3.org/2000/svg">
<path d="M95.7694 106.363H14V0H70.2165L95.7694 25.3245V106.363Z" fill="#79A92E"/>
<path d="M92.2753 28.0582H68V4L92.2753 28.0582Z" fill="#99CD48"/>
<rect y="16" width="55" height="28" rx="4" fill="#658C28"/>
<path fill-rule="evenodd" clip-rule="evenodd" d="M11.2212 28.333L13.4873 24.166H16.3511L12.8315 30.1592L16.4424 36.252H13.5454L11.2212 32.0186L8.89697 36.252H6L9.61084 30.1592L6.09131 24.166H8.95508L11.2212 28.333ZM19.754 34.2515H25.0416V36.252H17.2638V24.166H19.754V34.2515ZM32.3045 33.0811C32.3045 32.6107 32.1384 32.2496 31.8064 31.9978C31.4744 31.746 30.8767 31.4804 30.0134 31.2009C29.1502 30.9215 28.4667 30.6462 27.9631 30.375C26.5907 29.6335 25.9046 28.6346 25.9046 27.3784C25.9046 26.7254 26.0886 26.143 26.4566 25.6311C26.8246 25.1192 27.353 24.7194 28.042 24.4316C28.731 24.1439 29.5043 24 30.3621 24C31.2254 24 31.9946 24.1563 32.6697 24.469C33.3448 24.7817 33.8692 25.223 34.2427 25.793C34.6162 26.363 34.803 27.0104 34.803 27.7354H32.3128C32.3128 27.182 32.1384 26.7517 31.7898 26.4446C31.4412 26.1374 30.9514 25.9839 30.3206 25.9839C29.7118 25.9839 29.2387 26.1125 28.9011 26.3699C28.5636 26.6272 28.3948 26.9661 28.3948 27.3867C28.3948 27.7796 28.5926 28.1089 28.9883 28.3745C29.384 28.6401 29.9664 28.8892 30.7356 29.1216C32.1523 29.5477 33.1843 30.0762 33.8318 30.707C34.4793 31.3379 34.803 32.1237 34.803 33.0645C34.803 34.1104 34.4073 34.9307 33.616 35.5256C32.8246 36.1205 31.7594 36.418 30.4202 36.418C29.4905 36.418 28.6438 36.2478 27.8801 35.9075C27.1165 35.5671 26.534 35.1009 26.1328 34.5088C25.7316 33.9167 25.531 33.2305 25.531 32.4502H28.0296C28.0296 33.7839 28.8264 34.4507 30.4202 34.4507C31.0123 34.4507 31.4744 34.3303 31.8064 34.0896C32.1384 33.8489 32.3045 33.5127 32.3045 33.0811ZM39.31 24.166L42.4144 32.9316L45.5023 24.166H48.7728V36.252H46.2743V32.9482L46.5233 27.2456L43.2611 36.252H41.5512L38.2973 27.2539L38.5463 32.9482V36.252H36.0561V24.166H39.31Z" fill="#99CD48"/>
<path fill-rule="evenodd" clip-rule="evenodd" d="M73.5625 57H59.375V64.125H62.875L55.8125 70.0625L48.6875 64.125H52.25V57H38V64.125H41.5625L52.25 73L41.5625 81.875H38V89H52.25V81.875H48.6875L55.8125 75.9375L62.875 81.875H59.375V89H73.5625V81.875H70L59.375 73L70 64.125H73.5625V57Z" fill="#99CD48"/>
</svg>
