<svg width="96" height="107" viewBox="0 0 96 107" fill="none" xmlns="http://www.w3.org/2000/svg">
<path d="M95.7694 106.363H14V0H70.2165L95.7694 25.3245V106.363Z" fill="#79A92E"/>
<path d="M92.2753 28.0582H68V4L92.2753 28.0582Z" fill="#99CD48"/>
<rect y="16" width="55" height="28" rx="4" fill="#658C28"/>
<path fill-rule="evenodd" clip-rule="evenodd" d="M13.2212 28.333L15.4873 24.166H18.3511L14.8315 30.1592L18.4424 36.252H15.5454L13.2212 32.0186L10.897 36.252H8L11.6108 30.1592L8.09131 24.166H10.9551L13.2212 28.333ZM21.754 34.2515H27.0416V36.252H19.2638V24.166H21.754V34.2515ZM34.3045 33.0811C34.3045 32.6107 34.1384 32.2496 33.8064 31.9978C33.4744 31.746 32.8767 31.4804 32.0134 31.2009C31.1502 30.9215 30.4667 30.6462 29.9631 30.375C28.5907 29.6335 27.9046 28.6346 27.9046 27.3784C27.9046 26.7254 28.0886 26.143 28.4566 25.6311C28.8246 25.1192 29.353 24.7194 30.042 24.4316C30.731 24.1439 31.5043 24 32.3621 24C33.2254 24 33.9946 24.1563 34.6697 24.469C35.3448 24.7817 35.8692 25.223 36.2427 25.793C36.6162 26.363 36.803 27.0104 36.803 27.7354H34.3128C34.3128 27.182 34.1384 26.7517 33.7898 26.4446C33.4412 26.1374 32.9514 25.9839 32.3206 25.9839C31.7118 25.9839 31.2387 26.1125 30.9011 26.3699C30.5636 26.6272 30.3948 26.9661 30.3948 27.3867C30.3948 27.7796 30.5926 28.1089 30.9883 28.3745C31.384 28.6401 31.9664 28.8892 32.7356 29.1216C34.1523 29.5477 35.1843 30.0762 35.8318 30.707C36.4793 31.3379 36.803 32.1237 36.803 33.0645C36.803 34.1104 36.4073 34.9307 35.616 35.5256C34.8246 36.1205 33.7594 36.418 32.4202 36.418C31.4905 36.418 30.6438 36.2478 29.8801 35.9075C29.1165 35.5671 28.534 35.1009 28.1328 34.5088C27.7316 33.9167 27.531 33.2305 27.531 32.4502H30.0296C30.0296 33.7839 30.8264 34.4507 32.4202 34.4507C33.0123 34.4507 33.4744 34.3303 33.8064 34.0896C34.1384 33.8489 34.3045 33.5127 34.3045 33.0811ZM42.3808 28.333L44.6469 24.166H47.5106L43.9911 30.1592L47.6019 36.252H44.705L42.3808 32.0186L40.0565 36.252H37.1596L40.7704 30.1592L37.2509 24.166H40.1146L42.3808 28.333Z" fill="#99CD48"/>
<path fill-rule="evenodd" clip-rule="evenodd" d="M73.5625 57H59.375V64.125H62.875L55.8125 70.0625L48.6875 64.125H52.25V57H38V64.125H41.5625L52.25 73L41.5625 81.875H38V89H52.25V81.875H48.6875L55.8125 75.9375L62.875 81.875H59.375V89H73.5625V81.875H70L59.375 73L70 64.125H73.5625V57Z" fill="#99CD48"/>
</svg>
