<svg width="96" height="107" viewBox="0 0 96 107" fill="none" xmlns="http://www.w3.org/2000/svg">
<path d="M95.7694 106.363H14V0H70.2165L95.7694 25.3245V106.363Z" fill="#11907C"/>
<path d="M92.2753 28.0582H68V4L92.2753 28.0582Z" fill="#37D2BA"/>
<rect y="16" width="55" height="28" rx="4" fill="#0D6254"/>
<path fill-rule="evenodd" clip-rule="evenodd" d="M16.4038 28.0811L18.6699 23.9141H21.5337L18.0142 29.9072L21.625 36H18.728L16.4038 31.7666L14.0796 36H11.1826L14.7935 29.9072L11.2739 23.9141H14.1377L16.4038 28.0811ZM25.7003 23.9141L28.8048 32.6797L31.8927 23.9141H35.1632V36H32.6647V32.6963L32.9137 26.9937L29.6515 36H27.9415L24.6876 27.002L24.9367 32.6963V36H22.4464V23.9141H25.7003ZM39.3963 33.9995H44.6839V36H36.906V23.9141H39.3963V33.9995Z" fill="#37D2BA"/>
<path fill-rule="evenodd" clip-rule="evenodd" d="M33 71.9766L47.9766 86.9531L53.6719 81.2578L44.3203 71.9766L53.6719 62.625L47.9766 57L33 71.9766ZM77.6484 71.9766L62.6719 57L56.9766 62.625L66.3281 71.9766L56.9766 81.2578L62.6719 86.9531L77.6484 71.9766Z" fill="#37D2BA"/>
</svg>
