<svg width="53" height="50" viewBox="0 0 53 50" fill="none" xmlns="http://www.w3.org/2000/svg">
<rect width="53" height="50" fill="#014F9D"/>
<path d="M29.9035 26.0506L27.7822 28.1719L33.7784 34.1681L35.8997 32.0468L29.9035 26.0506Z" fill="white"/>
<path d="M31.4996 23C33.4296 23 34.9996 21.43 34.9996 19.5C34.9996 18.92 34.8396 18.38 34.5896 17.9L31.8896 20.6L30.3996 19.11L33.0996 16.41C32.6196 16.16 32.0796 16 31.4996 16C29.5696 16 27.9996 17.57 27.9996 19.5C27.9996 19.91 28.0796 20.3 28.2096 20.66L26.3596 22.51L24.5796 20.73L25.2896 20.02L23.8796 18.61L25.9996 16.49C24.8296 15.32 22.9296 15.32 21.7596 16.49L18.2196 20.03L19.6296 21.44H16.8096L16.0996 22.15L19.6396 25.69L20.3496 24.98V22.15L21.7596 23.56L22.4696 22.85L24.2496 24.63L16.8396 32.0401L18.9596 34.16L30.3396 22.79C30.6996 22.92 31.0896 23 31.4996 23Z" fill="white"/>
</svg>
